<?xml version="1.0" encoding="utf-8"?>
<!-- Generator: Adobe Illustrator 25.1.0, SVG Export Plug-In . SVG Version: 6.00 Build 0)  -->
<svg version="1.1" xmlns="http://www.w3.org/2000/svg" xmlns:xlink="http://www.w3.org/1999/xlink" x="0px" y="0px" width="750px"
	 height="750px" viewBox="0 0 750 750" enable-background="new 0 0 750 750" xml:space="preserve">
<g id="FILL-BACKGROUND">
	<rect fill="#FFFFFF" width="750" height="750"/>
</g>
<g id="N-TEXT">
</g>
<g id="_x32_D_x24_AG-DIAGRAM">
</g>
<g id="_x32_D_x24_AG-DETAILS">
</g>
<g id="_x32_D_x24_AG-SPORTS">
	<g id="POLYLINE_416_">
		
			<path fill="none" stroke="#E74C3C" stroke-width="2.75" stroke-linecap="round" stroke-linejoin="round" stroke-miterlimit="10" d="
			M391.915,607.806c2.138-8.903,3.563-18.201,4.261-27.327c0.494-6.785,0.657-13.724,0.005-20.503"/>
	</g>
	<g id="POLYLINE_415_">
		
			<path fill="none" stroke="#E74C3C" stroke-width="2.75" stroke-linecap="round" stroke-linejoin="round" stroke-miterlimit="10" d="
			M371.658,559.257c-0.64,2.004-1.48,4.534-1.935,6.564c-0.4,1.719-0.686,3.5-0.87,5.255c-0.989,11.253,0.049,25.075,0.367,36.429"
			/>
	</g>
	<g id="POLYLINE_414_">
		
			<path fill="none" stroke="#E74C3C" stroke-width="2.75" stroke-linecap="round" stroke-linejoin="round" stroke-miterlimit="10" d="
			M367.673,642.411c-0.63-7.315-0.544-14.984-0.381-22.321c0.127-3.233,0.283-6.57,0.965-9.739c0.271-1.175,0.61-2.372,1.284-3.386
			c0.321-0.48,0.731-0.902,1.209-1.227c0.625-0.427,1.348-0.693,2.076-0.884c1.662-0.422,3.406-0.564,5.115-0.633
			c2.916-0.086,5.879,0.067,8.741,0.659c1.159,0.253,2.323,0.59,3.363,1.172c0.68,0.382,1.307,0.89,1.74,1.545
			c0.379,0.563,0.591,1.225,0.681,1.894c0.119,0.867,0.073,1.758-0.002,2.627c-1.138,8.466-1.737,18.126-3.45,26.485"/>
	</g>
	<g id="POLYLINE_413_">
		
			<path fill="none" stroke="#E74C3C" stroke-width="2.75" stroke-linecap="round" stroke-linejoin="round" stroke-miterlimit="10" d="
			M363.73,653.369c1.116-3.94,2.37-7.949,4.266-11.589c0.974-1.822,2.136-3.624,3.793-4.895c1.009-0.787,2.227-1.25,3.46-1.553
			c1.786-0.467,3.645-0.716,5.493-0.635c1.706,0.089,3.44,0.302,5.068,0.84c0.911,0.315,1.827,0.766,2.437,1.535
			c0.427,0.536,0.678,1.189,0.859,1.843c0.877,3.674,1.974,13.927,2.825,17.591c0.188,0.78,0.44,1.554,0.801,2.272
			c0.419,0.842,0.988,1.607,1.615,2.305c2.472,2.747,6.034,5.166,8.735,7.68c0.6,0.587,1.154,1.24,1.544,1.988
			c0.294,0.559,0.49,1.168,0.595,1.79c0.165,0.997,0.126,2.021,0.011,3.021c-0.178,1.468-0.541,2.931-1.054,4.318
			c-0.677,1.793-1.639,3.651-3.37,4.62c-0.897,0.508-1.927,0.736-2.948,0.81c-1.41,0.099-2.842-0.054-4.238-0.251
			c-2.75-0.367-6.394-1.261-9.137-1.832c-2.202-0.553-6.165-1.339-8.315-1.961c-3.193-0.876-6.477-1.793-9.388-3.405"/>
	</g>
	<g id="POLYLINE_412_">
		
			<path fill="none" stroke="#E74C3C" stroke-width="2.75" stroke-linecap="round" stroke-linejoin="round" stroke-miterlimit="10" d="
			M395.896,513.856c1.895-3.713,3.525-7.62,4.538-11.671c2.422-10.001,2.603-21.35,3.508-31.591"/>
	</g>
	<g id="POLYLINE_411_">
		
			<path fill="none" stroke="#E74C3C" stroke-width="2.75" stroke-linecap="round" stroke-linejoin="round" stroke-miterlimit="10" d="
			M371.658,559.257c-0.596-0.374-1.073-0.922-1.365-1.562c-0.339-0.722-0.499-1.534-0.644-2.315
			c-1.167-7.498-4.01-21.005-4.145-28.445c-0.077-2.794,0.014-5.651,0.294-8.432c0.112-0.998,0.205-2.042,0.488-3.009
			c0.158-0.534,0.398-1.053,0.767-1.475c0.39-0.453,0.902-0.784,1.434-1.046c1.657-0.79,3.51-1.089,5.319-1.297
			c3.53-0.364,7.153-0.222,10.688,0.011c2.354,0.172,4.815,0.412,7.145,0.791c0.996,0.172,2.023,0.356,2.978,0.697
			c0.518,0.189,1.031,0.437,1.435,0.819c0.327,0.306,0.563,0.7,0.717,1.118c0.385,1.1,0.48,2.291,0.568,3.446
			c0.163,2.732-0.001,5.528-0.285,8.247c-0.407,3.48-1.081,8.334-1.214,11.775c-0.083,1.9-0.024,3.883,0.112,5.781
			c0.222,3.723,1.1,8.477,1.017,12.205c-0.05,1.118-0.142,2.328-0.722,3.311c-0.337,0.566-0.882,0.923-1.508,1.098
			c-1.493,0.396-3.28,0.273-4.818,0.31c-4.65-0.057-9.507-0.113-14.114-0.752C374.383,560.295,372.903,560.022,371.658,559.257z"/>
	</g>
	<g id="POLYLINE_410_">
		
			<path fill="none" stroke="#E74C3C" stroke-width="2.75" stroke-linecap="round" stroke-linejoin="round" stroke-miterlimit="10" d="
			M366.813,514.333c0.179-3.922,0.246-8-0.08-11.912c-0.292-3.8-1.046-7.725-1.884-11.444c-0.705-3.015-2.669-11.038-3.222-13.949
			c-0.684-3.293-1.488-9.063-1.98-12.448"/>
	</g>
	<g id="POLYLINE_409_">
		
			<path fill="none" stroke="#E74C3C" stroke-width="2.75" stroke-linecap="round" stroke-linejoin="round" stroke-miterlimit="10" d="
			M352.826,559.811c1.269,9.532,1.977,19.965,2.465,29.574c0.1,2.665,0.216,5.792,0.103,8.443c-0.055,1.837-0.342,4.37-0.532,6.215"
			/>
	</g>
	<g id="POLYLINE_408_">
		
			<path fill="none" stroke="#E74C3C" stroke-width="2.75" stroke-linecap="round" stroke-linejoin="round" stroke-miterlimit="10" d="
			M333.324,605.011c-2.43-6.977-4.155-14.217-5.289-21.509c-1.033-6.495-1.788-13.2-1.973-19.777"/>
	</g>
	<g id="POLYLINE_407_">
		
			<path fill="none" stroke="#E74C3C" stroke-width="2.75" stroke-linecap="round" stroke-linejoin="round" stroke-miterlimit="10" d="
			M340.393,637.387c-2.228-6.529-4.014-16.556-5.754-23.283c-0.468-1.917-1.436-4.714-1.577-6.665
			c-0.065-0.803-0.023-1.632,0.251-2.397c0.356-1.004,1.092-1.829,1.931-2.463c1.81-1.343,4.045-1.991,6.253-2.303
			c2.975-0.382,6.054-0.248,8.957,0.529c1.535,0.434,3.161,1.106,4.035,2.518c0.448,0.712,0.684,1.537,0.83,2.36
			c0.522,3.005,0.173,7.616,0.261,10.678c0.053,4.64,0.832,9.453,1.617,14.025"/>
	</g>
	<g id="POLYLINE_406_">
		
			<path fill="none" stroke="#E74C3C" stroke-width="2.75" stroke-linecap="round" stroke-linejoin="round" stroke-miterlimit="10" d="
			M358.953,632.647c-1.422-2.846-4.55-4.327-7.573-4.796c-2.681-0.415-5.797-0.187-7.813,1.828c-1.307,1.302-2.041,3.06-2.543,4.808
			c-0.916,3.306-1.119,6.808-1.287,10.221c-0.081,1.491-0.287,11.263-0.395,12.456c-0.078,2.602-0.47,6.972-0.432,9.521
			c-0.006,1.764,0.09,3.56,0.379,5.301c0.42,2.469,1.147,4.97,2.615,7.031c0.627,0.867,1.421,1.623,2.351,2.157
			c1.006,0.581,2.143,0.912,3.289,1.07c1.81,0.245,3.66,0.072,5.454-0.221c2.67-0.452,5.357-1.195,7.939-2.008
			c2.672-0.864,5.389-1.848,7.9-3.112c1.459-0.751,2.9-1.617,4.077-2.773c0.959-0.935,1.719-2.148,1.833-3.508
			c0.089-0.916-0.082-1.84-0.344-2.716c-0.297-0.967-0.68-1.935-1.109-2.852c-0.566-1.191-1.261-2.346-2.191-3.289
			c-1.026-1.063-2.483-1.854-3.734-2.626c-0.504-0.316-1.004-0.659-1.424-1.082c-0.335-0.334-0.618-0.72-0.852-1.131
			c-0.39-0.684-0.673-1.441-0.929-2.184c-0.503-1.487-0.943-3.158-1.336-4.681c-1.219-4.806-2.41-9.844-3.057-14.759
			C359.611,634.391,359.375,633.476,358.953,632.647z"/>
	</g>
	<g id="POLYLINE_405_">
		
			<path fill="none" stroke="#E74C3C" stroke-width="2.75" stroke-linecap="round" stroke-linejoin="round" stroke-miterlimit="10" d="
			M315.26,466.796c0.079,4.754,0.546,9.553,1.402,14.23c1.168,7.007,7.281,28.201,9.128,35.375"/>
	</g>
	<g id="POLYLINE_404_">
		
			<path fill="none" stroke="#E74C3C" stroke-width="2.75" stroke-linecap="round" stroke-linejoin="round" stroke-miterlimit="10" d="
			M354.265,514.149c0.322-2.973,0.701-6.48,0.748-9.445c0.104-3.338-0.233-11.469-0.319-14.917
			c-0.277-8.258,0.263-16.854,1.101-25.077"/>
	</g>
	<g id="POLYLINE_403_">
		
			<path fill="none" stroke="#E74C3C" stroke-width="2.75" stroke-linecap="round" stroke-linejoin="round" stroke-miterlimit="10" d="
			M326.91,514.733c-1.113,1.096-1.569,2.671-1.826,4.171c-0.518,3.392-0.146,6.872,0.354,10.245
			c0.503,3.026,1.224,6.757,1.244,9.804c0.092,5.836-0.938,13.382-1.491,19.24c-0.086,1.261-0.285,2.617-0.092,3.875
			c0.082,0.499,0.265,0.999,0.621,1.368c0.456,0.476,1.108,0.691,1.738,0.825c1.275,0.255,2.607,0.231,3.901,0.188
			c1.494-0.04,10.803-0.927,12.493-1.077c1.025-0.109,2.166-0.223,3.177-0.411c2.152-0.394,4.592-1.077,5.764-3.092
			c0.727-1.264,0.929-2.753,1.015-4.188c0.152-2.783-0.251-6.458-0.285-9.254c-0.05-2.723,0.206-5.515,0.553-8.215
			c0.285-2.185,1.067-7.457,1.209-9.6c0.182-2.302,0.236-4.719,0.189-7.028c-0.047-1.894-0.136-3.868-0.363-5.749
			c-0.037-0.263-0.079-0.54-0.16-0.795c-0.098-0.327-0.285-0.638-0.577-0.825c-0.284-0.187-0.623-0.27-0.954-0.327
			c-1.904-0.272-5.311,0.123-7.262,0.182c-1.422,0.06-2.917,0.079-4.336,0.001c-2.177-0.112-5.165-0.515-7.349-0.707
			c-1.656-0.13-3.364-0.23-5.001,0.109C328.532,513.67,327.605,514.056,326.91,514.733z"/>
	</g>
	<g id="POLYLINE_402_">
		
			<path fill="none" stroke="#E74C3C" stroke-width="2.75" stroke-linecap="round" stroke-linejoin="round" stroke-miterlimit="10" d="
			M357.953,462.165c0.36,0.649,0.692,1.406,1.202,1.952c0.453,0.505,1.036,0.878,1.634,1.19c1.894,0.956,3.985,1.5,6.042,1.979
			c4.101,0.926,8.446,1.385,12.637,1.706c5.546,0.357,13.413,0.923,18.924,1.675c1.401,0.129,2.857,0.287,4.263,0.178
			c0.486-0.043,0.981-0.116,1.432-0.31c0.284-0.121,0.545-0.297,0.759-0.52c0.296-0.307,0.505-0.688,0.67-1.079
			c0.329-0.793,0.523-1.648,0.689-2.489c0.362-1.905,0.546-3.951,0.687-5.887c0.586-7.899,0.139-19.197,0.195-27.179
			c0.016-4.477,0.478-12.29,0.325-16.743c-0.08-2.144-0.233-4.336-0.793-6.414c-0.428-1.662-1.332-3.42-1.883-5.041
			c-0.321-0.945-0.488-1.947-0.44-2.946c0.072-1.951,0.679-4.111,0.808-6.056c0.078-1.028-0.025-2.073-0.335-3.058
			c-0.412-1.354-1.158-2.595-1.901-3.789"/>
	</g>
	<g id="POLYLINE_401_">
		
			<path fill="none" stroke="#E74C3C" stroke-width="2.75" stroke-linecap="round" stroke-linejoin="round" stroke-miterlimit="10" d="
			M358.953,439.84c0.24,2.711,0.176,5.518,0.033,8.234c-0.231,3.091-0.516,8.516-0.671,11.578c-0.087,1.087-0.196,2.203-0.59,3.227
			c-0.221,0.564-0.562,1.105-1.073,1.446c-0.539,0.364-1.198,0.496-1.838,0.542c-2.126,0.134-5.271-0.634-7.386-0.947
			c-7.555-1.174-15.389-0.927-22.81,0.952c-2.459,0.57-6.265,1.887-8.767,1.946c-0.902,0.016-1.889-0.185-2.509-0.891
			c-0.547-0.611-0.737-1.446-0.828-2.241c-0.079-0.717-0.075-1.463-0.049-2.184c0.089-2.259,0.729-7.284,0.893-9.554
			c0.602-7.805,0.793-15.792-0.707-23.51c-0.511-2.706-1.571-7.443-1.868-10.109c-0.232-1.835-0.338-3.737-0.329-5.587
			c0.068-5.718,0.898-11.524,2.975-16.873c1.261-3.213,3.132-6.174,5.199-8.925"/>
	</g>
	<g id="POLYLINE_400_">
		
			<path fill="none" stroke="#E74C3C" stroke-width="2.75" stroke-linecap="round" stroke-linejoin="round" stroke-miterlimit="10" d="
			M290.785,237.085c-0.277,2.299-0.25,4.668-0.127,6.978c0.145,2.625,0.473,5.473,0.821,8.085c1.07,7.231,3.148,20.301,4.216,27.586
			c0.773,4.713,1.753,9.737,2.969,14.348c1.325,5.425,7.463,23.735,9.229,29.341c3.645,11.895,6.914,24.373,8.972,36.638
			c0.74,4.606,1.31,9.347,1.086,14.016c-0.096,2.568-0.583,5.208-1.141,7.715c-0.239,1.27-0.471,2.732,0.291,3.872
			c0.274,0.408,0.653,0.736,1.062,1.003c0.497,0.325,1.049,0.578,1.598,0.801c3.686,1.357,8.953,2.717,12.636,4.061l12.694,4.552
			c5.086,1.725,10.35,3.271,15.67,4.052c8.738,1.298,17.802,0.966,26.311-1.496c3.173-0.923,6.288-2.145,9.203-3.705
			c2.045-1.109,4.053-2.411,5.58-4.19c1.006-1.168,1.745-2.575,2.071-4.085c0.311-1.393,0.327-2.844,0.249-4.265
			c-0.413-6.66-4.678-25.436-5.888-32.239c-1.006-5.497-1.837-11.222-2.109-16.803c-0.248-4.821-0.049-9.93,0.259-14.752
			c1.15-13.157,2.238-31.538,3.903-44.597c0.777-5.718,1.874-11.513,3.394-17.081c1.153-4.214,2.585-8.425,4.374-12.412
			c0.965-2.261,2.384-4.667,3.213-6.981c0.708-2.036,0.826-4.229,0.696-6.367"/>
	</g>
	<g id="POLYLINE_399_">
		
			<path fill="none" stroke="#E74C3C" stroke-width="2.75" stroke-linecap="round" stroke-linejoin="round" stroke-miterlimit="10" d="
			M388.615,214.019c-0.67,1.969-1.36,4.004-1.416,6.102c-0.038,1.194,0.121,2.397,0.357,3.565c0.406,1.977,1.03,3.947,1.791,5.814
			c0.893,2.159,1.993,4.27,3.456,6.101c1.088,1.365,2.443,2.555,4.064,3.236c1.906,0.823,4.052,0.99,6.092,0.675
			c1.307-0.207,2.606-0.583,3.764-1.234c1.4-0.778,2.507-1.994,3.361-3.335c0.916-1.433,1.632-3.017,2.266-4.593
			c3.612-9.053,4.804-19.375,7.349-28.73c2.552-9.332,7.1-18.099,11.813-26.505c6.78-12.105,18.901-31.624,24.128-44.176
			c1.247-2.985,2.329-6.099,3.002-9.267c0.643-2.783,1.065-6.09,2.656-8.502c1.061-1.625,2.661-2.805,4.245-3.882
			c2.215-1.508,4.824-2.93,6.742-4.812c0.876-0.86,1.615-1.864,2.212-2.936c0.569-1.015,1.027-2.117,1.417-3.212
			c0.255-0.565,4.525-14.732,4.859-15.776c0.817-2.901,1.79-5.968,1.939-8.988c0.021-0.869-0.047-1.79-0.511-2.548
			c-0.534-0.858-1.414-1.428-2.227-1.996c-2.286-1.505-4.816-2.776-7.536-3.237c-2.683-0.445-5.654,0.334-7.518,2.377
			c-1.059,1.155-1.572,2.685-1.986,4.167c-0.439,1.514-0.957,3.776-1.508,5.223c-0.838,2.372-1.862,4.712-3.122,6.891
			c-0.697,1.171-1.454,2.346-2.459,3.277c-0.577,0.524-1.298,0.96-2.095,0.986c-0.584,0.023-1.156-0.196-1.621-0.541
			c-0.919-0.694-1.511-1.725-2.038-2.728c-1.042-2.069-1.949-4.424-3.403-6.247c-0.907-1.154-2.069-2.116-3.391-2.758
			c-1.288-0.615-2.959-1.03-4.227-0.162c-0.475,0.326-0.854,0.789-1.084,1.316c-0.164,0.38-0.254,0.802-0.199,1.215
			c0.069,0.525,0.409,0.96,0.768,1.328c0.577,0.584,1.255,1.114,1.748,1.776c0.47,0.625,0.804,1.347,1.071,2.079
			c0.657,1.845,0.994,3.962,1.48,5.858c0.468,1.904,1.108,3.793,1.962,5.56c0.76,1.621,2.026,3.941,2.562,5.623
			c0.258,0.782,0.425,1.607,0.392,2.434c-0.026,0.8-0.228,1.589-0.489,2.343c-0.466,1.32-1.125,2.715-1.708,3.991
			c-3.448,7.26-7.396,14.428-12.468,20.691l-5.157,6.269c-1.895,2.371-3.696,4.909-5.162,7.569
			c-1.858,3.364-3.326,7.065-4.666,10.664c-1.259,3.424-3.967,11.536-5.438,14.724c-0.537,1.181-1.163,2.345-1.904,3.411
			c-1.034,1.53-2.847,3.328-4.066,4.727c-1.662,1.888-3.207,3.974-4.55,6.101c-2.177,3.448-4.046,7.274-5.769,10.968
			C393.59,201.026,390.847,207.679,388.615,214.019z"/>
	</g>
	<g id="POLYLINE_398_">
		
			<path fill="none" stroke="#E74C3C" stroke-width="2.75" stroke-linecap="round" stroke-linejoin="round" stroke-miterlimit="10" d="
			M367.476,230.268l1.993-1.098c2.122-1.158,3.987-2.756,5.709-4.44c2.45-2.36,5.562-5.719,8.254-7.742
			c1.521-1.161,3.468-2.115,5.183-2.969"/>
	</g>
	<g id="POLYLINE_397_">
		
			<path fill="none" stroke="#E74C3C" stroke-width="2.75" stroke-linecap="round" stroke-linejoin="round" stroke-miterlimit="10" d="
			M317.487,223.686c1.567,2.058,3.333,4.029,5.174,5.844"/>
	</g>
	<g id="POLYLINE_396_">
		
			<path fill="none" stroke="#E74C3C" stroke-width="2.75" stroke-linecap="round" stroke-linejoin="round" stroke-miterlimit="10" d="
			M295.87,119.598c-0.006,4.472-0.306,10.506-0.537,14.998c-0.493,7.897-2.369,32.022-2.401,39.441
			c-0.199,8.081,0.341,17.5,0.916,25.612c0.215,3.709,0.301,7.538-0.078,11.233c-0.726,7.398-3.238,15.704-3.218,23.161
			c0.036,2.821,0.479,5.81,2.209,8.123c1.219,1.632,3.034,2.731,4.944,3.376c3.116,1.031,6.707,1.024,9.651-0.528
			c2.677-1.438,4.492-4.04,5.811-6.708c1.591-3.253,2.596-6.813,3.441-10.324c1.062-4.508,1.71-9.148,1.836-13.779
			c0.312-7.249-1.358-15.987-2.364-23.188c-1.398-9.46-0.684-20.257-1.569-29.766l-1.768-19.254
			c-0.538-7.15-1.071-15.358-1.125-22.5c0.004-0.83,0.001-1.741,0.122-2.56c0.087-0.606,0.256-1.203,0.52-1.756
			c0.375-0.792,0.92-1.502,1.464-2.184l2.228-2.688c1.067-1.328,2.083-2.74,2.808-4.286c0.769-1.634,1.239-3.418,1.621-5.178
			c0.481-2.312,1.001-5.579,1.864-7.752c0.592-1.611,1.597-3.311,2-4.986c0.237-1.039,0.144-2.264-0.617-3.071
			c-0.333-0.355-0.8-0.555-1.277-0.621c-0.705-0.1-1.425,0.01-2.109,0.192c-1.211,0.33-2.414,0.919-3.167,1.956
			c-0.388,0.517-0.664,1.111-0.888,1.714c-0.524,1.423-0.889,3.076-1.454,4.484c-0.339,0.839-0.773,1.68-1.481,2.267
			c-0.731,0.621-1.764,0.923-2.689,0.594c-0.7-0.246-1.251-0.789-1.691-1.37c-1.021-1.395-1.601-3.072-1.995-4.742
			c-0.915-3.925-0.603-9.387-0.705-13.425c-0.047-1.988-0.132-4.05-0.479-6.008c-0.188-1.029-0.441-2.068-0.907-3.01
			c-0.217-0.434-0.495-0.845-0.859-1.169c-0.388-0.35-0.865-0.591-1.362-0.744c-0.856-0.26-1.764-0.319-2.654-0.34
			c-1.836-0.025-3.703,0.175-5.516,0.457c-1.057,0.174-2.178,0.384-3.212,0.66c-0.549,0.15-1.101,0.33-1.603,0.601
			c-0.671,0.353-1.219,0.914-1.577,1.58c-0.767,1.458-1.021,3.132-1.229,4.749c-0.406,3.667-0.285,7.415,0.204,11.068
			c0.459,3.013,1.587,10.917,2.071,13.781c0.463,2.646,1.022,5.349,1.922,7.883c0.527,1.48,1.216,2.95,1.938,4.345
			c0.587,1.138,1.733,3.181,2.193,4.351C295.811,115.956,295.876,117.811,295.87,119.598z"/>
	</g>
	<g id="POLYLINE_395_">
		
			<path fill="none" stroke="#E74C3C" stroke-width="2.75" stroke-linecap="round" stroke-linejoin="round" stroke-miterlimit="10" d="
			M363.58,217.923c0.446-0.208,0.911-0.414,1.405-0.469c0.239-0.025,0.493-0.004,0.706,0.117c0.434,0.256,0.627,0.773,0.773,1.231
			c0.181,0.603,0.28,1.255,0.368,1.879c0.335,2.629,0.551,5.426,0.628,8.074c0.02,1.087,0.043,2.239-0.068,3.32
			c-0.045,0.385-0.114,0.774-0.252,1.137c-0.166,0.452-0.471,0.853-0.878,1.113c-0.766,0.488-1.702,0.653-2.599,0.637"/>
	</g>
	<g id="POLYLINE_394_">
		
			<path fill="none" stroke="#E74C3C" stroke-width="2.75" stroke-linecap="round" stroke-linejoin="round" stroke-miterlimit="10" d="
			M324.252,222.86c-0.422,0.009-0.845,0.09-1.24,0.24c-0.298,0.116-0.589,0.275-0.811,0.509c-0.228,0.238-0.349,0.559-0.389,0.882
			c-0.044,0.343-0.02,0.694,0.018,1.036c0.097,0.816,0.282,1.661,0.463,2.463c0.181,0.72,1.548,6.686,1.745,7.241
			c0.146,0.472,0.32,0.947,0.562,1.379c0.236,0.425,0.559,0.808,0.976,1.065c0.713,0.446,1.57,0.572,2.392,0.657"/>
	</g>
	<g id="POLYLINE_393_">
		
			<path fill="none" stroke="#E74C3C" stroke-width="2.75" stroke-linecap="round" stroke-linejoin="round" stroke-miterlimit="10" d="
			M323.875,220.885c1.252,6.802,3.861,16.269,5.525,23.055c0.591,2.25,1.354,4.495,2.571,6.489c1.155,1.911,2.661,3.603,4.324,5.086
			c2.98,2.613,6.603,4.761,10.604,5.196c3.672,0.391,7.474-0.745,10.339-3.072c2.455-1.994,4.15-4.801,5.179-7.766
			c0.644-1.852,1.003-3.812,1.087-5.77c0.085-1.784-0.008-4.154,0.039-5.938c0.056-2.672,0.39-7.862,0.39-10.5
			c0.105-4.746-0.51-11.51-0.783-16.293l-0.087-1.828c-0.088-2.324-0.062-5.475-0.377-7.749c-0.207-1.569-0.583-3.134-1.134-4.618
			c-0.757-2.005-1.832-3.983-3.522-5.348c-2.411-1.902-5.729-2.137-8.605-2.885c-2.467-0.611-5.211-1.53-7.762-1.489
			c-2.519,0.034-4.928,0.96-7.203,1.968c-2.449,1.17-5.22,2.258-7.371,3.934c-1.184,0.925-2.154,2.117-2.82,3.463
			c-0.736,1.459-1.218,3.049-1.555,4.644c-0.383,1.851-0.574,3.758-0.51,5.649c0.026,1.212,0.215,2.696,0.343,3.907
			C322.896,213.949,323.328,218.011,323.875,220.885z"/>
	</g>
	<g id="POLYLINE_392_">
		
			<path fill="none" stroke="#E74C3C" stroke-width="2.75" stroke-linecap="round" stroke-linejoin="round" stroke-miterlimit="10" d="
			M330.786,214.578c-0.423,0.419-0.652,0.991-0.796,1.559c-0.478,2.047-0.148,4.423-0.204,6.507
			c-0.104,3.165-0.099,6.562,0.141,9.711c0.181,2.474,0.423,5.022,0.926,7.453c0.413,1.848,0.971,3.937,2.621,5.062
			c1.07,0.725,2.566,0.983,3.689,0.232c0.563-0.361,1.097-0.902,1.589-1.357c0.584-0.545,1.205-1.072,1.887-1.49
			c1.174-0.721,2.502-1.17,3.834-1.499c1.734-0.418,3.528-0.624,5.312-0.622c1.726,0.006,3.479,0.211,5.099,0.834
			c0.948,0.345,1.984,0.904,2.917,1.286c0.262,0.104,0.535,0.198,0.812,0.254c0.449,0.097,0.93,0.055,1.342-0.152
			c1.044-0.526,1.526-1.707,1.754-2.794c0.232-1.101,0.279-2.256,0.312-3.378c0.02-1.668,0.096-6.289,0.13-8.013
			c0.012-4.333-0.272-8.748-1.271-12.974c-0.216-0.864-0.472-1.738-0.826-2.555c-0.214-0.486-0.464-0.968-0.81-1.374
			c-0.193-0.224-0.423-0.425-0.697-0.543c-0.278-0.123-0.59-0.155-0.891-0.131c-0.29,0.022-0.578,0.09-0.857,0.169
			c-0.941,0.282-1.966,0.694-2.922,0.915c-3.642,0.866-8.063,0.863-11.763,1.411c-1.132,0.176-3.265,0.58-4.377,0.644
			c-0.934,0.077-2.107,0.017-3.051-0.012c-0.868-0.017-1.766-0.027-2.614,0.184C331.6,214.025,331.135,214.232,330.786,214.578z"/>
	</g>
</g>
<g id="_x32_D_x24_AG-OUTLINE">
	<g id="POLYLINE_131_">
		
			<path fill="none" stroke="#E74C3C" stroke-width="3.5" stroke-linecap="round" stroke-linejoin="round" stroke-miterlimit="10" d="
			M352.826,559.811c0.41-0.725,0.644-1.54,0.788-2.356c0.489-2.947,0.06-6.589-0.049-9.577c-0.357-5.821,1.015-12.411,1.623-18.195
			c0.407-4.281,0.397-8.649,0.022-12.933c-0.071-0.609-0.098-1.277-0.311-1.856c-0.116-0.313-0.336-0.588-0.634-0.744
			c0.322-2.973,0.701-6.48,0.748-9.445c0.104-3.338-0.233-11.469-0.319-14.917c-0.277-8.258,0.263-16.854,1.101-25.077
			c0.473-0.128,0.924-0.365,1.26-0.726c0.471-0.501,0.728-1.162,0.899-1.819c0.287,0.513,0.539,1.073,0.881,1.552
			c0.229,0.323,0.504,0.615,0.811,0.863c0.498,3.415,1.293,9.132,1.98,12.448c0.544,2.873,2.53,10.989,3.222,13.949
			c0.839,3.722,1.592,7.642,1.884,11.444c0.326,3.91,0.259,7.992,0.08,11.912c-0.441,0.657-0.63,1.445-0.765,2.214
			c-0.693,4.841-0.725,9.809-0.271,14.674c0.22,2.289,0.592,4.84,0.958,7.116c0.082,0.345,3.123,18.596,3.186,18.306
			c0.151,0.563,0.356,1.122,0.687,1.606c0.274,0.405,0.639,0.746,1.051,1.009c-0.64,2.004-1.48,4.534-1.935,6.564
			c-0.4,1.719-0.686,3.5-0.87,5.255c-0.989,11.253,0.049,25.075,0.367,36.429c-0.393,0.75-0.649,1.573-0.856,2.392
			c-0.329,1.329-0.529,2.737-0.679,4.098c-0.423,4.01-0.462,8.303-0.496,12.338c-0.032,5.218,0.013,10.888,0.484,16.077
			c-1.707,3.468-2.897,7.243-3.943,10.959c-1.288-4.593-2.486-9.534-3.367-14.22c-0.375-1.932-0.44-4.105-1.16-5.951
			c-0.432-1.079-1.137-2.043-2.006-2.813c-0.582-3.434-1.216-7.215-1.465-10.674c-0.262-2.901-0.102-7.496-0.133-10.441
			c-0.054-1.75-0.081-3.581-0.738-5.228c0.19-1.864,0.477-4.371,0.532-6.215c0.113-2.645-0.002-5.781-0.103-8.443
			C354.803,579.774,354.095,569.346,352.826,559.811z"/>
	</g>
	<g id="POLYLINE_130_">
		
			<path fill="none" stroke="#E74C3C" stroke-width="3.5" stroke-linecap="round" stroke-linejoin="round" stroke-miterlimit="10" d="
			M366.783,677.861c2.189,1.226,4.619,2.021,7.012,2.742c5.821,1.646,12.355,3.04,18.292,4.207c1.761,0.299,3.58,0.582,5.37,0.522
			c1.103-0.041,2.227-0.237,3.211-0.756c1.464-0.754,2.419-2.185,3.079-3.65c0.834-1.869,1.363-3.893,1.542-5.932
			c0.118-1.436,0.028-2.95-0.662-4.244c-0.372-0.713-0.894-1.342-1.462-1.907c-2.819-2.656-6.539-5.117-9.077-8.058
			c-0.809-0.938-1.462-2.018-1.848-3.198c-0.423-1.257-0.63-2.661-0.844-3.969c-0.335-1.866-1.816-13.396-2.381-15.014
			c1.69-8.162,2.262-17.688,3.398-25.959c0.096-0.937,0.177-1.908,0.09-2.847c-0.064-0.692-0.234-1.387-0.587-1.991
			c2.138-8.903,3.563-18.201,4.261-27.327c0.494-6.785,0.657-13.724,0.005-20.503c0.565-0.867,0.691-1.937,0.765-2.947
			c0.182-3.904-0.769-8.769-0.995-12.668c-0.135-1.898-0.196-3.881-0.112-5.781c0.123-3.42,0.821-8.34,1.214-11.775
			c0.247-2.335,0.396-4.752,0.336-7.1c-0.042-1.302-0.127-2.634-0.415-3.907c-0.165-0.731-0.475-1.468-1.079-1.942
			c1.895-3.713,3.525-7.62,4.538-11.671c2.422-10.001,2.603-21.35,3.508-31.591c0.344-0.124,0.664-0.322,0.915-0.589
			c0.335-0.352,0.556-0.796,0.732-1.245c0.521-1.4,0.741-2.919,0.943-4.394c1.242-10.445,0.338-23.19,0.601-33.719
			c0.084-5.485,0.752-13.415-0.153-18.789c-0.203-1.217-0.556-2.421-1.009-3.568c-0.48-1.211-1.227-2.804-1.503-4.079
			c-0.571-2.591,0.452-5.322,0.629-7.904c0.089-1.036,0.005-2.093-0.298-3.09c-0.406-1.389-1.169-2.661-1.929-3.883
			c1.03-1.69,1.365-3.701,1.348-5.656c-0.003-1.401-0.154-2.859-0.334-4.249c-0.531-4.565-4.684-24.424-5.595-29.276
			c-1.006-5.497-1.837-11.222-2.109-16.803c-0.248-4.821-0.049-9.93,0.259-14.752c1.15-13.157,2.238-31.538,3.903-44.597
			c0.777-5.718,1.874-11.513,3.394-17.081c1.153-4.214,2.585-8.425,4.374-12.412c0.965-2.261,2.384-4.667,3.213-6.981
			c0.708-2.036,0.826-4.229,0.696-6.367c3.879-9.254,5.059-19.906,7.681-29.539c2.551-9.331,7.101-18.1,11.813-26.505
			c6.78-12.105,18.901-31.624,24.128-44.176c1.247-2.985,2.329-6.099,3.002-9.267c0.643-2.783,1.065-6.09,2.656-8.502
			c1.061-1.625,2.661-2.805,4.245-3.882c2.215-1.508,4.824-2.93,6.742-4.812c0.876-0.86,1.615-1.864,2.212-2.936
			c0.569-1.015,1.027-2.117,1.417-3.212c0.255-0.565,4.525-14.732,4.859-15.776c0.817-2.901,1.79-5.968,1.939-8.988
			c0.021-0.869-0.047-1.79-0.511-2.548c-0.534-0.858-1.414-1.428-2.227-1.996c-2.286-1.505-4.816-2.776-7.536-3.237
			c-2.683-0.445-5.654,0.334-7.518,2.377c-1.059,1.155-1.572,2.685-1.986,4.167c-0.439,1.514-0.957,3.776-1.508,5.223
			c-0.838,2.372-1.862,4.712-3.122,6.891c-0.697,1.171-1.454,2.346-2.459,3.277c-0.577,0.524-1.298,0.96-2.095,0.986
			c-0.584,0.023-1.156-0.196-1.621-0.541c-0.919-0.694-1.511-1.725-2.038-2.728c-1.042-2.069-1.949-4.424-3.403-6.247
			c-0.907-1.154-2.069-2.116-3.391-2.758c-1.288-0.615-2.959-1.03-4.227-0.162c-0.475,0.326-0.854,0.789-1.084,1.316
			c-0.164,0.38-0.254,0.802-0.199,1.215c0.069,0.525,0.409,0.96,0.768,1.328c0.577,0.584,1.255,1.114,1.748,1.776
			c0.47,0.625,0.804,1.347,1.071,2.079c0.657,1.845,0.994,3.962,1.48,5.858c0.468,1.904,1.108,3.793,1.962,5.56
			c0.76,1.621,2.026,3.941,2.562,5.623c0.258,0.782,0.425,1.607,0.392,2.434c-0.026,0.8-0.228,1.589-0.489,2.343
			c-0.466,1.32-1.125,2.715-1.708,3.991c-3.448,7.26-7.396,14.428-12.468,20.691l-5.157,6.269c-1.895,2.371-3.696,4.909-5.162,7.569
			c-1.858,3.364-3.326,7.065-4.666,10.664c-1.259,3.424-3.967,11.536-5.438,14.724c-0.537,1.181-1.163,2.345-1.904,3.411
			c-1.034,1.53-2.847,3.328-4.066,4.727c-1.662,1.888-3.207,3.974-4.55,6.101c-2.177,3.448-4.046,7.274-5.769,10.968
			c-2.801,6.108-5.544,12.761-7.776,19.101c-1.719,0.857-3.659,1.806-5.183,2.969c-2.682,2.013-5.819,5.395-8.254,7.742
			c-1.722,1.685-3.586,3.282-5.709,4.44l-1.993,1.098c-0.001-3.17-0.252-6.443-0.644-9.589c-0.101-0.708-0.208-1.441-0.447-2.118
			c-0.128-0.346-0.296-0.703-0.598-0.93c-0.209-0.158-0.481-0.203-0.737-0.184c-0.518,0.041-1.005,0.258-1.47,0.474
			c-0.239-3.37-0.595-8.806-0.618-12.134c-0.043-1.401-0.111-2.892-0.316-4.275c-0.304-2.078-0.89-4.137-1.822-6.022
			c-0.679-1.357-1.557-2.652-2.741-3.618c-2.413-1.941-5.761-2.174-8.658-2.928c-2.467-0.61-5.211-1.531-7.762-1.489
			c-2.519,0.034-4.928,0.96-7.203,1.968c-1.334,0.612-3.243,1.492-4.544,2.161c-1.105,0.575-2.194,1.224-3.143,2.034
			c-1.162,0.973-2.071,2.227-2.698,3.603c-0.711,1.532-1.17,3.186-1.477,4.843c-0.403,2.164-0.505,4.393-0.299,6.585
			c0.482,4.569,1.028,9.715,1.955,14.209c-0.528,0.014-1.06,0.131-1.532,0.371c-0.334,0.17-0.639,0.429-0.783,0.783
			c-0.111,0.261-0.145,0.548-0.148,0.829c0.042,1.514,0.536,3.204,0.872,4.686c-1.841-1.815-3.607-3.787-5.174-5.844
			c0.966-5.544,1.231-11.254,0.736-16.86c-0.52-6.344-2.219-14.731-2.726-21.083c-0.586-7.56-0.268-16.946-0.984-24.492
			l-1.768-19.254c-0.538-7.15-1.071-15.358-1.125-22.5c0.004-0.83,0.001-1.741,0.122-2.56c0.087-0.606,0.256-1.203,0.52-1.756
			c0.375-0.792,0.92-1.502,1.464-2.184l2.228-2.688c1.067-1.328,2.083-2.74,2.808-4.286c0.769-1.634,1.239-3.418,1.621-5.178
			c0.481-2.312,1.001-5.579,1.864-7.752c0.592-1.611,1.597-3.311,2-4.986c0.237-1.039,0.144-2.264-0.617-3.071
			c-0.333-0.355-0.8-0.555-1.277-0.621c-0.705-0.1-1.425,0.01-2.109,0.192c-1.211,0.33-2.414,0.919-3.167,1.956
			c-0.388,0.517-0.664,1.111-0.888,1.714c-0.524,1.423-0.889,3.076-1.454,4.484c-0.339,0.839-0.773,1.68-1.481,2.267
			c-0.731,0.621-1.764,0.923-2.689,0.594c-0.7-0.246-1.251-0.789-1.691-1.37c-1.021-1.395-1.601-3.072-1.995-4.742
			c-0.915-3.925-0.603-9.387-0.705-13.425c-0.047-1.988-0.132-4.05-0.479-6.008c-0.188-1.029-0.441-2.068-0.907-3.01
			c-0.217-0.434-0.495-0.845-0.859-1.169c-0.388-0.35-0.865-0.591-1.362-0.744c-0.856-0.26-1.764-0.319-2.654-0.34
			c-1.836-0.025-3.703,0.175-5.516,0.457c-1.057,0.174-2.178,0.384-3.212,0.66c-0.549,0.15-1.101,0.33-1.603,0.601
			c-0.671,0.353-1.219,0.914-1.577,1.58c-0.767,1.458-1.021,3.132-1.229,4.749c-0.406,3.667-0.285,7.415,0.204,11.068
			c0.555,3.6,1.626,11.351,2.255,14.812c0.539,2.887,1.219,5.812,2.394,8.513c0.851,2.038,2.252,4.391,3.199,6.392
			c0.317,0.687,0.586,1.413,0.749,2.153c0.164,0.73,0.234,1.494,0.265,2.241c0.111,5.094-0.268,11.444-0.51,16.556
			c-0.681,11.191-2.695,34.354-2.424,45.219c0.033,3.382,0.168,7.397,0.354,10.771c0.207,3.634,0.787,10.842,0.771,14.378
			c0.045,3.707-0.348,7.465-0.989,11.114c-0.731,4.185-2.108,10.864-2.389,15.044c-0.145,1.977-0.172,4,0.13,5.964
			c-0.277,2.299-0.25,4.668-0.127,6.978c0.145,2.625,0.473,5.473,0.821,8.085c1.07,7.231,3.148,20.301,4.216,27.586
			c0.773,4.713,1.753,9.737,2.969,14.348c1.325,5.425,7.463,23.735,9.229,29.341c3.645,11.895,6.914,24.373,8.972,36.638
			c0.74,4.606,1.31,9.347,1.086,14.016c-0.096,2.568-0.583,5.208-1.141,7.715c-0.223,1.196-0.443,2.535,0.159,3.656
			c0.365,0.67,1.001,1.14,1.66,1.497c-2.068,2.752-3.938,5.712-5.199,8.925c-2.077,5.349-2.908,11.155-2.975,16.873
			c-0.008,1.849,0.097,3.752,0.329,5.587c0.292,2.652,1.36,7.448,1.868,10.109c1.337,6.826,1.314,13.894,0.902,20.813
			c-0.169,3.789-0.98,9.084-1.105,12.883c-0.006,0.7,0.018,1.415,0.147,2.104c0.123,0.654,0.361,1.317,0.845,1.792
			c0.479,0.481,1.156,0.703,1.819,0.764c0.079,4.754,0.546,9.553,1.402,14.23c1.168,7.007,7.281,28.201,9.128,35.375
			c-0.58,1.329-0.798,2.791-0.9,4.228c-0.177,2.836,0.121,5.718,0.548,8.52c0.503,3.026,1.224,6.757,1.244,9.804
			c0.092,5.836-0.938,13.382-1.491,19.24c-0.092,1.205-0.256,2.488-0.119,3.691c0.086,0.726,0.362,1.424,0.991,1.841
			c0.185,6.577,0.94,13.282,1.973,19.777c1.134,7.292,2.859,14.533,5.289,21.509c-0.286,0.779-0.329,1.627-0.26,2.448
			c0.162,1.947,1.084,4.736,1.576,6.645c1.737,6.748,3.529,16.722,5.754,23.283c-0.387,2.388-0.546,4.904-0.656,7.32
			c-0.121,4.68-0.375,13.349-0.697,17.917c-0.097,2.052-0.192,4.247-0.079,6.292c0.163,2.836,0.671,5.71,1.885,8.296
			c0.763,1.622,1.9,3.133,3.494,4.009c3.072,1.673,6.756,1.192,10.049,0.542C358.614,680.858,362.8,679.538,366.783,677.861z"/>
	</g>
</g>
</svg>
