<?xml version="1.0" encoding="utf-8"?>
<!-- Generator: Adobe Illustrator 25.1.0, SVG Export Plug-In . SVG Version: 6.00 Build 0)  -->
<svg version="1.1" xmlns="http://www.w3.org/2000/svg" xmlns:xlink="http://www.w3.org/1999/xlink" x="0px" y="0px" width="750px"
	 height="750px" viewBox="0 0 750 750" enable-background="new 0 0 750 750" xml:space="preserve">
<g id="FILL-BACKGROUND">
	<rect fill="#FFFFFF" width="750" height="750"/>
</g>
<g id="N-TEXT">
</g>
<g id="_x32_D_x24_AG-DIAGRAM">
	<g id="POLYLINE_23_">
		<g>
			<g>
				
					<line fill="none" stroke="#E74C3C" stroke-width="3.25" stroke-linecap="round" stroke-linejoin="round" x1="574.712" y1="597.442" x2="572.712" y2="597.442"/>
				
					<line fill="none" stroke="#E74C3C" stroke-width="3.25" stroke-linecap="round" stroke-linejoin="round" stroke-dasharray="3.9648,6.9385" x1="565.773" y1="597.442" x2="176.725" y2="597.442"/>
				
					<line fill="none" stroke="#E74C3C" stroke-width="3.25" stroke-linecap="round" stroke-linejoin="round" x1="173.255" y1="597.442" x2="171.255" y2="597.442"/>
			</g>
		</g>
	</g>
</g>
<g id="_x32_D_x24_AG-DETAILS">
	<g id="POLYLINE_386_">
		<path fill="none" stroke="#E74C3C" stroke-width="2" stroke-linecap="round" stroke-linejoin="round" stroke-miterlimit="10" d="
			M544.422,361.755c-1.75,3.34-2.352,7.156-2.586,10.881"/>
	</g>
	<g id="POLYLINE_385_">
		<path fill="none" stroke="#E74C3C" stroke-width="2" stroke-linecap="round" stroke-linejoin="round" stroke-miterlimit="10" d="
			M574.771,340.498c-4.393,2.26-8.102,5.717-10.98,9.708c-3.148,4.329-5.376,9.293-7.291,14.269"/>
	</g>
	<g id="POLYLINE_384_">
		<path fill="none" stroke="#E74C3C" stroke-width="2" stroke-linecap="round" stroke-linejoin="round" stroke-miterlimit="10" d="
			M601.49,404.079c-5.519,4.495-11.412,8.692-17.786,11.892c-4.437,2.224-9.182,3.948-13.995,5.154
			c-2.609,0.63-5.324,0.977-8.006,0.726c-2.761-0.244-5.449-1.102-7.95-2.276"/>
	</g>
	<g id="POLYLINE_383_">
		<path fill="none" stroke="#E74C3C" stroke-width="2" stroke-linecap="round" stroke-linejoin="round" stroke-miterlimit="10" d="
			M589.214,380.051c-12.376,3.727-26.175,8.073-38.234,12.651c-3.729,1.452-7.748,3.008-11.292,4.86"/>
	</g>
	<g id="POLYLINE_382_">
		<path fill="none" stroke="#E74C3C" stroke-width="2" stroke-linecap="round" stroke-linejoin="round" stroke-miterlimit="10" d="
			M577.056,361.602c-11.001,0.309-22.635,1.818-31.876,8.251c-1.821,1.282-3.545,2.762-4.871,4.564
			c-0.898,1.226-1.605,2.625-1.876,4.129"/>
	</g>
	<g id="POLYLINE_381_">
		<path fill="none" stroke="#E74C3C" stroke-width="2" stroke-linecap="round" stroke-linejoin="round" stroke-miterlimit="10" d="
			M588.669,347.673c5.696,3.62,10.871,8.1,15.274,13.215c4.781,5.537,8.692,11.856,11.74,18.499
			c2.36,5.15,4.312,10.582,5.164,16.199c0.698,4.493,0.646,9.1-0.001,13.596"/>
	</g>
	<g id="POLYLINE_380_">
		<path fill="none" stroke="#E74C3C" stroke-width="2" stroke-linecap="round" stroke-linejoin="round" stroke-miterlimit="10" d="
			M577.056,361.602c2.643-3.654,5.459-7.461,8.478-10.807c2.232-2.484,4.775-4.754,7.728-6.345c2.166-1.192,4.699-1.972,7.176-1.469
			"/>
	</g>
	<g id="POLYLINE_379_">
		<path fill="none" stroke="#E74C3C" stroke-width="2" stroke-linecap="round" stroke-linejoin="round" stroke-miterlimit="10" d="
			M606.584,416.675c3.029-0.549,6.056-1.42,8.726-2.984c1.616-0.938,3.089-2.132,4.443-3.414c2.359-2.23,4.333-4.893,5.691-7.846"/>
	</g>
	<g id="POLYLINE_378_">
		<path fill="none" stroke="#E74C3C" stroke-width="2" stroke-linecap="round" stroke-linejoin="round" stroke-miterlimit="10" d="
			M591.112,427.788c2.619,0.141,5.26-0.257,7.82-0.785c2.03-0.457,4.104-0.957,5.998-1.837"/>
	</g>
	<g id="POLYLINE_377_">
		<path fill="none" stroke="#E74C3C" stroke-width="2" stroke-linecap="round" stroke-linejoin="round" stroke-miterlimit="10" d="
			M606.584,416.675c-0.629,0.985-1.426,1.874-2.248,2.701c-1.435,1.427-3.046,2.711-4.708,3.862
			c-6.027,4.121-13.152,6.889-20.494,7.143"/>
	</g>
	<g id="POLYLINE_376_">
		<path fill="none" stroke="#E74C3C" stroke-width="2" stroke-linecap="round" stroke-linejoin="round" stroke-miterlimit="10" d="
			M577.056,361.602c12.33,16.826,22.291,35.516,29.527,55.073"/>
	</g>
</g>
<g id="_x32_D_x24_AG-SPORTS">
	<g id="POLYLINE_1866_">
		
			<path fill="none" stroke="#E74C3C" stroke-width="2.75" stroke-linecap="round" stroke-linejoin="round" stroke-miterlimit="10" d="
			M571.152,428.898c14.642,4.153,30.78,0.494,42.198-9.569c20.938-18.387,20.619-51.012-0.675-68.985
			c-9.879-8.385-23.412-12.175-36.21-10.14c-27.531,4.301-44.748,32.015-36.404,58.602
			C544.593,413.334,556.482,424.843,571.152,428.898z"/>
	</g>
	<g id="POLYLINE_1867_">
		
			<path fill="none" stroke="#E74C3C" stroke-width="2.75" stroke-linecap="round" stroke-linejoin="round" stroke-miterlimit="10" d="
			M436.736,494.427c2.235,0.796,4.726,1.693,6.048,3.798c0.847,1.391,1.117,3.044,1.351,4.632l0.615,4.91
			c0.748,5.49,2.659,10.794,5.044,15.774c2.751,5.649,6.212,11.047,10.575,15.589"/>
	</g>
	<g id="POLYLINE_1868_">
		
			<path fill="none" stroke="#E74C3C" stroke-width="2.75" stroke-linecap="round" stroke-linejoin="round" stroke-miterlimit="10" d="
			M402.894,514.349c-0.278,2.144-0.45,4.403,0.303,6.473c0.548,1.506,1.537,2.809,2.539,4.042l2.972,3.503
			c5.063,6.114,8.388,13.57,11.24,20.921"/>
	</g>
	<g id="POLYLINE_1869_">
		
			<path fill="none" stroke="#E74C3C" stroke-width="2.75" stroke-linecap="round" stroke-linejoin="round" stroke-miterlimit="10" d="
			M429.632,552.469c-2.525-0.818-6.091-2.164-8.621-2.925c-0.492-0.136-1.004-0.263-1.511-0.327
			c-0.544-0.069-1.114-0.052-1.629,0.155c-0.626,0.246-1.122,0.732-1.526,1.257c-1.177,1.6-1.903,3.521-2.666,5.341
			c-2.922,8.006-7.81,18.59-9.254,26.952c-0.48,3.03-0.72,6.442,1.044,9.119c1.522,2.29,4.199,3.427,6.78,4.07
			c5.361,1.25,11.1,1.203,16.584,1.313c0,0,96.3,0.017,96.3,0.017s0.702-0.007,0.702-0.007c0.588-0.021,1.47-0.023,2.074-0.086
			c0.815-0.072,1.648-0.198,2.405-0.523c1.178-0.501,2.079-1.478,2.796-2.513c1.279-1.886,2.073-4.106,2.287-6.375
			c0.179-1.986-0.062-4.011-0.632-5.919c-0.39-1.248-0.883-2.509-1.73-3.522c-0.895-1.067-2.099-1.826-3.31-2.488
			c-1.408-0.768-3.038-1.461-4.524-2.08c-6.565-2.625-16.136-6.099-22.398-9.187c-5.398-2.637-10.507-5.943-14.979-9.964
			c-3.364-2.998-6.731-6.755-9.775-10.099c-1.691-1.815-3.507-3.811-5.422-5.388c-1.322-1.093-2.755-2.101-4.321-2.813
			c-1.037-0.467-2.152-0.814-3.295-0.853c-0.917-0.036-1.86,0.178-2.615,0.713c-0.654,0.454-1.156,1.098-1.544,1.787
			c-1.002,1.787-1.587,4.723-2.164,6.703c-0.629,2.211-1.401,4.44-2.722,6.341c-0.793,1.147-1.785,2.17-2.945,2.948
			c-1.035,0.698-2.2,1.201-3.409,1.505c-2.421,0.615-4.967,0.446-7.416,0.095C437.941,555.079,433.716,553.806,429.632,552.469z"/>
	</g>
	<g id="POLYLINE_1870_">
		
			<path fill="none" stroke="#E74C3C" stroke-width="2.75" stroke-linecap="round" stroke-linejoin="round" stroke-miterlimit="10" d="
			M336.496,448.722c7.201,0.331,14.744,2.092,21.943,2.41c2.111,0.104,4.66-0.153,6.595,0.825c1.024,0.508,1.813,1.381,2.434,2.325
			c0.803,1.218,1.414,2.575,1.968,3.922c2.499,6.413,4.608,14.05,7.6,20.246c6.207,13.059,16.18,24.268,25.349,35.316
			c1.344,1.548,2.767,3.123,4.55,4.171c0.991,0.585,2.094,0.978,3.229,1.162c2,0.326,4.061,0.125,6.026-0.33
			c2.66-0.627,5.201-1.745,7.524-3.178c2.978-1.852,5.618-4.241,7.879-6.915c1.896-2.273,3.587-4.78,4.646-7.558
			c0.387-1.035,0.666-2.125,0.754-3.228c0.092-1.104-0.008-2.224-0.226-3.308c-0.239-1.211-0.634-2.452-1.019-3.625
			c-4.311-12.754-9.417-29.463-13.865-42.136c-1.023-3.06-2.012-6.358-2.635-9.521c-0.803-3.833-1.41-10.723-1.872-14.652
			c-0.596-4.781-1.306-9.704-3.411-14.087c-1.587-3.357-4.098-6.269-7.215-8.292c-2.588-1.701-5.504-2.89-8.409-3.932
			c-2.838-1.096-11.159-3.491-14.108-4.474c-7.269-2.347-15.032-5.524-22.069-8.533l-20.76-9.259"/>
	</g>
	<g id="POLYLINE_1871_">
		
			<path fill="none" stroke="#E74C3C" stroke-width="2.75" stroke-linecap="round" stroke-linejoin="round" stroke-miterlimit="10" d="
			M273.912,457.255c-3.743,1.514-7.9,2.743-11.928,1.703c-1.579-0.382-3.121-1-4.61-1.646c-3.902-1.774-8.51-3.939-12.638-5.03
			c-11.788-3.303-24.729-3.864-36.925-4.379c-5.529-0.327-11.212-1.017-16.234-3.496c-9.464-4.628-15.77-13.819-19.684-23.337
			c-4.491-11.105-6.772-23.28-6.161-35.262c0.446-8.32,2.535-16.515,5.527-24.269"/>
	</g>
	<g id="POLYLINE_1872_">
		
			<path fill="none" stroke="#E74C3C" stroke-width="2.75" stroke-linecap="round" stroke-linejoin="round" stroke-miterlimit="10" d="
			M259.182,493.14l6.348-14.929c4.385-10.636,10.831-28.379,16.402-38.212c2.249-4.029,4.838-7.938,7.99-11.321
			c5.14-5.57,11.984-9.307,19.117-11.69"/>
	</g>
	<g id="POLYLINE_1873_">
		
			<path fill="none" stroke="#E74C3C" stroke-width="2.75" stroke-linecap="round" stroke-linejoin="round" stroke-miterlimit="10" d="
			M289.993,509.905c1.63-2.114,13.694-17.571,14.905-19.299c9.336-12.759,22.137-32.096,32.958-43.328
			c5.864-6.28,13.985-12.421,18.931-19.494c2.473-3.544,4.191-7.592,5.24-11.775c0.894-3.6,1.329-7.343,1.103-11.051
			c-0.134-2.103-0.5-4.213-1.23-6.195c-0.67-1.835-1.668-3.555-2.927-5.049c-1.575-1.881-3.536-3.414-5.608-4.713
			c-3.124-1.953-6.568-3.475-9.988-4.829c-7.322-2.822-15.202-5.262-22.725-7.502c-6.362-1.803-13.123-3.735-19.631-4.899
			c-4.542-0.771-9.358-0.952-13.728,0.713c-13.517,5.119-19.088,23.198-20.78,36.314c-0.744,6.233-0.814,12.663,0.72,18.786
			c0.981,3.912,2.59,7.686,4.728,11.106c1.056,1.676,2.25,3.312,3.598,4.765c0.945,1.03,2.058,1.967,3.14,2.85"/>
	</g>
	<g id="POLYLINE_1874_">
		
			<path fill="none" stroke="#E74C3C" stroke-width="2.75" stroke-linecap="round" stroke-linejoin="round" stroke-miterlimit="10" d="
			M229.856,550.727c3.861-5.566,7.572-11.437,10.631-17.479c4.364-8.615,7.901-17.937,11.078-27.054
			c1.129-3.095,2.728-8.951,4.364-11.715c0.31-0.497,0.668-0.987,1.156-1.323c0.244-0.166,0.527-0.281,0.822-0.305
			c0.336-0.029,0.673,0.046,0.986,0.165c0.369,0.141,0.718,0.342,1.049,0.557c1.118,0.721,2.649,2.107,3.701,2.947
			c4.323,3.456,9.195,6.237,14.263,8.443c2.682,1.197,5.837,2.088,8.644,2.964c0.898,0.305,1.823,0.62,2.621,1.144
			c0.333,0.225,0.647,0.502,0.836,0.861c0.45,0.88,0.036,1.896-0.384,2.706c-0.419,0.788-0.958,1.534-1.497,2.243
			c-2.699,3.462-7.022,7.881-9.815,11.272c-5.688,6.684-9.87,14.547-13.233,22.617"/>
	</g>
	<g id="POLYLINE_1875_">
		
			<path fill="none" stroke="#E74C3C" stroke-width="2.75" stroke-linecap="round" stroke-linejoin="round" stroke-miterlimit="10" d="
			M229.856,550.727c3.716-2.764,7.905-4.911,12.123-6.796c3.056-1.32,6.217-2.659,9.552-3.031c1.269-0.135,2.565-0.084,3.811,0.198
			c1.853,0.411,3.594,1.253,5.171,2.296c1.792,1.236,3.726,2.654,4.412,4.817c0.471,1.475,0.383,3.062,0.198,4.579
			c-0.362,2.714-1.135,5.393-2.108,7.948c-0.572,1.469-1.805,4.302-2.19,5.783c-0.23,0.866-0.371,1.782-0.214,2.674
			c0.13,0.761,0.488,1.467,0.963,2.07c1.03,1.292,2.446,2.221,3.842,3.074c3.659,2.151,7.616,3.897,11.595,5.364
			c1.662,0.624,3.733,1.152,5.291,2.008c0.507,0.288,0.983,0.649,1.346,1.109c0.366,0.459,0.607,1.011,0.741,1.58
			c0.35,1.554,0.161,3.19-0.236,4.717c-0.664,2.456-2.056,4.833-4.257,6.197c-1.227,0.763-2.629,1.209-4.037,1.498
			c-2.466,0.496-5.064,0.567-7.574,0.614c-3.884-0.141-52.327,0.357-54.551-0.269c-0.921-0.152-1.834-0.405-2.695-0.766
			c-1.267-0.527-2.449-1.275-3.564-2.07c-1.693-1.217-3.304-2.614-4.794-4.072c-1.146-1.15-2.309-2.338-3.188-3.711
			c-0.328-0.532-0.597-1.118-0.682-1.742c-0.079-0.559,0-1.131,0.17-1.666c0.529-1.562,1.513-2.937,2.47-4.264
			c2.687-3.593,5.937-6.846,9.201-9.916c2.801-2.581,8.066-7.374,10.672-10.063C223.819,556.317,226.968,552.839,229.856,550.727z"
			/>
	</g>
	<g id="POLYLINE_1876_">
		
			<path fill="none" stroke="#E74C3C" stroke-width="2.75" stroke-linecap="round" stroke-linejoin="round" stroke-miterlimit="10" d="
			M523.634,460.911c-1.297-6.549-3.436-12.974-6.12-19.081c-2.749-6.338-6.462-12.217-11.012-17.416l-7.74-8.861
			c-2.618-3.088-5.182-6.372-7.384-9.767c-4.371-6.729-8.676-15.58-12.614-22.61c-1.997-3.543-4.198-7.188-6.589-10.477
			c-1.962-2.705-4.25-5.412-6.478-7.905c-3.697-4.153-9.29-9.692-12.273-14.317c-1.439-2.217-2.503-4.689-3.377-7.177
			c-1.226-3.614-2.707-8.26-4.333-11.672c-3.925-8.507-10.133-18.143-15.036-26.197c-0.707-1.202-1.406-2.453-1.894-3.76
			c-0.395-1.047-0.651-2.161-0.804-3.269c-0.393-2.746-0.356-6.993-0.433-9.806c-0.061-2.73-0.218-5.635-0.484-8.349
			c-0.411-4.121-1.049-8.305-2.2-12.289c-1.056-3.676-2.616-7.239-4.385-10.625"/>
	</g>
	<g id="POLYLINE_1877_">
		
			<path fill="none" stroke="#E74C3C" stroke-width="2.75" stroke-linecap="round" stroke-linejoin="round" stroke-miterlimit="10" d="
			M359.686,211.932c1.757-1.272,3.347-2.8,4.627-4.554"/>
	</g>
	<g id="POLYLINE_1878_">
		
			<path fill="none" stroke="#E74C3C" stroke-width="2.75" stroke-linecap="round" stroke-linejoin="round" stroke-miterlimit="10" d="
			M382.956,204.846c-1.318,1.415-2.851,2.639-4.533,3.593c-1.595,0.899-3.353,1.566-5.181,1.763
			c-2.163,0.23-4.361-0.269-6.319-1.186c-0.932-0.441-1.828-0.98-2.618-1.646c-0.661-0.554-1.23-1.256-1.471-2.095
			c-0.21-0.699-0.218-1.443-0.163-2.166c0.057-0.737,0.191-1.492,0.338-2.216c0.603-2.811,1.59-6.107,2.227-8.912
			c1.777-7.828,3.385-17.052,6.522-24.411c3.333-8.029,8.609-15.545,16.088-20.179c2.761-1.713,5.813-3.011,9.01-3.631
			c2.429-0.479,4.949-0.526,7.398-0.163c4.037,0.589,7.908,2.071,11.583,3.801c6.699,3.215,13.311,7.258,19.592,11.228
			c3.826,2.474,7.667,5.123,10.947,8.296c3.105,2.972,5.935,6.932,8.993,9.951c2.445,2.393,5.326,4.365,8.253,6.122
			c0.389,0.243,0.796,0.492,1.095,0.846c0.327,0.377,0.43,0.869,0.387,1.357c-0.047,0.593-0.228,1.172-0.448,1.722
			c-0.341,0.827-0.795,1.617-1.38,2.296c-0.359,0.411-0.782,0.787-1.293,0.992c-1.117,0.451-2.504,0.089-3.711,0.273
			c-1.443,0.171-3.114,0.703-4.515,1.11c-1.315,0.414-3.337,0.82-4.695,1.126"/>
	</g>
	<g id="POLYLINE_1879_">
		
			<path fill="none" stroke="#E74C3C" stroke-width="2.75" stroke-linecap="round" stroke-linejoin="round" stroke-miterlimit="10" d="
			M334.128,380.879c5.322-3.231,10.476-6.919,15.056-11.142c5.126-4.704,9.693-10.132,13.766-15.766
			c2.408-3.392,4.778-6.967,6.581-10.72c0.913-1.906,1.605-3.935,2.106-5.987l0.653-2.769"/>
	</g>
	<g id="POLYLINE_1880_">
		
			<path fill="none" stroke="#E74C3C" stroke-width="2.75" stroke-linecap="round" stroke-linejoin="round" stroke-miterlimit="10" d="
			M383.576,253.584c-0.408-1.532-0.952-3.293-1.448-4.804c-1.29-3.746-3.95-11.554-5.181-15.269
			c-1.907-5.335-4.03-10.764-7.507-15.292c-1.24-1.588-2.687-3.048-4.391-4.137c-1.61-1.035-3.427-1.733-5.295-2.134
			c-6.064-1.245-12.37,0.087-18.302,1.459c-12.44,3.013-24.982,7.266-36.931,11.85c-9.845,3.763-19.722,8.153-28.855,13.425
			c-14.518,8.378-28.114,18.62-40.672,29.701c-10.555,9.381-20.533,19.663-29.165,30.851
			c-12.093,15.434-22.623,34.509-32.583,51.404c-1.071,1.916-2.187,3.899-2.752,6.032c-0.386,1.459-0.404,3.059,0.422,4.375
			c0.541,0.884,1.334,1.588,2.181,2.172c1.346,0.918,2.867,1.575,4.399,2.115c8.524,2.831,17.734,2.873,26.626,2.646
			c10.355-0.438,25.165-1.306,35.361-1.155c14.329,0.231,28.971,0.891,43.164,2.932c1.607,0.285,3.307,0.525,4.831,1.127
			c0.614,0.242,1.18,0.683,1.76,0.99"/>
	</g>
	<g id="POLYLINE_1881_">
		
			<path fill="none" stroke="#E74C3C" stroke-width="2.75" stroke-linecap="round" stroke-linejoin="round" stroke-miterlimit="10" d="
			M387.806,259.169c7.243-3.148,15.043-5.076,22.929-5.572"/>
	</g>
	<g id="POLYLINE_1882_">
		
			<path fill="none" stroke="#E74C3C" stroke-width="2.75" stroke-linecap="round" stroke-linejoin="round" stroke-miterlimit="10" d="
			M396.694,219.723c-2.204,0.395-4.622,0.605-6.657-0.512c-1.405-0.761-2.539-1.944-3.486-3.215
			c-1.324-1.804-2.309-3.858-2.937-6.003c-0.965-3.336-1.053-7.179,0.809-10.226c1.307-2.118,3.519-3.645,5.936-4.207
			c1.046-0.236,2.151-0.274,3.194-0.009c0.787,0.195,1.518,0.584,2.157,1.079c1.722,1.362,2.894,3.31,3.732,5.313
			c0.368,0.838,0.554,1.785,0.855,2.646c0.271,0.749,0.842,1.338,1.465,1.813c0.878,0.673,1.866,1.209,2.897,1.606
			c0.878,0.33,1.811,0.569,2.754,0.556c0.576-0.01,1.163-0.127,1.666-0.416c0.499-0.284,0.899-0.716,1.224-1.184
			c0.552-0.798,0.932-1.718,1.284-2.618l0.991-2.677c0.554-1.409,1.172-2.867,2.267-3.947c1.009-0.988,2.343-1.555,3.661-2.008
			c1.655-0.579,3.66-1.034,5.019-2.19c0.783-0.674,1.322-1.582,1.796-2.488c0.866-1.639,1.608-3.71,3.325-4.641
			c0.985-0.522,2.13-0.638,3.229-0.631c2.391,0.045,4.761,0.649,7.057,1.276c2.174,0.692,5.444,1.464,7.478,2.381
			c0.466,0.225,0.917,0.498,1.303,0.845c0.978,0.849,1.367,2.154,1.513,3.401c0.174,1.487,0.072,3.005-0.139,4.482
			c-0.306,2.085-0.875,4.152-1.69,6.095c-0.923,2.288-2.333,4.678-1.816,7.212c0.336,1.835,1.381,3.853,2.129,5.561
			c0.675,1.506,1.273,3.081,1.644,4.691c0.287,1.269,0.482,2.594,0.305,3.893c-0.092,0.653-0.31,1.303-0.72,1.827
			c-0.412,0.537-1.006,0.927-1.658,1.102c-0.65,0.193-1.376,0.103-2.042,0.062c-0.457-0.02-1.03-0.028-1.312,0.398
			c-0.101,0.152-0.156,0.329-0.195,0.506c-0.196,1.081-0.012,2.457,0.015,3.556c0.022,0.955,0.06,1.957-0.282,2.865
			c-0.191,0.488-0.527,0.904-0.906,1.26c-0.585,0.56-1.361,1.069-1.574,1.897c-0.317,1.254,0.068,2.591-0.2,3.853
			c-0.178,0.908-0.88,1.513-1.671,1.914c-1.302,0.674-2.875,0.899-4.215,1.477c-0.683,0.296-1.323,0.748-1.715,1.392
			c-0.209,0.337-0.358,0.712-0.479,1.088c-0.357,1.131-0.549,2.547-0.848,3.695c-0.201,0.776-0.457,1.557-0.888,2.239
			c-0.372,0.59-0.877,1.092-1.453,1.482c-1.241,0.838-2.742,1.199-4.216,1.341c-2.078,0.189-4.184-0.036-6.213-0.501
			c-5.977-1.392-11.311-4.877-15.554-9.246c-3.364-3.468-6.186-7.52-8.148-11.941"/>
	</g>
	<g id="POLYLINE_1883_">
		
			<path fill="none" stroke="#E74C3C" stroke-width="2.75" stroke-linecap="round" stroke-linejoin="round" stroke-miterlimit="10" d="
			M342.944,293.235c1.093,0.536,2.022,1.36,2.829,2.262c1.224,1.38,2.226,2.989,3.14,4.588c2.695,4.81,5.412,11.023,8.333,15.677
			c2.864,4.646,6.273,9.042,9.87,13.141c7.13,8.188,16.488,16.447,24.581,23.763c5.452,4.967,10.854,10.257,15.291,16.159
			c5.533,7.276,11.53,17.021,17.309,24.1c6.214,7.676,13.42,14.752,20.735,21.371c13.232,11.836,27.866,23.695,42.109,34.302
			c1.244,0.968,2.484,2.013,3.475,3.247c1.43,1.731,2.199,3.912,2.547,6.109c0.41,2.385,0.47,4.875,0.524,7.29l0.042,10.077
			c0.098,4.904,0.516,9.912,2.117,14.577c1.004,2.924,2.521,5.731,4.73,7.922c2.092,2.085,4.767,3.516,7.56,4.425
			c2.07,0.66,4.25,1.078,6.43,1.014c1.202-0.046,2.46-0.258,3.455-0.977c1.311-0.946,1.921-2.535,2.384-4.027
			c0.979-3.15,1.641-8.735,2.224-12.03c0.51-3.211,1.698-8.219,2.283-11.434c0.567-3.236,0.932-6.613,0.197-9.852
			c-1.149-4.919-4.485-8.953-7.704-12.704c-7.977-8.937-17.695-19.666-24.784-29.103c-6.987-9.103-18.629-26.734-25.7-35.776
			c-2.156-2.765-4.473-5.582-6.847-8.158c-2.797-3.082-7.953-8.005-10.934-11.012c-2.338-2.395-4.645-4.903-6.273-7.842
			c-1.242-2.131-2.624-5.86-3.592-8.193c-0.87-2.08-1.82-4.211-2.88-6.194c-1.638-3.104-3.647-6.215-5.61-9.127
			c-6.994-10.432-18.141-24.006-25.594-34.228c-1.237-1.739-2.468-3.552-3.407-5.469c-0.653-1.332-1.137-2.762-1.501-4.198
			c-0.879-3.569-1.605-8.125-2.507-11.683c-0.883-3.618-2.024-7.234-3.513-10.65c-3.628-8.186-8.959-15.619-15.198-22.017
			c-4.016-4.043-8.51-7.77-13.694-10.211c-4.873-2.321-10.301-3.248-15.668-3.356c-5.522-0.113-11.168,0.415-16.621,1.269
			c-8.794,1.443-17.576,3.821-25.5,7.969c-4.834,2.567-9.423,5.899-12.623,10.4c-6.182,8.723-6.531,21.427-1.001,30.549
			c1.482,2.428,3.469,4.552,5.822,6.154c3.485,2.394,7.617,3.718,11.775,4.331c3.874,0.563,7.843,0.537,11.723,0.047
			c3.401-0.379,7.684-1.599,11.029-2.453C337.104,292.625,340.232,291.924,342.944,293.235z"/>
	</g>
</g>
<g id="_x32_D_x24_AG-OUTLINE">
	<g id="POLYLINE_25_">
		
			<path fill="none" stroke="#E74C3C" stroke-width="3.5" stroke-linecap="round" stroke-linejoin="round" stroke-miterlimit="10" d="
			M571.152,428.898c-13.861-3.839-25.288-14.322-30.301-27.804c-10.222-27.471,7.609-57.159,36.662-61.04
			c13.93-1.868,28.288,3.04,38.157,13.048c19.353,19.558,17.105,51.578-4.789,68.241
			C599.657,429.905,584.736,432.743,571.152,428.898z"/>
	</g>
	<g id="POLYLINE_20_">
		
			<path fill="none" stroke="#E74C3C" stroke-width="3.5" stroke-linecap="round" stroke-linejoin="round" stroke-miterlimit="10" d="
			M265.079,548.771c0.313,1.415,0.197,2.892,0.005,4.316c-0.381,2.609-1.129,5.189-2.068,7.651c-0.572,1.469-1.805,4.302-2.19,5.783
			c-0.23,0.866-0.371,1.782-0.214,2.674c0.13,0.761,0.488,1.467,0.963,2.07c1.03,1.292,2.446,2.221,3.842,3.074
			c3.659,2.151,7.616,3.897,11.595,5.364c1.662,0.624,3.733,1.152,5.291,2.008c0.507,0.288,0.983,0.649,1.346,1.109
			c0.366,0.459,0.607,1.011,0.741,1.58c0.35,1.554,0.161,3.19-0.236,4.717c-0.664,2.456-2.056,4.833-4.257,6.197
			c-1.227,0.763-2.629,1.209-4.037,1.498c-2.466,0.496-5.064,0.567-7.574,0.614c-3.884-0.141-52.327,0.357-54.551-0.269
			c-0.921-0.152-1.834-0.405-2.695-0.766c-1.267-0.527-2.449-1.275-3.564-2.07c-1.693-1.217-3.304-2.614-4.794-4.072
			c-1.146-1.15-2.309-2.338-3.188-3.711c-0.328-0.532-0.597-1.118-0.682-1.742c-0.079-0.559,0-1.131,0.17-1.666
			c0.529-1.562,1.513-2.937,2.47-4.264c2.687-3.593,5.937-6.846,9.201-9.916c2.801-2.581,8.066-7.374,10.672-10.063
			c2.495-2.57,5.645-6.048,8.533-8.16c3.861-5.566,7.572-11.437,10.631-17.479c5.583-11.009,9.784-23.113,13.698-34.813
			c0.426-1.171,0.884-2.396,1.476-3.492c0.284-0.519,0.605-1.032,1.024-1.453c0.303-0.303,0.679-0.559,1.11-0.625
			c0.477-0.075,0.958,0.072,1.386,0.275l6.348-14.929l8.382-20.957c-3.743,1.514-7.9,2.743-11.928,1.703
			c-1.579-0.382-3.121-1-4.61-1.646c-3.902-1.774-8.51-3.939-12.638-5.03c-11.788-3.303-24.729-3.864-36.925-4.379
			c-5.529-0.327-11.212-1.017-16.234-3.496c-9.464-4.628-15.77-13.819-19.684-23.337c-4.491-11.105-6.772-23.28-6.161-35.262
			c0.446-8.32,2.535-16.515,5.527-24.269c-0.459-0.587-0.794-1.278-0.932-2.012c-0.177-0.913-0.078-1.86,0.142-2.757
			c0.554-2.172,1.691-4.188,2.777-6.133c9.681-16.452,19.672-34.514,31.226-49.629c8.445-11.207,18.238-21.526,28.636-30.935
			c14.407-12.924,30.121-24.757,47.185-33.953c9.054-4.87,18.871-8.894,28.501-12.484c9.947-3.692,20.518-7.187,30.805-9.774
			c4.02-0.992,8.28-1.978,12.415-2.298c2.551-0.197,5.16-0.163,7.671,0.369c1.757-1.272,3.347-2.8,4.627-4.554
			c-0.483-0.409-0.925-0.886-1.217-1.452c-0.283-0.54-0.415-1.149-0.446-1.754c-0.035-0.681,0.035-1.371,0.135-2.045
			c0.551-3.29,1.726-6.888,2.45-10.146c1.777-7.828,3.385-17.052,6.522-24.411c3.333-8.029,8.609-15.545,16.088-20.179
			c2.761-1.713,5.813-3.011,9.01-3.631c2.429-0.479,4.949-0.526,7.398-0.163c4.037,0.589,7.908,2.071,11.583,3.801
			c6.699,3.215,13.311,7.258,19.592,11.228c3.826,2.474,7.667,5.123,10.947,8.296c3.105,2.972,5.935,6.932,8.993,9.951
			c2.445,2.393,5.326,4.365,8.253,6.122c0.389,0.243,0.796,0.492,1.095,0.846c0.327,0.377,0.43,0.869,0.387,1.357
			c-0.047,0.593-0.228,1.172-0.448,1.722c-0.341,0.827-0.795,1.617-1.38,2.296c-0.359,0.411-0.782,0.787-1.293,0.992
			c-1.117,0.451-2.504,0.089-3.711,0.273c-1.443,0.171-3.114,0.703-4.515,1.11c-1.315,0.414-3.337,0.82-4.695,1.126
			c0.347,1.553,0.289,3.176,0.115,4.749c-0.274,2.322-0.877,4.621-1.78,6.778c-0.923,2.288-2.333,4.678-1.816,7.212
			c0.336,1.835,1.381,3.853,2.129,5.561c0.675,1.506,1.273,3.081,1.644,4.691c0.287,1.269,0.482,2.594,0.305,3.893
			c-0.092,0.653-0.31,1.303-0.72,1.827c-0.412,0.537-1.006,0.927-1.658,1.102c-0.65,0.193-1.376,0.103-2.042,0.062
			c-0.457-0.02-1.03-0.028-1.312,0.398c-0.101,0.152-0.156,0.329-0.195,0.506c-0.196,1.081-0.012,2.457,0.015,3.556
			c0.021,1.024,0.074,2.143-0.382,3.088c-0.311,0.643-0.911,1.139-1.438,1.605c-0.383,0.343-0.758,0.735-0.914,1.237
			c-0.333,1.146-0.024,2.394-0.166,3.565c-0.053,0.531-0.236,1.055-0.599,1.454c-0.543,0.61-1.311,0.959-2.063,1.24
			c-1.425,0.549-3.141,0.732-4.354,1.722c-0.812,0.661-1.128,1.709-1.361,2.691c-0.472,1.944-0.617,4.225-2.03,5.766
			c-0.916,0.998-2.206,1.569-3.506,1.873c-2.115,0.481-4.328,0.387-6.457,0.038c1.769,3.386,3.33,6.949,4.385,10.625
			c1.151,3.983,1.789,8.168,2.2,12.289c0.266,2.714,0.422,5.62,0.484,8.349c0.077,2.822,0.04,7.041,0.433,9.806
			c0.152,1.108,0.408,2.222,0.804,3.269c0.488,1.307,1.188,2.56,1.894,3.76c4.92,8.085,11.097,17.667,15.036,26.197
			c1.621,3.399,3.114,8.077,4.333,11.672c0.875,2.489,1.938,4.96,3.377,7.177c2.965,4.605,8.6,10.194,12.273,14.317
			c2.231,2.498,4.515,5.198,6.478,7.905c2.391,3.288,4.592,6.933,6.589,10.477c3.945,7.042,8.236,15.868,12.614,22.61
			c2.202,3.394,4.768,6.681,7.384,9.767l7.74,8.861c4.549,5.197,8.264,11.08,11.012,17.416c2.684,6.107,4.822,12.532,6.12,19.081
			c0.699,1.4,1.253,2.89,1.559,4.427c0.319,1.597,0.378,3.249,0.288,4.872c-0.303,5.097-2.077,10.974-2.853,16.015
			c-0.744,3.992-1.24,9.769-2.752,13.516c-0.462,1.108-1.157,2.183-2.229,2.78c-1.157,0.653-2.531,0.76-3.836,0.742
			c-2.501-0.068-4.979-0.674-7.292-1.611c-2.28-0.935-4.433-2.261-6.15-4.042c-2.175-2.238-3.653-5.076-4.628-8.021
			c-1.514-4.577-1.917-9.473-2.012-14.269l-0.042-10.077c-0.052-2.414-0.121-4.911-0.524-7.29c-0.312-1.903-0.903-3.799-2.015-5.394
			c-0.832-1.219-1.918-2.259-3.05-3.197c-9.895-7.443-21.036-16.173-30.513-24.173c-11.726-9.922-23.584-20.311-33.288-32.265
			c-6.694-8.2-12.965-18.937-19.692-27.103c-6.544-7.968-16.707-16.475-24.299-23.51c-2.511-2.351-5.632-5.357-8.015-7.818
			l-0.653,2.769c-1.297,5.619-4.47,10.588-7.689,15.293c-6.223,8.926-13.658,17.171-22.542,23.513l20.76,9.259
			c7.044,3.011,14.795,6.183,22.069,8.533c5.155,1.707,13.449,3.917,18.298,6.134c3.156,1.395,6.157,3.289,8.416,5.93
			c1.884,2.166,3.246,4.754,4.173,7.463c2.807,8.424,2.431,18.449,4.37,27.066c1.026,4.833,3.371,11.15,4.961,15.868
			c3.242,9.679,7.997,24.901,11.274,34.566c0.369,1.119,0.769,2.38,1.01,3.538c2.235,0.796,4.726,1.693,6.048,3.798
			c0.847,1.391,1.117,3.044,1.351,4.632l0.615,4.91c0.748,5.49,2.659,10.794,5.044,15.774c2.751,5.649,6.212,11.047,10.575,15.589
			c0.523-1.272,1.331-2.542,2.622-3.132c0.862-0.4,1.846-0.444,2.775-0.305c1.837,0.284,3.519,1.183,5.042,2.215
			c4.415,3.084,8.127,7.936,11.87,11.808c4.089,4.392,8.677,8.393,13.801,11.535c9.205,5.809,21.318,9.429,31.264,13.774
			c1.499,0.701,3.026,1.452,4.313,2.504c0.643,0.529,1.208,1.165,1.625,1.887c0.679,1.192,1.111,2.523,1.409,3.857
			c0.629,2.852,0.469,5.9-0.674,8.603c-0.633,1.514-1.501,2.976-2.736,4.077c-0.456,0.4-0.979,0.729-1.547,0.944
			c-1.361,0.507-2.864,0.498-4.298,0.536c-7.185-0.049-97.74,0.129-101.809-0.097c-2.904-0.098-5.938-0.241-8.813-0.658
			c-2.444-0.367-4.939-0.91-7.089-2.178c-1.514-0.885-2.772-2.238-3.396-3.89c-0.575-1.472-0.695-3.083-0.632-4.649
			c0.139-3.011,0.881-5.998,1.727-8.881c1.802-5.954,6.139-16.668,8.442-22.527c0.553-1.262,1.125-2.574,1.918-3.707
			c0.371-0.517,0.808-1.01,1.369-1.324c0.723-0.417,1.599-0.396,2.395-0.235c-2.852-7.351-6.177-14.807-11.24-20.921l-2.972-3.503
			c-1.002-1.233-1.991-2.536-2.539-4.042c-0.753-2.07-0.581-4.329-0.303-6.473c-9.76-11.705-20.619-23.847-26.77-37.915
			c-2.46-5.52-4.473-12.593-6.687-18.23c-0.516-1.256-1.086-2.523-1.808-3.675c-0.545-0.862-1.198-1.687-2.055-2.256
			c-2.012-1.351-4.826-1.028-7.134-1.14c-7.199-0.319-14.743-2.079-21.943-2.41c-10.03,10.767-22.817,29.844-31.598,41.884
			c-1.152,1.65-13.341,17.271-14.905,19.299c0.461,0.852,0.078,1.854-0.326,2.652c-0.425,0.82-0.982,1.591-1.541,2.326
			c-2.7,3.461-7.022,7.882-9.815,11.272C272.624,532.838,268.442,540.701,265.079,548.771z"/>
	</g>
</g>
</svg>
