<?xml version="1.0" encoding="utf-8"?>
<!-- Generator: Adobe Illustrator 25.1.0, SVG Export Plug-In . SVG Version: 6.00 Build 0)  -->
<svg version="1.1" xmlns="http://www.w3.org/2000/svg" xmlns:xlink="http://www.w3.org/1999/xlink" x="0px" y="0px" width="1000px"
	 height="500px" viewBox="0 0 1000 500" enable-background="new 0 0 1000 500" xml:space="preserve">
<g id="FILL-BACKGROUND">
	<rect x="0" fill="#FFFFFF" width="1000" height="500"/>
</g>
<g id="N-TEXT">
</g>
<g id="_x32_D_x24_AG-DIAGRAM">
	<g id="POLYLINE_21_">
		<g>
			<g>
				
					<line fill="none" stroke="#E74C3C" stroke-width="3" stroke-linecap="round" stroke-linejoin="round" x1="957.693" y1="459.602" x2="955.693" y2="459.602"/>
				
					<line fill="none" stroke="#E74C3C" stroke-width="3" stroke-linecap="round" stroke-linejoin="round" stroke-dasharray="3.9863,6.9761" x1="948.716" y1="459.602" x2="64.248" y2="459.602"/>
				
					<line fill="none" stroke="#E74C3C" stroke-width="3" stroke-linecap="round" stroke-linejoin="round" x1="60.76" y1="459.602" x2="58.76" y2="459.602"/>
			</g>
		</g>
	</g>
</g>
<g id="_x32_D_x24_AG-DETAILS">
	<g id="POLYLINE_1239_">
		<path fill="none" stroke="#E74C3C" stroke-width="2" stroke-linecap="round" stroke-linejoin="round" stroke-miterlimit="10" d="
			M721.471,70.575c7.131-9.087,15.609-17.189,24.956-23.967"/>
	</g>
	<g id="POLYLINE_1238_">
		<path fill="none" stroke="#E74C3C" stroke-width="2" stroke-linecap="round" stroke-linejoin="round" stroke-miterlimit="10" d="
			M746.427,46.608c0.619,0.188,1.212,0.48,1.776,0.795c0.975,0.552,1.9,1.219,2.762,1.934c3.097,2.598,5.637,5.984,6.869,9.861"/>
	</g>
	<g id="POLYLINE_1237_">
		<path fill="none" stroke="#E74C3C" stroke-width="2" stroke-linecap="round" stroke-linejoin="round" stroke-miterlimit="10" d="
			M754.663,53.198c-0.316-1.418-0.923-2.766-1.586-4.052c-0.547-1.014-1.123-2.045-1.875-2.924"/>
	</g>
	<g id="POLYLINE_1236_">
		<path fill="none" stroke="#E74C3C" stroke-width="2" stroke-linecap="round" stroke-linejoin="round" stroke-miterlimit="10" d="
			M746.427,46.608c-0.745-1.533-1.662-3.017-2.894-4.207c-0.741-0.721-1.598-1.329-2.484-1.859c-1.541-0.925-3.256-1.58-5.033-1.863
			"/>
	</g>
	<g id="POLYLINE_1235_">
		<path fill="none" stroke="#E74C3C" stroke-width="2" stroke-linecap="round" stroke-linejoin="round" stroke-miterlimit="10" d="
			M721.471,70.575c-2.343-0.863-4.793-1.796-7.029-2.907c-1.658-0.819-3.248-1.836-4.537-3.173
			c-0.959-0.977-1.753-2.211-1.855-3.607"/>
	</g>
	<g id="POLYLINE_1232_">
		<path fill="none" stroke="#E74C3C" stroke-width="2" stroke-linecap="round" stroke-linejoin="round" stroke-miterlimit="10" d="
			M712.311,66.463c1.08-3.578,2.696-7.006,4.766-10.117c2.238-3.376,5.024-6.405,8.111-9.022c2.393-2.027,4.998-3.879,7.866-5.172
			c2.291-1.043,4.756-1.703,7.249-2.03"/>
	</g>
	<g id="POLYLINE_1231_">
		<path fill="none" stroke="#E74C3C" stroke-width="2" stroke-linecap="round" stroke-linejoin="round" stroke-miterlimit="10" d="
			M721.471,70.575c1.807,5.82,4.349,11.798,9.159,15.765c0.955,0.78,2.002,1.478,3.161,1.916c0.788,0.296,1.64,0.464,2.482,0.384"/>
	</g>
	<g id="POLYLINE_1230_">
		<path fill="none" stroke="#E74C3C" stroke-width="2" stroke-linecap="round" stroke-linejoin="round" stroke-miterlimit="10" d="
			M729.493,61.338c3.835,6.043,8.213,12.751,12.454,18.497c1.331,1.771,2.761,3.682,4.277,5.295"/>
	</g>
	<g id="POLYLINE_1229_">
		<path fill="none" stroke="#E74C3C" stroke-width="2" stroke-linecap="round" stroke-linejoin="round" stroke-miterlimit="10" d="
			M740.472,51.204c3.221,2.272,6.339,4.787,8.996,7.708c1.958,2.165,3.688,4.581,5.083,7.146c0.64,1.213,1.14,2.515,1.366,3.871
			c0.25,1.458,0.188,2.961-0.056,4.415"/>
	</g>
	<g id="POLYLINE_1228_">
		<path fill="none" stroke="#E74C3C" stroke-width="2" stroke-linecap="round" stroke-linejoin="round" stroke-miterlimit="10" d="
			M710.56,74.945c1.924,2.073,4.419,3.562,7.075,4.499c2.703,0.966,5.59,1.393,8.438,1.663"/>
	</g>
	<g id="POLYLINE_1227_">
		<path fill="none" stroke="#E74C3C" stroke-width="2" stroke-linecap="round" stroke-linejoin="round" stroke-miterlimit="10" d="
			M726.426,87.953c2.042,0.435,4.167,0.186,6.188-0.246"/>
	</g>
	<g id="POLYLINE_1226_">
		<path fill="none" stroke="#E74C3C" stroke-width="2" stroke-linecap="round" stroke-linejoin="round" stroke-miterlimit="10" d="
			M561.888,184.306c0.027,2.088,0.739,4.105,1.607,5.981"/>
	</g>
	<g id="POLYLINE_1225_">
		<path fill="none" stroke="#E74C3C" stroke-width="2" stroke-linecap="round" stroke-linejoin="round" stroke-miterlimit="10" d="
			M571.07,165.959c-1.597,2.334-2.498,5.097-2.824,7.894c-0.345,2.849-0.124,5.76,0.242,8.596"/>
	</g>
	<g id="POLYLINE_1224_">
		<path fill="none" stroke="#E74C3C" stroke-width="2" stroke-linecap="round" stroke-linejoin="round" stroke-miterlimit="10" d="
			M600.832,189.887c-1.504,3.643-3.268,7.24-5.53,10.477c-1.679,2.388-3.653,4.609-5.846,6.536
			c-1.041,0.892-2.201,1.668-3.474,2.188c-1.367,0.566-2.846,0.837-4.318,0.921"/>
	</g>
	<g id="POLYLINE_1223_">
		<path fill="none" stroke="#E74C3C" stroke-width="2" stroke-linecap="round" stroke-linejoin="round" stroke-miterlimit="10" d="
			M588.523,181.418c-5.046,5.075-10.621,10.827-15.289,16.233c-1.433,1.69-2.981,3.506-4.219,5.341"/>
	</g>
	<g id="POLYLINE_1222_">
		<path fill="none" stroke="#E74C3C" stroke-width="2" stroke-linecap="round" stroke-linejoin="round" stroke-miterlimit="10" d="
			M577.742,175.635c-5.277,3.048-10.545,6.848-13.351,12.416c-0.549,1.104-0.999,2.279-1.17,3.506
			c-0.114,0.833-0.09,1.702,0.174,2.505"/>
	</g>
	<g id="POLYLINE_1221_">
		<path fill="none" stroke="#E74C3C" stroke-width="2" stroke-linecap="round" stroke-linejoin="round" stroke-miterlimit="10" d="
			M579.729,165.793c3.728,0.263,7.428,1.081,10.92,2.412c3.787,1.437,7.356,3.485,10.591,5.917c2.506,1.886,4.888,4.018,6.782,6.529
			c1.523,2.004,2.712,4.262,3.581,6.622"/>
	</g>
	<g id="POLYLINE_1220_">
		<path fill="none" stroke="#E74C3C" stroke-width="2" stroke-linecap="round" stroke-linejoin="round" stroke-miterlimit="10" d="
			M577.742,175.635c0.324-2.476,0.693-5.072,1.282-7.497c0.433-1.798,1.074-3.573,2.092-5.126c0.741-1.151,1.769-2.198,3.108-2.606"
			/>
	</g>
	<g id="POLYLINE_1219_">
		<path fill="none" stroke="#E74C3C" stroke-width="2" stroke-linecap="round" stroke-linejoin="round" stroke-miterlimit="10" d="
			M606.631,194.679c1.331-1.065,2.575-2.287,3.464-3.752c0.54-0.882,0.943-1.852,1.265-2.833c0.561-1.708,0.821-3.525,0.705-5.321"
			/>
	</g>
	<g id="POLYLINE_1218_">
		<path fill="none" stroke="#E74C3C" stroke-width="2" stroke-linecap="round" stroke-linejoin="round" stroke-miterlimit="10" d="
			M602.023,204.167c1.313-0.621,2.494-1.511,3.602-2.442c0.869-0.758,1.747-1.547,2.437-2.475"/>
	</g>
	<g id="POLYLINE_1217_">
		<path fill="none" stroke="#E74C3C" stroke-width="2" stroke-linecap="round" stroke-linejoin="round" stroke-miterlimit="10" d="
			M606.631,194.679c-0.047,0.645-0.201,1.288-0.383,1.908c-0.323,1.073-0.769,2.123-1.276,3.121c-1.85,3.595-4.591,6.82-8.1,8.878"
			/>
	</g>
	<g id="POLYLINE_1216_">
		<path fill="none" stroke="#E74C3C" stroke-width="2" stroke-linecap="round" stroke-linejoin="round" stroke-miterlimit="10" d="
			M577.742,175.635c10.438,4.947,20.213,11.425,28.889,19.044"/>
	</g>
	<g id="POLYLINE_1215_">
		<path fill="none" stroke="#E74C3C" stroke-width="2" stroke-linecap="round" stroke-linejoin="round" stroke-miterlimit="10" d="
			M336.938,170.821c-1.194-1.294-2.647-2.338-4.174-3.206c-1.402-2.747-3.148-5.358-5.355-7.525
			c-1.942-1.914-4.265-3.461-6.819-4.429c-2.549-0.979-5.312-1.373-8.036-1.239c-3.089,0.146-6.131,0.929-9.007,2.045
			c-1.717-0.37-3.496-0.559-5.249-0.389"/>
	</g>
	<g id="POLYLINE_1214_">
		<path fill="none" stroke="#E74C3C" stroke-width="2" stroke-linecap="round" stroke-linejoin="round" stroke-miterlimit="10" d="
			M332.764,167.615c-3.794,9.182-8.02,20.256-11.306,29.632c-2.876,1.115-5.917,1.899-9.007,2.045
			c-2.723,0.134-5.487-0.26-8.036-1.239c-2.553-0.968-4.877-2.515-6.819-4.429c-2.207-2.167-3.954-4.777-5.355-7.525
			c3.794-9.182,8.02-20.256,11.306-29.632"/>
	</g>
	<g id="POLYLINE_1213_">
		<path fill="none" stroke="#E74C3C" stroke-width="2" stroke-linecap="round" stroke-linejoin="round" stroke-miterlimit="10" d="
			M323.92,157.321c-0.22,2.606-0.792,5.208-1.448,7.736c-1.229,4.649-2.882,9.358-4.589,13.853c-1.72,4.49-3.624,9.102-5.805,13.389
			c-1.195,2.322-2.502,4.643-4.073,6.734"/>
	</g>
	<g id="POLYLINE_1212_">
		<path fill="none" stroke="#E74C3C" stroke-width="2" stroke-linecap="round" stroke-linejoin="round" stroke-miterlimit="10" d="
			M328.303,178.732c3.05,0.38,6.192,0.787,9.096,1.829"/>
	</g>
	<g id="POLYLINE_1211_">
		<path fill="none" stroke="#E74C3C" stroke-width="2" stroke-linecap="round" stroke-linejoin="round" stroke-miterlimit="10" d="
			M321.458,197.246c1.717,0.37,3.496,0.559,5.249,0.389"/>
	</g>
	<g id="POLYLINE_1210_">
		<path fill="none" stroke="#E74C3C" stroke-width="2" stroke-linecap="round" stroke-linejoin="round" stroke-miterlimit="10" d="
			M325.536,185.983c2.528,1.749,5.142,3.537,8.002,4.695"/>
	</g>
	<g id="POLYLINE_1209_">
		<path fill="none" stroke="#E74C3C" stroke-width="2" stroke-linecap="round" stroke-linejoin="round" stroke-miterlimit="10" d="
			M317.001,154.681c-1.572,2.091-2.879,4.412-4.073,6.734c-2.18,4.286-4.085,8.899-5.805,13.389
			c-1.708,4.494-3.36,9.203-4.589,13.853c-0.656,2.528-1.227,5.13-1.448,7.736"/>
	</g>
	<g id="POLYLINE_1208_">
		<path fill="none" stroke="#E74C3C" stroke-width="2" stroke-linecap="round" stroke-linejoin="round" stroke-miterlimit="10" d="
			M299.47,167.731c-2.528-1.749-5.142-3.537-8.002-4.695"/>
	</g>
	<g id="POLYLINE_1207_">
		<path fill="none" stroke="#E74C3C" stroke-width="2" stroke-linecap="round" stroke-linejoin="round" stroke-miterlimit="10" d="
			M292.242,186.099c-1.527-0.868-2.98-1.911-4.174-3.206"/>
	</g>
	<g id="POLYLINE_1206_">
		<path fill="none" stroke="#E74C3C" stroke-width="2" stroke-linecap="round" stroke-linejoin="round" stroke-miterlimit="10" d="
			M296.703,174.981c-3.05-0.38-6.192-0.787-9.096-1.829"/>
	</g>
</g>
<g id="_x32_D_x24_AG-SPORTS">
	<g id="POLYLINE_1596_">
		
			<path fill="none" stroke="#E74C3C" stroke-width="2.5" stroke-linecap="round" stroke-linejoin="round" stroke-miterlimit="10" d="
			M758.235,63.675c0.026-8.432-4.33-16.482-11.403-21.071c-12.93-8.419-30.278-3.377-36.682,10.661
			c-2.997,6.532-2.997,14.289,0,20.821c6.404,14.038,23.752,19.079,36.682,10.661C753.905,80.156,758.262,72.106,758.235,63.675z"/>
	</g>
	<g id="POLYLINE_1597_">
		
			<path fill="none" stroke="#E74C3C" stroke-width="2.5" stroke-linecap="round" stroke-linejoin="round" stroke-miterlimit="10" d="
			M812.598,427.179c-0.599-0.855-1.343-1.624-2.228-2.183c-0.818-0.522-1.747-0.856-2.692-1.064
			c-2.437-0.517-5.283-0.678-7.352,0.941c-0.864,0.678-1.522,1.59-2.022,2.561c-0.727,1.42-1.148,2.988-1.418,4.555
			c-0.719,4.479-0.534,9.574-1.148,14.069c-0.182,1.446-0.617,4.48-0.735,5.901c-0.088,1.049-0.136,2.122-0.01,3.17
			c0.136,1.172,0.553,2.379,1.507,3.132c0.59,0.477,1.322,0.742,2.053,0.917c1.407,0.326,2.891,0.372,4.331,0.408
			c2.05,0.015,14.631,0.041,16.646-0.015c0.643-0.026,1.313-0.066,1.949-0.165c0.645-0.103,1.3-0.262,1.865-0.6
			c1.506-0.908,1.617-2.894,1.52-4.476c-0.173-2.471-0.862-4.895-1.879-7.147c-0.499-1.117-1.122-2.237-1.741-3.294
			c-1.527-2.533-3.398-5.599-4.594-8.281C815.537,433.188,814.101,429.343,812.598,427.179z"/>
	</g>
	<g id="POLYLINE_1598_">
		
			<path fill="none" stroke="#E74C3C" stroke-width="2.5" stroke-linecap="round" stroke-linejoin="round" stroke-miterlimit="10" d="
			M784.055,334.131c-0.599-1.003-1.467-1.825-2.418-2.493c-1.417-0.989-3.033-1.673-4.68-2.177
			c-3.453-1.035-7.119-1.315-10.708-1.128c-2.911,0.175-5.852,0.651-8.587,1.688c-1.568,0.611-3.11,1.442-4.235,2.719
			c-0.645,0.729-1.106,1.617-1.324,2.566c-0.266,1.133-0.252,2.316-0.141,3.468c0.09,0.898,0.248,1.829,0.425,2.714
			c0.818,3.886,3.735,15.386,4.451,19.179c0.64,2.91,1.155,7.078,2.375,9.791c0.535,1.235,1.289,2.403,2.34,3.259
			c1.205,0.999,2.731,1.522,4.259,1.774c2.159,0.356,4.384,0.309,6.558,0.122c2.877-0.267,5.765-0.826,8.532-1.66
			c2.23-0.686,4.455-1.552,6.395-2.867c1.176-0.805,2.259-1.809,2.949-3.07c0.663-1.198,0.885-2.599,0.792-3.955
			c-0.165-2.46-1.226-4.757-2.468-6.85l-1.69-2.804c-0.778-1.329-1.528-2.718-1.93-4.213c-0.502-1.859-0.461-3.82-0.299-5.724
			c0.175-1.974,0.565-4.692,0.431-6.65C785.006,336.539,784.722,335.241,784.055,334.131z"/>
	</g>
	<g id="POLYLINE_1599_">
		
			<path fill="none" stroke="#E74C3C" stroke-width="2.5" stroke-linecap="round" stroke-linejoin="round" stroke-miterlimit="10" d="
			M762.494,374.369c2.557,5.569,8.246,14.271,11.472,19.605c0.575,0.921,1.19,1.9,1.845,2.764c0.633,0.828,1.332,1.643,2.22,2.205
			c0.376,0.236,0.791,0.413,1.225,0.506c0.466,0.102,0.951,0.112,1.425,0.062c0.788-0.084,1.562-0.317,2.307-0.58
			c1.358-0.49,2.792-1.133,4.106-1.737c2.753-1.3,5.519-2.74,7.995-4.518c1.064-0.785,2.124-1.641,2.869-2.747
			c0.41-0.61,0.694-1.308,0.815-2.033c0.185-1.101,0.064-2.235-0.093-3.332c-0.454-2.91-1.389-5.809-2.327-8.597
			c-1.488-4.321-3.239-8.65-5.396-12.682"/>
	</g>
	<g id="POLYLINE_1600_">
		
			<path fill="none" stroke="#E74C3C" stroke-width="2.5" stroke-linecap="round" stroke-linejoin="round" stroke-miterlimit="10" d="
			M775.985,396.964l0.019,0.866c0.017,0.578,0.086,1.163,0.273,1.713c0.376,1.086,1.069,2.046,1.723,2.98
			c1.849,2.477,4.151,5.599,5.714,8.23c3.96,6.519,8.847,16.01,13.004,22.372"/>
	</g>
	<g id="POLYLINE_1601_">
		
			<path fill="none" stroke="#E74C3C" stroke-width="2.5" stroke-linecap="round" stroke-linejoin="round" stroke-miterlimit="10" d="
			M811.299,425.7c-2.275-3.376-4.229-7.043-5.882-10.761c-1.712-3.856-3.198-7.889-4.092-12.017
			c-0.492-2.237-0.743-4.572-0.861-6.859c-0.111-1.811-0.11-4.451-0.338-6.241c-0.071-0.498-0.166-1.007-0.395-1.46
			c-0.21-0.437-0.589-0.81-0.875-1.196"/>
	</g>
	<g id="POLYLINE_1602_">
		
			<path fill="none" stroke="#E74C3C" stroke-width="2.5" stroke-linecap="round" stroke-linejoin="round" stroke-miterlimit="10" d="
			M784.729,335.689c2.824-5.857,5.339-13.868,7.486-20.059c0.404-1.268,0.777-2.582,0.984-3.897
			c0.576-3.411-0.08-6.933-1.442-10.084c-2.878-6.648-8.42-11.693-14.181-15.876c-3.158-2.264-6.558-4.357-10.049-6.066
			c-2.198-1.063-4.49-2.032-6.866-2.617c-1.341-0.314-2.754-0.545-4.121-0.269c-0.785,0.159-1.527,0.523-2.132,1.05
			c-1.026,0.889-1.691,2.115-2.316,3.301c-2.124,4.08-3.607,8.505-4.458,13.023c-0.929,4.901-1.113,9.976-0.887,14.952
			c0.453,8.755,2.105,17.566,5.492,25.678"/>
	</g>
	<g id="POLYLINE_1603_">
		
			<path fill="none" stroke="#E74C3C" stroke-width="2.5" stroke-linecap="round" stroke-linejoin="round" stroke-miterlimit="10" d="
			M792.928,313.106c0.849-0.066,1.703-0.001,2.515-0.321c0.38-0.141,0.742-0.34,1.083-0.559c1.125-0.724,2.66-2.064,3.716-2.911
			c0.554-0.434,1.143-0.905,1.746-1.265c0.279-0.165,0.571-0.323,0.886-0.409c0.16-0.043,0.329-0.063,0.492-0.032
			c0.143,0.025,0.276,0.09,0.391,0.177c0.122,0.092,0.227,0.206,0.322,0.326c0.379,0.497,0.737,1.183,1.092,1.699
			c1.442,2.077,3.326,3.9,5.24,5.542c1.02,0.844,2.086,1.686,3.265,2.297c0.551,0.278,1.182,0.497,1.802,0.353
			c0.753-0.176,1.399-0.746,1.964-1.25c0.935-0.865,1.792-1.859,2.602-2.841c1.613-1.965,3.231-4.235,4.683-6.329
			c1.939-2.846,5.394-8.284,7.526-10.883c1.436-1.79,3.04-3.487,4.812-4.948c2.534-2.108,6.039-4.124,8.845-5.886
			c1.304-0.844,2.674-1.713,3.776-2.815c0.452-0.459,0.859-0.986,1.069-1.601c0.188-0.534,0.213-1.114,0.132-1.671
			c-0.187-1.157-0.665-2.282-1.09-3.369c-1.904-4.449-4.228-8.887-6.727-13.029"/>
	</g>
	<g id="POLYLINE_1604_">
		
			<path fill="none" stroke="#E74C3C" stroke-width="2.5" stroke-linecap="round" stroke-linejoin="round" stroke-miterlimit="10" d="
			M748.593,290.076c-0.958-1.979-1.837-4.045-2.285-6.204c-0.775-3.784-0.624-7.722-0.266-11.548
			c0.367-3.317,0.891-6.699,2.078-9.832c0.329-0.834,0.718-1.662,1.237-2.396c0.372-0.529,0.828-1,1.307-1.432l1.378-1.209
			c1.373-1.233,2.562-2.698,3.675-4.165c1.727-2.312,3.34-4.802,4.692-7.352"/>
	</g>
	<g id="POLYLINE_1605_">
		
			<path fill="none" stroke="#E74C3C" stroke-width="2.5" stroke-linecap="round" stroke-linejoin="round" stroke-miterlimit="10" d="
			M839.39,350.705c-0.429,1.42-0.112,2.946,0.411,4.298c0.521,1.328,1.272,2.567,2.119,3.711c1.096,1.509,3.085,3.506,4.366,4.889
			c1.306,1.42,2.561,2.97,3.182,4.822c0.431,1.195,0.743,2.78,1.145,3.986c0.271,0.82,0.676,1.609,1.287,2.227
			c0.848,0.874,1.956,1.445,3.057,1.935c1.964,0.842,4.039,1.573,6.091,2.165c3.536,0.983,7.301,1.668,10.954,0.981
			c2.722-0.54,5.292-1.96,7.123-4.054c3.07-3.567,2.199-6.741,0.388-10.649l-3.903-8.063c-1.214-2.591-2.434-5.356-3.333-8.069
			c-1.062-3.132-1.83-6.769-2.573-10c-0.177-0.664-0.362-1.431-0.968-1.836c-0.424-0.275-0.952-0.308-1.444-0.294
			c-0.969,0.044-1.928,0.293-2.857,0.559c-4.268,1.332-8.56,3.206-12.642,5.026c-2.013,0.92-4.418,2.068-6.384,3.081
			c-1.013,0.529-2.063,1.107-3.004,1.756C841.131,348.064,839.865,349.175,839.39,350.705z"/>
	</g>
	<g id="POLYLINE_1606_">
		
			<path fill="none" stroke="#E74C3C" stroke-width="2.5" stroke-linecap="round" stroke-linejoin="round" stroke-miterlimit="10" d="
			M815.958,317.836c8.18,10.423,16.202,21.76,23.432,32.869"/>
	</g>
	<g id="POLYLINE_1607_">
		
			<path fill="none" stroke="#E74C3C" stroke-width="2.5" stroke-linecap="round" stroke-linejoin="round" stroke-miterlimit="10" d="
			M849.809,282.926c3.084,4.948,5.992,10.193,8.377,15.512c2.417,5.361,4.445,11.039,6.165,16.66
			c1.425,4.746,2.779,9.657,3.572,14.553c0.381,2.343,0.549,4.953,0.694,7.328"/>
	</g>
	<g id="POLYLINE_1608_">
		
			<path fill="none" stroke="#E74C3C" stroke-width="2.5" stroke-linecap="round" stroke-linejoin="round" stroke-miterlimit="10" d="
			M852.071,374.808c0.022,2.633,0.015,5.373,0.522,7.961c0.648,3.51,2.158,6.826,3.752,9.998c2.231,4.368,4.979,8.968,7.625,13.109
			c0.446,0.655,1.007,1.257,1.732,1.601c0.661,0.324,1.392,0.495,2.113,0.627c1.367,0.239,2.787,0.314,4.174,0.316
			c2.195-0.01,4.421-0.211,6.567-0.685c1.53-0.348,3.051-0.851,4.411-1.646c1.36-0.791,2.603-1.966,3.041-3.519
			c0.328-1.119,0.291-2.31,0.181-3.459c-0.375-3.228-1.205-7.45-1.748-10.672c-0.938-5.226-2.076-10.769-3.545-15.864"/>
	</g>
	<g id="POLYLINE_1609_">
		
			<path fill="none" stroke="#E74C3C" stroke-width="2.5" stroke-linecap="round" stroke-linejoin="round" stroke-miterlimit="10" d="
			M863.686,405.452c-0.2,0.579-0.309,1.191-0.316,1.804c-0.011,0.767,0.132,1.532,0.348,2.265c0.221,0.758,0.543,1.535,0.86,2.26
			c1.594,3.446,6.32,13.288,8.054,16.745c1.62,3.091,3.618,6.038,6.163,8.443c1.205,1.131,2.511,2.197,3.979,2.969
			c0.784,0.4,1.662,0.734,2.556,0.617c0.801-0.101,1.49-0.588,2.046-1.148c0.78-0.79,1.415-1.723,1.982-2.674
			c0.988-1.695,1.778-3.533,2.192-5.455c0.319-1.489,0.384-3.036,0.251-4.551c-0.239-2.933-1.334-6.357-1.979-9.228
			c-0.621-2.576-0.996-5.277-1.226-7.916c-0.09-1.038-0.396-5.554-0.537-6.491c-0.07-0.51-0.165-1.029-0.316-1.521
			c-0.277-0.949-0.828-1.808-1.556-2.474"/>
	</g>
	<g id="POLYLINE_1610_">
		
			<path fill="none" stroke="#E74C3C" stroke-width="2.5" stroke-linecap="round" stroke-linejoin="round" stroke-miterlimit="10" d="
			M891.59,425.064c0.664-0.261,1.386-0.438,2.102-0.349c0.55,0.065,1.068,0.31,1.494,0.66c0.723,0.596,1.243,1.414,1.767,2.182
			c0.917,1.36,1.912,3.07,3.085,4.201c0.524,0.506,1.143,0.91,1.811,1.198c1.087,0.469,2.284,0.718,3.442,0.944
			c7.117,1.311,15.315,1.753,22.007,4.667c1.75,0.75,3.463,1.644,5.029,2.73c1.182,0.826,2.304,1.776,3.204,2.908
			c1.042,1.307,1.799,2.859,2.106,4.507c0.241,1.266,0.192,2.587-0.156,3.828c-0.374,1.36-1.066,2.62-1.913,3.742
			c-0.813,1.087-1.842,2.053-3.108,2.58c-1.087,0.463-2.282,0.605-3.453,0.678c-0.973,0.061-2.548,0.06-3.542,0.062
			c-2.027-0.014-4.267-0.009-6.268-0.28c-1.365-0.17-2.735-0.459-4.045-0.88c-2.848-0.87-6.073-2.597-8.767-3.894
			c-1.877-0.906-3.863-1.654-5.931-1.967c-4.089-0.619-9.179,0.006-13.317,0.234c-1.505,0.082-3.06,0.14-4.562,0.018
			c-1.241-0.099-2.481-0.343-3.645-0.791c-1.92-0.732-3.654-1.932-5.09-3.396c-0.623-0.637-1.181-1.35-1.618-2.128
			c-0.501-0.886-0.856-1.853-1.109-2.837c-0.556-2.217-0.698-4.538-0.655-6.817c0.076-3.27,0.603-6.549,1.481-9.698"/>
	</g>
	<g id="POLYLINE_1611_">
		
			<path fill="none" stroke="#E74C3C" stroke-width="2.5" stroke-linecap="round" stroke-linejoin="round" stroke-miterlimit="10" d="
			M832.802,180.921c1.019,0.593,1.872,1.435,2.627,2.331c0.941,1.119,2.005,2.544,3.159,3.434c1.494,1.173,3.274,1.989,5.134,2.368
			c1.501,0.296,3.148,0.287,4.514-0.477c0.757-0.414,1.403-1.011,1.961-1.665c0.838-0.985,1.523-2.127,2.167-3.245
			c2.074-3.809,4.435-7.804,5.892-11.895c0.817-2.34,1.449-4.872,1.005-7.355c-0.529-2.977-2.591-5.39-4.852-7.274
			c-1.944-1.612-4.097-3.016-6.308-4.232c-2.274-1.236-4.685-2.295-7.177-3.005c-2.173-0.622-4.45-0.957-6.711-0.796
			c-3.002,0.159-6.205,1.167-9.217,1.2c-3.354,0.026-7.08-1.487-10.268-2.44c-3.703-1.132-7.596-1.92-11.43-2.452
			c-2.407-0.305-4.893-0.595-7.32-0.411c-0.889,0.066-1.995,0.241-2.875,0.04c-0.53-0.113-1.029-0.346-1.504-0.603
			c-0.985-0.53-2.416-1.529-3.375-2.107c-0.968-0.597-2.005-1.171-3.043-1.636c-3.119-1.382-6.52-2.185-9.845-2.904
			c-5.278-1.095-12.031-2.136-17.164-3.729c-1.688-0.517-3.48-1.151-5.111-1.826c-2.355-0.955-5.684-2.625-7.976-3.709
			c-2.366-1.108-4.854-2.223-7.381-2.91c-1.587-0.429-3.25-0.689-4.896-0.541c-2.944,0.242-5.629,1.667-8.12,3.163
			c-2.844,1.763-6.406,3.925-9.166,5.798c-1.527,1.05-3.094,2.172-4.453,3.431c-0.747,0.702-1.473,1.464-1.964,2.372
			c-0.396,0.725-0.581,1.567-0.434,2.387c0.148,0.862,0.579,1.65,1.085,2.353c1.066,1.45,2.504,2.615,4.092,3.451
			c5.018,2.638,10.931,0.778,15.707-1.539c2.654-1.242,6.063-3.22,8.902-3.876c0.706-0.156,1.44-0.223,2.159-0.123
			c0.73,0.096,1.432,0.359,2.079,0.704c0.455,0.241,0.908,0.534,1.331,0.827c1.43,1.022,3.738,2.809,5.168,3.803
			c4.466,3.164,9.238,6.032,14.315,8.101c6.445,2.654,15.71,4.784,22.295,7.098c3.669,1.253,7.285,2.892,10.722,4.684
			c5.552,2.884,12.283,6.881,18.218,8.745c3.862,1.259,8.622,1.885,12.616,2.67C829.222,179.527,831.138,179.963,832.802,180.921z"
			/>
	</g>
	<g id="POLYLINE_1612_">
		
			<path fill="none" stroke="#E74C3C" stroke-width="2.5" stroke-linecap="round" stroke-linejoin="round" stroke-miterlimit="10" d="
			M826.168,117.221c-0.603,0.337-1.249,0.694-1.957,0.705c-0.816,0.013-1.552-0.457-2.132-0.993c-1.9-1.803-2.5-4.56-2.415-7.096
			c0.038-1.095,0.202-2.196,0.528-3.244c0.235-0.746,0.555-1.479,1.015-2.115c0.587-0.811,1.438-1.479,2.434-1.68
			c0.43-0.086,0.886-0.073,1.302,0.075c0.375,0.133,0.705,0.374,0.974,0.665c0.473,0.512,0.785,1.152,1.024,1.802
			c0.393,1.094,0.584,2.264,0.688,3.419c0.212,2.541,0.011,5.132-0.335,7.654c-0.341,2.5-1.072,5.618-1.171,8.135
			c-0.116,2.367,0.212,4.763,0.906,7.027c0.562,1.812,1.37,3.57,2.513,5.092c1.416,1.888,3.388,3.299,5.51,4.296
			c1.493,0.697,3.075,1.246,4.68,1.619c1.657,0.377,3.404,0.508,5.071,0.12c1.205-0.276,2.337-0.823,3.381-1.477
			c1.606-1.012,3.05-2.294,4.389-3.633c1.046-1.074,2.111-2.195,2.805-3.537c0.215-0.442,0.405-0.932,0.356-1.432
			c-0.022-0.21-0.104-0.413-0.243-0.574c-0.291-0.332-0.738-0.556-1.094-0.812c-0.536-0.361-0.962-0.866-1.347-1.379
			c-0.607-0.815-1.288-1.824-2.022-2.518c-0.56-0.543-1.194-1.014-1.87-1.403c-1.698-0.984-3.654-1.435-5.593-1.624
			c-1.725-0.162-3.484-0.153-5.199,0.107c-0.903,0.128-2.001,0.414-2.91,0.288c-0.656-0.092-1.28-0.416-1.725-0.908
			c-0.387-0.416-0.605-0.959-0.708-1.512c-0.088-0.445-0.123-0.918-0.152-1.371c-0.052-1.049-0.127-2.299-0.302-3.329
			c-0.249-1.603-0.651-3.517-0.646-5.129c0.002-0.676,0.068-1.362,0.273-2.009c0.343-1.088,1.09-1.993,1.84-2.83
			c0.728-0.806,1.621-1.746,2.201-2.661c0.533-0.824,0.923-1.744,1.271-2.659c0.515-1.292,1.031-3.097,1.733-4.287
			c0.404-0.719,0.957-1.37,1.672-1.793c1.055-0.643,2.374-0.739,3.551-0.413c1.545,0.421,3.223,1.594,4.609,2.392
			c0.978,0.569,2.001,1.102,3.085,1.438c1.101,0.34,2.264,0.477,3.41,0.564c1.769,0.153,3.963,0.097,5.607,0.829
			c1.347,0.593,2.392,1.747,2.997,3.075c1.097,2.397,0.893,5.164,0.276,7.664c-0.427,1.793-1.313,4.059-1.878,5.823
			c-0.639,1.939-1.376,4.968-2.116,6.861c-1.07,2.898-2.791,5.529-4.799,7.863"/>
	</g>
	<g id="POLYLINE_1613_">
		
			<path fill="none" stroke="#E74C3C" stroke-width="2.5" stroke-linecap="round" stroke-linejoin="round" stroke-miterlimit="10" d="
			M823.709,102.785c0.399-3.5,1.507-6.91,2.759-10.189c1.198-3.101,2.655-6.294,5.256-8.471c2.309-1.92,5.354-2.656,8.288-2.907
			c2.83-0.223,5.708-0.011,8.485,0.569c2.074,0.433,4.128,1.119,6.105,1.875c2.433,0.957,4.979,1.909,7.207,3.292
			c0.705,0.447,1.39,0.952,1.957,1.569c0.377,0.411,0.693,0.88,0.954,1.373c0.576,1.099,0.967,2.408,1.635,3.459
			c0.482,0.797,1.17,1.816,1.536,2.66c0.234,0.517,0.411,1.064,0.528,1.619c0.451,2.237,0.217,4.588-0.439,6.762
			c-0.63,2.047-1.756,3.926-3.168,5.529"/>
	</g>
	<g id="POLYLINE_1614_">
		
			<path fill="none" stroke="#E74C3C" stroke-width="2.5" stroke-linecap="round" stroke-linejoin="round" stroke-miterlimit="10" d="
			M823.094,117.654c-1.582,2.127-2.741,4.575-3.819,6.986c-0.622,1.437-1.233,2.94-1.313,4.522
			c-0.037,0.732,0.089,1.472,0.371,2.149c0.44,1.067,1.182,1.983,1.961,2.823c1.382,1.45,2.918,2.832,4.479,4.087
			c2.157,1.696,4.514,3.277,7.189,4.004c2.358,0.645,4.852,0.559,7.255,0.234"/>
	</g>
	<g id="POLYLINE_1615_">
		
			<path fill="none" stroke="#E74C3C" stroke-width="2.5" stroke-linecap="round" stroke-linejoin="round" stroke-miterlimit="10" d="
			M809.214,106.348c0.826,0.064,1.679,0.146,2.484,0.341c0.97,0.23,1.918,0.588,2.832,0.984c1.827,0.81,3.603,1.805,5.134,3.099"/>
	</g>
	<g id="POLYLINE_1616_">
		
			<path fill="none" stroke="#E74C3C" stroke-width="2.5" stroke-linecap="round" stroke-linejoin="round" stroke-miterlimit="10" d="
			M851.995,138.161c1.387,2.933,2.763,5.996,3.803,9.068c1.023,2.982,1.849,6.664,2.867,9.649c0.881,2.577,2.167,5.275,2.626,7.967
			c0.285,1.587,0.274,3.225-0.016,4.811c-0.684,3.704-2.388,7.151-4.199,10.423c-4.963,8.837-13.258,19.194-18.55,27.866
			c-1.303,2.16-2.545,4.416-3.497,6.755c-1.012,2.473-1.676,5.106-1.833,7.777c-0.278,4.852,0.867,9.686,2.151,14.333
			c1.108,3.83,2.445,7.883,3.835,11.618c0.826,2.133,1.725,4.303,3.022,6.197c0.575,0.842,1.412,1.788,1.972,2.64
			c0.385,0.585,0.688,1.241,0.769,1.942c0.124,0.981-0.145,1.989-0.672,2.819c-1.033,1.628-2.845,2.534-4.593,3.205
			c-3.515,1.288-7.299,1.783-11.015,2.065c-11.671,0.793-23.443-1.267-34.443-5.136c-6.199-2.147-12.336-5.11-18.144-8.159
			c-4.128-2.165-12.18-6.626-16.421-8.39c-1.737-0.769-4.447-1.698-6.007-2.837c-0.59-0.432-1.123-0.985-1.378-1.681
			c-0.364-1.017-0.159-2.13,0.103-3.147c0.466-1.724,1.695-4.662,2.347-6.37c1.583-4.067,2.443-8.446,3.1-12.749
			c0.551-3.797,1.545-11.92,2.308-15.554c0.4-1.968,0.938-3.954,1.576-5.857c1.437-4.222,3.735-9.409,5.099-13.646
			c2.536-7.577,4.93-16.651,6.96-24.405"/>
	</g>
	<g id="POLYLINE_1617_">
		
			<path fill="none" stroke="#E74C3C" stroke-width="2.5" stroke-linecap="round" stroke-linejoin="round" stroke-miterlimit="10" d="
			M708.742,140.751c-1.021-0.906-1.921-1.96-2.622-3.133c-0.616-1.038-1.082-2.189-1.222-3.394c-0.248-2.076,0.61-4.159,1.979-5.697
			c2.343-2.698,6.274-3.616,9.511-4.787c1.126-0.397,2.269-0.879,3.324-1.437l2.33-1.25c1.141-0.598,2.343-1.138,3.608-1.406
			c1.473-0.316,3.02-0.29,4.519-0.234c2.589,0.118,5.573,0.378,8.13,0.056c2.854-0.332,6.201-1.509,8.989-2.23
			c1.953-0.501,3.981-0.877,6.005-0.763c3.794,0.196,7.471,1.832,11.196,2.43c1.54,0.252,3.124,0.198,4.655-0.088
			c2.147-0.379,4.446-1.247,6.583-1.671l2.472-0.47c1.203-0.242,2.416-0.567,3.48-1.195c1.159-0.647,2.834-2.148,3.888-2.994
			c0.995-0.804,2.051-1.577,3.147-2.237c2.107-1.272,4.393-2.308,6.71-3.133c2.014-0.707,4.115-1.277,6.231-1.568
			c1.371-0.186,2.777-0.254,4.154-0.09c1.714,0.201,3.403,0.735,4.874,1.646c0.566,0.353,1.106,0.761,1.573,1.238
			c0.351,0.361,0.659,0.783,0.811,1.268c0.3,0.934-0.056,1.917-0.471,2.758c-0.461,0.92-1.064,1.782-1.687,2.599
			c-1.098,1.428-2.369,2.812-3.619,4.109c-1.652,1.682-5.454,5.414-6.943,7.124c-1.202,1.31-2.893,3.61-3.988,5.049
			c-1.206,1.565-2.523,3.091-4.106,4.287c-2.827,2.106-6.223,3.324-9.616,4.172"/>
	</g>
	<g id="POLYLINE_1618_">
		
			<path fill="none" stroke="#E74C3C" stroke-width="2.5" stroke-linecap="round" stroke-linejoin="round" stroke-miterlimit="10" d="
			M592.594,209.966c8.229-1.837,15.118-7.864,18.031-15.777c5.354-14.471-3.396-30.276-18.502-33.42
			c-7.033-1.48-14.598,0.234-20.307,4.6c-12.276,9.347-13.36,27.381-2.293,38.131C575.564,209.385,584.377,211.855,592.594,209.966z
			"/>
	</g>
	<g id="POLYLINE_1619_">
		
			<path fill="none" stroke="#E74C3C" stroke-width="2.5" stroke-linecap="round" stroke-linejoin="round" stroke-miterlimit="10" d="
			M560.62,352.259c1.698,2.757,3.751,6.036,5.168,8.915c1.181,2.355,2.214,4.835,3.104,7.315c2.06,5.784,3.77,12.166,5.284,18.125
			c1.338,5.398,2.723,11.326,3.686,16.801"/>
	</g>
	<g id="POLYLINE_1620_">
		
			<path fill="none" stroke="#E74C3C" stroke-width="2.5" stroke-linecap="round" stroke-linejoin="round" stroke-miterlimit="10" d="
			M536.935,359.555c0.591,4.475,1.287,9.068,2.887,13.306c1.072,2.921,2.526,5.746,4.053,8.453
			c3.648,6.54,9.558,14.82,13.123,21.411l3.417,6.532"/>
	</g>
	<g id="POLYLINE_1621_">
		
			<path fill="none" stroke="#E74C3C" stroke-width="2.5" stroke-linecap="round" stroke-linejoin="round" stroke-miterlimit="10" d="
			M569.339,432.732c-1.707-5.418-3.457-11.132-6.337-16.049c-0.847-1.495-2.285-3.571-2.854-5.175
			c-0.163-0.484-0.275-1.015-0.137-1.518c0.125-0.476,0.468-0.863,0.866-1.139c0.864-0.588,1.915-0.82,2.92-1.045
			c1.4-0.29,3.287-0.615,4.661-0.98c1.195-0.303,2.401-0.729,3.545-1.19c1.369-0.546,3.891-1.691,5.278-2.079
			c0.361-0.101,0.733-0.188,1.107-0.216c0.259-0.018,0.528-0.008,0.773,0.085c0.216,0.08,0.402,0.23,0.541,0.412
			c0.202,0.265,0.326,0.582,0.432,0.895c0.599,2.276,2.455,8.137,3.184,10.46c0.746,2.437,1.751,6.253,2.396,8.747"/>
	</g>
	<g id="POLYLINE_1622_">
		
			<path fill="none" stroke="#E74C3C" stroke-width="2.5" stroke-linecap="round" stroke-linejoin="round" stroke-miterlimit="10" d="
			M580.066,459.601l-10.073-0.003c-0.891-0.013-1.872-0.083-2.58-0.686c-0.537-0.453-0.804-1.133-0.975-1.797
			c-0.263-1.046-0.338-2.154-0.394-3.229c-0.101-2.489-0.053-5.207,0.012-7.7c0.081-2.3,0.199-4.78,0.487-7.059
			c0.175-1.327,0.41-2.671,0.857-3.936c0.275-0.748,0.619-1.51,1.217-2.056c0.328-0.299,0.759-0.487,1.208-0.444
			c0.272,0.022,0.535,0.113,0.779,0.232c0.828,0.412,1.646,1.259,2.345,1.863c0.587,0.506,1.211,1.037,1.979,1.232
			c0.562,0.147,1.155,0.089,1.711-0.059c0.533-0.145,1.06-0.341,1.556-0.582c1.272-0.609,2.258-1.687,2.943-2.903
			c1.06-1.882,1.896-4.347,2.927-6.245c0.869-1.645,2.182-3.173,3.979-3.807c0.598-0.207,1.24-0.337,1.874-0.269
			c0.481,0.052,0.94,0.239,1.342,0.504c0.536,0.352,0.991,0.82,1.403,1.308c1.497,1.8,3.322,5.156,4.577,7.168
			c1.491,2.395,3.041,4.912,5.415,6.53c0.962,0.667,2.03,1.195,3.098,1.668c5.352,2.237,11.144,4.425,16.686,6.129l3.782,1.086
			c1.057,0.32,2.13,0.681,3.061,1.287c1.003,0.643,1.827,1.555,2.377,2.611c0.683,1.306,0.993,2.787,1.052,4.253
			c0.028,1.031-0.055,2.101-0.476,3.054c-0.252,0.572-0.674,1.043-1.244,1.311c-0.396,0.192-0.83,0.297-1.262,0.368
			c-0.779,0.125-1.608,0.144-2.396,0.161L580.066,459.601z"/>
	</g>
	<g id="POLYLINE_1623_">
		
			<path fill="none" stroke="#E74C3C" stroke-width="2.5" stroke-linecap="round" stroke-linejoin="round" stroke-miterlimit="10" d="
			M384.456,402.484c0.347-2.44,0.943-6.281,1.13-8.696c0.198-2.266,0.246-4.66,0.191-6.935c-0.179-7.546-1.101-16.737,0.68-24.094
			c1.031-4.533,2.966-8.876,5.043-13.02"/>
	</g>
	<g id="POLYLINE_1624_">
		
			<path fill="none" stroke="#E74C3C" stroke-width="2.5" stroke-linecap="round" stroke-linejoin="round" stroke-miterlimit="10" d="
			M400.258,406.306c1.372-4.071,2.94-8.745,4.695-12.633c2.055-4.589,5.671-11.498,7.485-16.146
			c2.562-6.384,4.047-13.204,5.018-19.999"/>
	</g>
	<g id="POLYLINE_1625_">
		
			<path fill="none" stroke="#E74C3C" stroke-width="2.5" stroke-linecap="round" stroke-linejoin="round" stroke-miterlimit="10" d="
			M380.411,422.698c0.079-1.518,0.248-3.153,0.443-4.661c0.4-2.675,1.167-8.22,1.475-10.869c0.086-0.621,0.186-1.309,0.313-1.921
			c0.122-0.578,0.266-1.166,0.51-1.706c0.167-0.359,0.388-0.728,0.747-0.922c0.282-0.152,0.617-0.158,0.927-0.109
			c0.257,0.041,0.512,0.116,0.758,0.2c0.915,0.324,1.947,0.802,2.869,1.105c2.929,0.98,6.834,1.432,9.898,1.921
			c0.509,0.093,1.068,0.164,1.549,0.358c0.154,0.065,0.303,0.15,0.421,0.27c0.129,0.129,0.212,0.297,0.257,0.473
			c0.066,0.258,0.069,0.529,0.058,0.794c-0.049,1.07-0.646,3.621-0.836,4.703c-0.812,4.495-1.614,10.185-2.628,14.622"/>
	</g>
	<g id="POLYLINE_1626_">
		
			<path fill="none" stroke="#E74C3C" stroke-width="2.5" stroke-linecap="round" stroke-linejoin="round" stroke-miterlimit="10" d="
			M398.568,430.779c-0.547-2.279-1.538-4.471-2.975-6.328c-1.163-1.501-2.625-2.774-4.242-3.766
			c-2.329-1.418-5.412-2.539-7.971-1.065c-1.445,0.828-2.488,2.205-3.296,3.634c-1.472,2.614-2.138,5.855-3.122,8.671
			c-0.818,2.431-2.024,4.76-3.304,6.978c-1.217,2.124-3.395,5.42-4.198,7.702c-0.708,1.904-1.017,3.949-1.081,5.974
			c-0.031,1.329,0.028,2.685,0.348,3.98c0.175,0.682,0.432,1.372,0.915,1.898c0.526,0.584,1.296,0.862,2.055,0.985
			c0.603,0.102,1.238,0.131,1.849,0.147c0.793,0.005,23.334,0.045,23.851-0.02c0.569-0.037,1.155-0.109,1.676-0.354
			c0.347-0.163,0.656-0.408,0.898-0.705c0.342-0.417,0.56-0.923,0.708-1.438c0.225-0.791,0.301-1.624,0.328-2.444
			c0.083-3.925-0.866-9.572-1.327-13.509C399.253,437.756,399.363,434.086,398.568,430.779z"/>
	</g>
	<g id="POLYLINE_1627_">
		
			<path fill="none" stroke="#E74C3C" stroke-width="2.5" stroke-linecap="round" stroke-linejoin="round" stroke-miterlimit="10" d="
			M522.638,292.016c3.493,3.549,6.658,7.499,9.439,11.627c2.351,3.465,4.595,7.129,6.487,10.867"/>
	</g>
	<g id="POLYLINE_1628_">
		
			<path fill="none" stroke="#E74C3C" stroke-width="2.5" stroke-linecap="round" stroke-linejoin="round" stroke-miterlimit="10" d="
			M472.696,309.716c10.008,6.184,24.084,14.648,34.229,20.497"/>
	</g>
	<g id="POLYLINE_1629_">
		
			<path fill="none" stroke="#E74C3C" stroke-width="2.5" stroke-linecap="round" stroke-linejoin="round" stroke-miterlimit="10" d="
			M506.639,330.805c0.154-0.423,0.408-0.807,0.672-1.169c0.533-0.719,1.171-1.381,1.816-2.001
			c7.437-6.995,17.434-10.285,27.113-12.848c0.873-0.206,1.801-0.434,2.691-0.205c0.493,0.127,0.921,0.431,1.266,0.799
			c0.871,0.929,1.671,2.499,2.345,3.583c0.606,0.998,1.274,1.98,2.066,2.839c1.446,1.575,3.409,3.047,4.977,4.502
			c1.141,1.057,2.212,2.225,3.021,3.56c2.07,3.452,2.712,7.923,3.924,11.715c0.299,0.94,0.646,1.886,1.094,2.765
			c0.575,1.135,1.408,2.297,2.142,3.342c0.564,0.834,1.154,1.731,1.234,2.762c0.134,1.781-1.224,3.226-2.588,4.178
			c-1.694,1.167-3.643,1.939-5.575,2.618c-3.266,1.107-6.683,1.907-10.101,2.361c-1.396,0.17-2.839,0.308-4.246,0.223
			c-0.656-0.046-1.327-0.141-1.927-0.426c-0.38-0.18-0.716-0.451-0.968-0.788c-0.444-0.594-0.661-1.324-0.854-2.031
			c-0.52-1.947-0.748-4.194-1.958-5.866c-0.831-1.145-2.032-1.953-3.221-2.686c-6.366-3.776-13.556-8.013-19.266-12.673
			c-1.091-0.896-2.234-1.831-3.189-2.872c-0.227-0.259-0.454-0.544-0.536-0.886C506.504,331.336,506.547,331.058,506.639,330.805z"
			/>
	</g>
	<g id="POLYLINE_1630_">
		
			<path fill="none" stroke="#E74C3C" stroke-width="2.5" stroke-linecap="round" stroke-linejoin="round" stroke-miterlimit="10" d="
			M404.763,239.976c-2.327,2.621-4.302,5.593-5.871,8.724c-1.188,2.392-2.168,4.924-2.748,7.534
			c-0.652,2.869-0.675,5.858-0.428,8.779c0.209,2.408,0.611,5.581,0.755,7.979c0.188,3.023,0.217,6.136-0.047,9.155
			c-0.097,1.088-0.243,2.222-0.445,3.296c-0.187,1.047-0.622,2.702-0.876,3.746c-0.333,1.396-0.633,2.854-0.434,4.293
			c0.335,2.265,1.668,4.249,3.161,5.93"/>
	</g>
	<g id="POLYLINE_1631_">
		
			<path fill="none" stroke="#E74C3C" stroke-width="2.5" stroke-linecap="round" stroke-linejoin="round" stroke-miterlimit="10" d="
			M432.013,316.471c2.46-1.965,4.853-4.132,6.547-6.811c1.257-1.963,2.457-4.672,3.593-6.712c0.728-1.302,1.567-2.576,2.661-3.601
			c0.862-0.805,1.92-1.492,3.116-1.62c1.408-0.149,2.74,0.523,3.884,1.277c1.29,0.862,2.501,1.929,3.646,2.975
			c1.87,1.728,3.781,3.704,5.51,5.577c0.578,0.603,1.574,1.847,2.26,2.319c0.376,0.264,0.814,0.43,1.261,0.531
			c0.978,0.217,1.999,0.235,2.998,0.202c1.63-0.07,3.27-0.328,4.839-0.779c1.478-0.424,2.902-1.09,4.267-1.789
			c1.792-0.933,4.266-2.239,6.126-2.996c7.008-2.921,19.26-5.154,26.703-6.99c2.625-0.655,5.393-1.33,7.907-2.323
			c1.466-0.591,2.915-1.319,4.104-2.375c0.507-0.466,1.078-1.025,1.375-1.651c0.176-0.378,0.207-0.783,0.069-1.178
			c-0.176-0.51-0.511-0.95-0.846-1.366c-3.047-3.403-8.005-8.868-11.175-12.074c-2.5-2.559-8.411-7.992-11.072-10.5
			c-1.913-1.881-3.945-3.788-5.444-6.024c-0.782-1.161-1.226-2.571-2.045-3.708c-0.678-0.921-1.588-1.65-2.53-2.286
			c-1.334-0.882-2.801-1.596-4.338-2.043"/>
	</g>
	<g id="POLYLINE_1632_">
		
			<path fill="none" stroke="#E74C3C" stroke-width="2.5" stroke-linecap="round" stroke-linejoin="round" stroke-miterlimit="10" d="
			M432.305,313.36c2.317-3.103,3.894-6.71,5.007-10.403c0.635-2.124,1.136-4.33,1.154-6.555c0.006-1.387-0.193-2.802-0.772-4.073
			c-1.031-2.266-3.077-3.869-5.19-5.082c-2.339-1.324-4.889-2.306-7.437-3.145c-3.032-0.973-6.19-1.703-9.369-1.953
			c-2.253-0.17-4.559-0.104-6.758,0.453c-3.395,0.846-6.394,3.036-8.341,5.931c-3.01,4.38-3.392,10.06-2.117,15.11"/>
	</g>
	<g id="POLYLINE_1633_">
		
			<path fill="none" stroke="#E74C3C" stroke-width="2.5" stroke-linecap="round" stroke-linejoin="round" stroke-miterlimit="10" d="
			M417.456,357.529c-0.664,0.492-1.526,0.595-2.331,0.577c-1.666-0.06-3.315-0.554-4.905-1.025l-6.451-2.045
			c-1.986-0.603-5.871-1.697-7.769-2.417c-1.046-0.396-2.113-0.824-3.057-1.431c-0.459-0.298-0.893-0.651-1.219-1.094
			c-0.254-0.343-0.432-0.741-0.527-1.157c-0.247-1.138-0.024-2.335,0.201-3.46c0.704-3.326,2.865-8.931,3.978-12.214
			c1.272-3.713,2.38-7.573,2.842-11.476c0.596-4.806,0.223-10.823,0.212-15.683c0.011-1.327,0.031-2.754,0.172-4.073
			c0.121-1.119,0.332-2.254,0.815-3.279c0.316-0.674,0.76-1.291,1.309-1.794c1.039-0.956,2.384-1.498,3.725-1.878
			c2.486-0.682,5.096-0.876,7.666-0.857c2.583,0.035,5.184,0.312,7.698,0.911c2.682,0.634,5.319,1.742,7.373,3.617
			c1.968,1.765,3.304,4.138,4.136,6.627c1.129,3.341,1.197,6.95,0.776,10.424c-0.366,3.013-1.056,6.013-2.038,8.885
			c-0.618,1.785-1.365,3.566-2.301,5.208c-1.02,1.836-2.759,4.025-4.034,5.717c-1.114,1.48-2.105,3.084-2.764,4.821
			c-0.81,2.08-1.26,4.3-1.498,6.514c-0.228,2.004-0.221,4.554-0.43,6.56c-0.107,0.935-0.255,1.893-0.633,2.762
			C418.187,356.752,417.884,357.211,417.456,357.529z"/>
	</g>
	<g id="POLYLINE_1634_">
		
			<path fill="none" stroke="#E74C3C" stroke-width="2.5" stroke-linecap="round" stroke-linejoin="round" stroke-miterlimit="10" d="
			M459.212,135.595c-3.46-1.021-7.102-1.437-10.703-1.204c-3.193,0.191-6.383,0.866-9.328,2.128
			c-3.921,1.648-7.294,4.387-10.133,7.52c-4.192,4.655-7.454,10.183-9.541,16.087c-1.725,4.895-2.611,10.113-3.259,15.25
			c-1.313,11.727-2.794,26.703-5.237,38.113c-0.885,4.182-1.913,8.434-3.42,12.44c-0.807,2.2-2.208,4.84-3.138,6.999
			c-0.259,0.625-0.497,1.274-0.654,1.934c-0.184,0.768-0.252,1.573-0.131,2.356c0.131,0.855,0.47,1.666,0.893,2.416
			c1.18,2.045,2.901,3.733,4.649,5.296c2.392,2.084,4.987,4.05,7.663,5.754c3.603,2.292,7.555,4.103,11.531,5.646
			c5.475,2.104,11.264,3.882,16.981,5.184c7.103,1.587,14.527,2.657,21.768,1.416c3.354-0.557,6.645-1.59,9.77-2.92
			c1.961-0.844,3.958-1.755,5.695-3.009c1.326-0.968,2.647-2.282,2.793-4.002c0.08-0.953-0.152-1.903-0.44-2.805
			c-0.732-2.188-1.871-4.423-2.269-6.708c-0.438-2.493-0.141-5.059,0.275-7.535c0.282-1.568,0.901-4.779,1.102-6.314
			c0.294-1.994,0.744-6.834,0.96-8.898l0.179-1.481"/>
	</g>
	<g id="POLYLINE_1635_">
		
			<path fill="none" stroke="#E74C3C" stroke-width="2.5" stroke-linecap="round" stroke-linejoin="round" stroke-miterlimit="10" d="
			M513.778,185.961c0.836-4.69,1.118-9.531,1.032-14.29c-0.071-2.951-0.32-5.946-0.901-8.842c-0.548-2.703-1.397-5.374-2.548-7.881
			c-1.128-2.41-2.515-4.785-4.51-6.582c-1.745-1.568-3.961-2.592-6.276-2.952"/>
	</g>
	<g id="POLYLINE_1636_">
		
			<path fill="none" stroke="#E74C3C" stroke-width="2.5" stroke-linecap="round" stroke-linejoin="round" stroke-miterlimit="10" d="
			M489.657,185.578c1.415-2.961,3.542-5.789,6.625-7.132c1.994-0.876,4.205-1.204,6.373-1.135c2.001,0.074,4.021,0.495,5.806,1.423
			c1.752,0.902,3.237,2.327,4.168,4.068c1.733,3.205,1.489,7.202,3.035,10.477c0.457,0.947,1.082,1.818,1.728,2.644
			c1.29,1.61,2.721,3.341,3.68,5.172c1.753,3.347,2.713,7.1,3.656,10.741c1.206,4.887,2.938,13.129,4.572,17.751
			c1.486,4.482,4.072,9.605,5.812,14.008c1.241,3.226,2.474,7.236,4.073,10.278c1.137,2.154,2.78,4.38,3.78,6.603
			c0.815,1.747,1.284,3.644,1.493,5.556c0.452,4.179,0.089,8.442-0.51,12.59c-0.225,1.438-0.481,3.006-0.826,4.417
			c-0.194,0.777-0.424,1.567-0.755,2.298c-0.363,0.801-0.878,1.588-1.664,2.024c-0.589,0.327-1.278,0.425-1.944,0.412
			c-1.204-0.034-2.388-0.38-3.477-0.884c-1.063-0.487-1.985-1.243-2.74-2.13"/>
	</g>
	<g id="POLYLINE_1637_">
		
			<path fill="none" stroke="#E74C3C" stroke-width="2.5" stroke-linecap="round" stroke-linejoin="round" stroke-miterlimit="10" d="
			M502.545,131.477c0.078,4.209-0.489,8.443-1.566,12.51c-0.585,2.192-1.331,4.38-2.313,6.426c-0.621,1.304-1.394,2.579-2.195,3.781
			c-0.909,1.35-2.703,3.891-3.489,5.258c-0.67,1.128-1.459,2.761-2.044,3.955c-0.763,1.501-1.57,3.057-2.831,4.204
			c-0.592,0.537-1.302,0.95-2.074,1.163c-1.913,0.519-3.977,0.131-5.804-0.544c-1.361-0.519-2.663-1.242-3.762-2.203
			c-0.787-0.69-1.452-1.518-2.014-2.398c-0.77-1.194-1.449-2.654-2.19-3.866c-0.818-1.344-2.187-2.99-3.164-4.238
			c-0.9-1.16-1.737-2.4-2.374-3.724c-0.511-1.041-0.964-2.165-1.365-3.253c-0.169-0.445-0.624-1.798-0.809-2.201
			c-0.08-0.173-0.201-0.327-0.36-0.432c-0.371-0.24-0.892-0.376-1.307-0.524c-0.468-0.163-0.926-0.382-1.306-0.704
			c-0.558-0.468-0.929-1.117-1.228-1.773c-0.591-1.338-0.908-2.789-1.077-4.237c-0.177-1.646-0.166-3.342,0.248-4.953
			c0.231-0.873,0.57-1.736,1.11-2.466c0.336-0.441,0.789-0.895,1.367-0.953c0.321-0.029,0.636,0.099,0.893,0.284
			c0.362,0.261,0.645,0.617,0.889,0.988c0.514,0.791,0.848,1.698,1.145,2.589c0.676,2.099,1.263,4.395,2.521,6.234
			c0.281,0.406,0.585,0.813,0.985,1.11c0.143,0.101,0.306,0.192,0.485,0.198l0.009,0l0.009,0l0.009,0l0.009,0l0.009,0l0.009-0.001
			l0.008-0.001l0.008-0.001l0.008-0.001l0.008-0.001l0.008-0.001l0.008-0.002l0.008-0.002l0.008-0.002l0.008-0.002l0.008-0.002
			l0.008-0.002l0.008-0.003l0.008-0.003l0.008-0.003l0.008-0.003l0.008-0.003l0.008-0.003l0.008-0.004l0.008-0.004l0.01-0.005
			l0.01-0.005l0.01-0.005l0.009-0.006l0.009-0.006l0.009-0.006l0.009-0.006l0.009-0.007l0.009-0.007l0.009-0.007l0.009-0.007
			l0.009-0.008l0.009-0.008l0.009-0.008l0.009-0.008c0.219-0.229,0.321-0.544,0.421-0.839c0.475-1.585,0.641-3.378,1.415-4.86
			c0.345-0.654,0.838-1.22,1.368-1.73c0.594-0.58,1.317-1.162,1.729-1.891c0.217-0.38,0.331-0.811,0.389-1.242
			c0.114-0.84,0.039-1.911,0.026-2.763c-0.007-0.817,0.022-1.679,0.412-2.416c0.141-0.265,0.334-0.509,0.582-0.681
			c0.206-0.143,0.449-0.231,0.698-0.254c0.267-0.026,0.536,0.018,0.793,0.089c0.346,0.096,0.681,0.242,1.003,0.399
			c0.966,0.47,2.54,1.509,3.479,2.056c0.923,0.539,1.888,1.054,2.917,1.36c1.117,0.339,2.3,0.44,3.462,0.456
			c0.835,0.011,2.166-0.016,2.981,0.078c0.718,0.076,1.441,0.24,2.138,0.429l2.463,0.705c2.332,0.614,4.753,1.046,7.17,1.018
			c0.571-0.016,1.151-0.064,1.706-0.203c0.37-0.094,0.735-0.236,1.045-0.462c0.439-0.313,0.703-0.796,0.784-1.324
			c0.063-0.389,0.045-0.79,0.004-1.18c-0.167-1.533-0.729-3.144-0.709-4.696c0.004-0.762,0.153-1.706,0.168-2.468
			c0.013-0.521-0.03-1.048-0.137-1.559c-0.284-1.317-0.844-2.568-1.471-3.754c-0.735-1.366-1.604-2.682-2.698-3.788l-1.145-1.153
			c-1.471-1.528-2.79-3.488-4.716-4.482c-0.769-0.392-1.623-0.602-2.468-0.756l-2.204-0.367c-1.135-0.193-2.253-0.555-3.319-0.988
			c-1.525-0.591-3.133-1.359-4.77-1.53c-0.995-0.116-1.998,0.084-2.932,0.424c-1.654,0.6-3.294,1.584-4.975,2.114
			c-0.687,0.22-1.416,0.37-2.128,0.488c-1.71,0.286-3.629,0.437-5.231,1.132c-2.228,0.931-3.653,3.058-4.647,5.17
			c-0.789,1.717-1.348,3.553-1.598,5.428c-0.216,1.498-0.076,3.13-0.034,4.638c0.022,0.798-0.074,1.602-0.267,2.376
			c-0.261,1.083-0.668,2.374-0.762,3.487c-0.126,1.252-0.07,2.53,0.077,3.777"/>
	</g>
	<g id="POLYLINE_1638_">
		
			<path fill="none" stroke="#E74C3C" stroke-width="2.5" stroke-linecap="round" stroke-linejoin="round" stroke-miterlimit="10" d="
			M445.367,167.947c-1.821,2.252-3.306,5.217-2.539,8.168c0.309,1.237,0.93,2.379,1.66,3.416c1.004,1.417,2.23,2.688,3.492,3.875
			c2.73,2.547,5.816,4.861,8.869,7.008c4.892,3.462,10.833,6.941,16.038,9.966c1.515,0.921,3.086,1.91,4.464,3.023
			c0.846,0.687,1.655,1.445,2.309,2.32c0.815,1.081,1.333,2.357,1.736,3.641l0.951,3.188c1.02,3.313,2.656,6.442,4.395,9.429
			c2.986,5.066,6.544,9.975,10.295,14.504c3.299,4.039,9.015,9.728,12.38,13.738c0.863,1.045,1.725,2.156,2.458,3.294
			c1.056,1.611,1.858,3.41,2.181,5.317c0.471,2.567,0.169,5.615,0.217,8.216c0.034,2.463,0.275,4.969,1.074,7.311
			c0.575,1.698,1.453,3.293,2.548,4.711c1.326,1.714,2.983,3.195,4.897,4.222c1.392,0.744,2.919,1.229,4.474,1.488
			c1.335,0.22,2.712,0.284,4.06,0.156c0.811-0.083,1.634-0.217,2.389-0.536c0.454-0.194,0.883-0.468,1.208-0.843
			c0.295-0.334,0.494-0.745,0.613-1.172c0.148-0.526,0.196-1.08,0.207-1.625c0.028-1.865-0.41-4.266-0.669-6.128
			c-0.636-4.19-1.296-9.01-2.305-13.104c-0.489-1.99-1.075-4.006-1.882-5.892c-0.871-2.042-2.048-3.963-3.394-5.725
			c-1.31-1.732-3.088-3.705-4.453-5.4c-1.331-1.64-2.618-3.414-3.724-5.215c-3.23-5.253-6.569-13.842-9.126-19.511
			c-1.439-3.199-3.072-6.409-4.9-9.402c-1.636-2.761-4.676-6.918-6.552-9.58c-2.805-3.994-4.938-8.788-7.534-12.914
			c-1.237-1.976-2.64-3.9-4.223-5.615c-2.377-2.641-6.359-5.924-9.052-8.296c-1.132-1.006-2.266-2.106-3.264-3.244
			c-1.299-1.464-2.702-3.214-4.248-4.405c-1.218-0.965-2.601-1.718-4.025-2.332c-1.786-0.764-3.669-1.322-5.581-1.661
			c-1.809-0.315-3.672-0.44-5.5-0.232c-1.932,0.219-3.812,0.876-5.476,1.879C448.119,165.016,446.617,166.39,445.367,167.947z"/>
	</g>
	<g id="POLYLINE_1639_">
		
			<path fill="none" stroke="#E74C3C" stroke-width="2.5" stroke-linecap="round" stroke-linejoin="round" stroke-miterlimit="10" d="
			M131.236,424.837c0.87-1.311,2.402-3.558,3.159-4.884c0.801-1.363,1.556-2.868,2.196-4.315c1.248-2.801,2.993-7.481,4.259-10.282
			c0.343-0.743,0.713-1.516,1.141-2.214c0.331-0.52,0.714-1.09,1.286-1.363c0.346-0.164,0.737-0.144,1.092-0.02
			c0.848,0.297,1.902,1.097,2.676,1.561c3.935,2.507,9.15,3.581,13.501,5.177c0.571,0.216,1.162,0.444,1.692,0.748
			c0.292,0.174,0.597,0.384,0.731,0.71c0.076,0.186,0.077,0.395,0.042,0.59c-0.056,0.305-0.178,0.596-0.308,0.876
			c-0.717,1.477-2.09,3.342-2.926,4.76c-1.057,1.728-1.976,3.88-2.787,5.745"/>
	</g>
	<g id="POLYLINE_1640_">
		
			<path fill="none" stroke="#E74C3C" stroke-width="2.5" stroke-linecap="round" stroke-linejoin="round" stroke-miterlimit="10" d="
			M141.086,429.412c2.962-1.348,6.173-2.811,8.994-4.42c1.486-0.823,3.467-2.086,5.052-2.652c1.214-0.435,2.616-0.643,3.831-0.106
			c0.721,0.317,1.267,0.917,1.574,1.636c0.686,1.642,0.41,3.488,0.078,5.182l-0.567,2.667c-0.148,0.749-0.289,1.523-0.316,2.286
			c-0.015,0.494,0.03,1,0.205,1.465c0.15,0.407,0.395,0.774,0.682,1.097c0.521,0.582,1.161,1.061,1.794,1.513
			c2.042,1.418,4.249,2.725,6.444,3.894c2.11,1.108,4.323,2.139,6.59,2.88c1.499,0.487,3.072,0.843,4.628,1.088
			c1.664,0.279,4.118,0.461,5.792,0.695c0.525,0.08,1.076,0.187,1.586,0.339c0.611,0.182,1.214,0.434,1.725,0.821
			c0.342,0.258,0.638,0.58,0.866,0.943c0.416,0.665,0.635,1.438,0.741,2.211c0.148,1.105,0.065,2.238-0.183,3.323
			c-0.197,0.856-0.513,1.698-1.008,2.428c-0.41,0.608-0.947,1.132-1.569,1.521c-0.794,0.504-1.71,0.784-2.628,0.96
			c-1.584,0.3-3.265,0.35-4.875,0.392c-2.5,0.016-38.575,0.064-40.054-0.013c-1.071-0.042-2.188-0.122-3.248-0.282
			c-1.617-0.234-3.234-0.659-4.793-1.145c-2.205-0.696-4.428-1.552-6.542-2.489c-2.633-1.191-5.272-2.523-7.543-4.329
			c-0.422-0.351-0.852-0.726-1.129-1.207c-0.273-0.464-0.335-1.016-0.307-1.545c0.043-0.859,0.233-1.715,0.455-2.544
			c0.43-1.577,1.037-3.163,1.658-4.674c1.2-2.876,2.642-5.904,4.037-8.692c0.793-1.52,1.646-3.251,2.542-4.706
			c0.663-1.061,1.373-2.175,2.459-2.846c0.748-0.45,1.66-0.697,2.53-0.539c0.354,0.067,0.722,0.238,0.896,0.57
			c0.114,0.21,0.152,0.452,0.159,0.688c0.01,0.596-0.133,1.196-0.276,1.772c-0.292,1.208-0.837,2.764-0.854,4.004
			c0.004,0.258,0.039,0.525,0.168,0.753c0.137,0.247,0.388,0.394,0.659,0.449c0.468,0.093,0.951,0.01,1.412-0.086
			c0.567-0.125,1.14-0.31,1.688-0.501C136.6,431.445,138.986,430.351,141.086,429.412z"/>
	</g>
	<g id="POLYLINE_1641_">
		
			<path fill="none" stroke="#E74C3C" stroke-width="2.5" stroke-linecap="round" stroke-linejoin="round" stroke-miterlimit="10" d="
			M162.205,409.226c11.543-14.501,21.88-30.306,30.944-46.463"/>
	</g>
	<g id="POLYLINE_1642_">
		
			<path fill="none" stroke="#E74C3C" stroke-width="2.5" stroke-linecap="round" stroke-linejoin="round" stroke-miterlimit="10" d="
			M167.008,351.88l-3.355,4.319c-1.674,2.206-3.286,4.557-4.676,6.951c-1.874,3.197-3.566,6.768-5.083,10.154
			c-3.269,7.462-6.468,15.458-8.921,23.228c-0.281,0.948-0.581,1.972-0.746,2.947c-0.124,0.677-0.153,1.511-0.239,2.193"/>
	</g>
	<g id="POLYLINE_1643_">
		
			<path fill="none" stroke="#E74C3C" stroke-width="2.5" stroke-linecap="round" stroke-linejoin="round" stroke-miterlimit="10" d="
			M174.302,309.142c3.181,1.776,6.355,3.914,9.308,6.048c2.734,1.984,5.652,4.202,8.204,6.409"/>
	</g>
	<g id="POLYLINE_1644_">
		
			<path fill="none" stroke="#E74C3C" stroke-width="2.5" stroke-linecap="round" stroke-linejoin="round" stroke-miterlimit="10" d="
			M135.78,339.498c7.667,1.23,23.265,3.563,30.909,4.568"/>
	</g>
	<g id="POLYLINE_1645_">
		
			<path fill="none" stroke="#E74C3C" stroke-width="2.5" stroke-linecap="round" stroke-linejoin="round" stroke-miterlimit="10" d="
			M167.147,349.353c0.268-0.616,0.539-1.262,0.7-1.915c0.076-0.316,0.131-0.643,0.116-0.969c-0.013-0.421-0.201-0.76-0.455-1.084
			c-0.23-0.3-0.544-0.66-0.698-1.011c-0.137-0.294-0.216-0.613-0.257-0.934c-0.11-0.907,0.053-1.829,0.321-2.694
			c0.497-1.576,1.386-3.006,2.409-4.293c1.991-2.481,4.423-4.62,6.895-6.609c3.179-2.505,6.596-4.899,10.129-6.877
			c1.678-0.911,3.583-1.683,5.526-1.364c1.791,0.287,3.379,1.281,4.807,2.354c1.55,1.188,2.957,2.594,4.216,4.086
			c1.237,1.483,2.372,3.091,3.242,4.818c0.915,1.807,1.513,3.791,1.632,5.818c0.155,2.433-0.348,4.866-1.1,7.17
			c-0.764,2.335-1.818,4.618-2.952,6.796c-1.098,2.073-2.29,4.187-3.641,6.105c-0.79,1.099-1.642,2.194-2.697,3.052
			c-0.497,0.398-1.057,0.741-1.684,0.886c-0.638,0.152-1.306,0.083-1.937-0.068c-0.632-0.136-1.361-0.419-1.978-0.627
			c-4.677-1.686-10.231-3.876-14.827-5.79c-2.26-0.981-4.667-1.923-6.728-3.285c-0.418-0.29-0.832-0.608-1.154-1.006
			c-0.176-0.22-0.319-0.475-0.363-0.756c-0.075-0.465,0.102-0.924,0.278-1.346L167.147,349.353z"/>
	</g>
	<g id="POLYLINE_1646_">
		
			<line fill="none" stroke="#E74C3C" stroke-width="2.5" stroke-linecap="round" stroke-linejoin="round" stroke-miterlimit="10" x1="172.159" y1="175.372" x2="172.296" y2="176.759"/>
	</g>
	<g id="POLYLINE_1647_">
		
			<path fill="none" stroke="#E74C3C" stroke-width="2.5" stroke-linecap="round" stroke-linejoin="round" stroke-miterlimit="10" d="
			M184.31,163.352c0.062,0.922,0.119,1.876-0.033,2.79c-0.112,0.703-0.347,1.388-0.683,2.015c-0.679,1.255-1.645,2.341-2.669,3.325
			c-1.232,1.162-2.597,2.214-4.079,3.038c-1.143,0.624-2.429,1.111-3.751,1.018c-0.785-0.052-1.544-0.331-2.217-0.731
			c-1.77-1.067-3.022-2.814-3.903-4.651c-1.148-2.421-2.087-5.595-3.236-8.016l-2.325-4.951c-1.094-2.41-2.058-4.928-2.557-7.534
			c-0.613-3.136-0.608-6.432,0.288-9.513c1.304-4.508,4.502-8.275,8.196-11.067c2.176-1.617,4.622-2.943,7.273-3.571
			c2.438-0.617,5.77-0.645,8.286-0.802c1.62-0.102,3.275-0.351,4.862-0.691c2.102-0.438,5.325-1.299,7.436-1.445
			c0.584-0.039,1.182-0.043,1.761,0.056c0.441,0.075,0.87,0.222,1.269,0.424c0.573,0.281,1.247,0.8,1.773,1.169
			c0.45,0.314,0.929,0.599,1.445,0.79c1.479,0.541,3.267,0.671,4.739,1.234c1.464,0.527,2.733,1.583,3.51,2.932
			c0.458,0.804,0.752,1.762,0.557,2.688c-0.13,0.615-0.459,1.171-0.859,1.648c-0.656,0.777-1.494,1.387-2.362,1.909"/>
	</g>
	<g id="POLYLINE_1648_">
		
			<path fill="none" stroke="#E74C3C" stroke-width="2.5" stroke-linecap="round" stroke-linejoin="round" stroke-miterlimit="10" d="
			M198.804,193.208c3.451-5.354,7.893-10.065,12.919-13.967"/>
	</g>
	<g id="POLYLINE_1649_">
		
			<path fill="none" stroke="#E74C3C" stroke-width="2.5" stroke-linecap="round" stroke-linejoin="round" stroke-miterlimit="10" d="
			M194.633,167.34c-1.473,0.761-3.11,1.575-4.814,1.287c-1.337-0.24-2.415-1.182-3.307-2.155c-1.088-1.214-1.968-2.618-2.709-4.066
			c-0.526-1.06-1.036-2.162-1.248-3.334c-0.127-0.722-0.104-1.496,0.223-2.164c0.38-0.782,1.099-1.341,1.852-1.744
			c0.751-0.395,1.581-0.652,2.425-0.741c0.608-0.062,1.233-0.035,1.822,0.134c0.811,0.232,1.504,0.752,2.126,1.305
			c0.386,0.344,1.054,0.997,1.47,1.293c0.298,0.218,0.636,0.4,1.008,0.446c0.796,0.1,1.549-0.289,2.217-0.676
			c0.293-0.177,0.593-0.391,0.736-0.714c0.119-0.263,0.097-0.562,0.034-0.837c-0.207-0.835-0.628-1.67-0.885-2.49
			c-0.254-0.78-0.433-1.609-0.335-2.432c0.137-1.085,0.715-2.052,1.291-2.959c0.415-0.661,1.07-1.547,1.346-2.271
			c0.063-0.171,0.113-0.351,0.122-0.534c0.016-0.261-0.081-0.519-0.241-0.723c-0.146-0.191-0.333-0.349-0.525-0.493
			c-0.815-0.581-1.767-1.045-2.557-1.663c-0.98-0.749-1.778-1.722-2.42-2.771c-0.499-0.834-0.929-1.735-1.113-2.695
			c-0.068-0.399-0.101-0.826,0.051-1.21c0.187-0.475,0.679-0.717,1.141-0.855c0.367-0.114,0.768-0.181,1.146-0.247
			c2.308-0.364,4.75-0.752,7.09-0.711c1.424,0.026,2.877,0.188,4.209,0.72c1.802,0.715,3.255,2.132,4.244,3.778
			c0.849,1.391,1.39,2.954,1.758,4.536c0.359,1.429,0.549,3.265,0.973,4.677c0.127,0.389,0.313,0.764,0.584,1.073
			c0.447,0.507,1.046,0.855,1.622,1.194c1.594,0.895,3.314,1.814,4.733,2.965c0.475,0.39,0.945,0.809,1.302,1.313
			c0.208,0.297,0.366,0.637,0.416,0.998c0.049,0.343-0.004,0.694-0.117,1.019c-0.22,0.637-0.66,1.218-1.269,1.525
			c-0.475,0.25-1.072,0.338-1.48,0.7c-0.398,0.373-0.413,0.996-0.324,1.5c0.087,0.508,0.331,0.972,0.633,1.383
			c0.294,0.421,0.677,0.873,0.679,1.413c0,0.689-0.385,1.344-0.388,2.033c-0.007,0.787,0.798,1.259,0.971,1.985
			c0.04,0.182,0.034,0.372,0.011,0.556c-0.062,0.457-0.222,0.957-0.272,1.416c-0.06,0.461-0.001,0.929,0.109,1.379
			c0.35,1.456,1.157,2.938,0.792,4.47c-0.2,0.907-0.737,1.709-1.401,2.345c-0.94,0.897-2.103,1.532-3.301,2.015
			c-5.209,2.052-11.264,1.297-16.191-1.196"/>
	</g>
	<g id="POLYLINE_1650_">
		
			<path fill="none" stroke="#E74C3C" stroke-width="2.5" stroke-linecap="round" stroke-linejoin="round" stroke-miterlimit="10" d="
			M202.13,232.404c5.109,4.296,10.485,8.488,16.368,11.672c3.655,2.014,7.793,3.677,11.694,5.175
			c3.873,1.493,10.124,3.726,13.781,5.568c1.947,0.956,3.872,2.109,5.686,3.3c2.454,1.644,6.201,4.229,8.676,5.684
			c1.906,1.14,3.981,2.229,5.983,3.195c7.452,3.658,18.766,7.842,25.742,12.238c1.402,0.913,2.771,1.943,3.812,3.266
			c0.649,0.817,1.154,1.748,1.519,2.724c0.714,1.948,1.103,4.183,2.01,6.058c0.509,1.089,1.184,2.113,2.055,2.946
			c1.026,0.983,2.289,1.691,3.588,2.248c1.998,0.846,4.14,1.364,6.278,1.703c1.506,0.223,3.052,0.415,4.576,0.322
			c0.612-0.046,1.239-0.135,1.798-0.402c0.3-0.145,0.577-0.357,0.75-0.647c0.176-0.293,0.234-0.642,0.235-0.98
			c-0.002-0.576-0.144-1.146-0.308-1.695c-0.403-1.372-2.791-6.839-3.361-8.265c-1.116-2.607-2.373-5.223-4.186-7.423
			c-1.507-1.838-3.347-3.4-5.281-4.772c-4.469-3.15-10.255-5.933-14.825-8.935c-4.499-2.803-9.861-7.679-13.933-11.113
			c-2.639-2.176-5.405-4.321-8.456-5.889c-2.917-1.52-6.559-2.582-9.693-3.603c-1.471-0.496-2.977-1.047-4.343-1.785
			c-1.384-0.742-2.679-1.696-3.902-2.679l-3.555-2.925c-3.681-2.995-8.554-5.487-12.612-7.957c-1.051-0.65-2.163-1.362-3.136-2.122
			c-0.723-0.563-1.417-1.194-2.046-1.86c-0.78-0.806-1.819-2.153-2.534-3.032"/>
	</g>
	<g id="POLYLINE_1651_">
		
			<path fill="none" stroke="#E74C3C" stroke-width="2.5" stroke-linecap="round" stroke-linejoin="round" stroke-miterlimit="10" d="
			M150.393,292.3c3.524-2.617,7.127-5.551,10.365-8.512c3.467-3.141,11.013-10.854,14.373-14.197
			c1.939-1.987,3.873-4.107,5.549-6.32c1.414-1.858,2.711-3.871,3.826-5.922c3.885-7.224,6.351-15.338,8.772-23.153"/>
	</g>
	<g id="POLYLINE_1652_">
		
			<path fill="none" stroke="#E74C3C" stroke-width="2.5" stroke-linecap="round" stroke-linejoin="round" stroke-miterlimit="10" d="
			M175.647,224.584c2.267,2.181,4.861,4.058,7.513,5.742c2.427,1.501,5,2.902,7.793,3.569c1.468,0.344,3.002,0.387,4.494,0.19
			c0.933-0.118,1.883-0.329,2.794-0.563c2.249-0.612,11.807-3.344,13.944-4.001c2.204-0.697,4.479-1.462,6.573-2.442
			c1.253-0.591,2.492-1.27,3.582-2.129c0.819-0.648,1.57-1.417,2.072-2.34c0.481-0.881,0.707-1.9,0.643-2.902
			c-0.06-1.001-0.416-1.977-1-2.791c-0.296-0.42-0.646-0.812-1.007-1.177c-1.183-1.177-2.977-2.595-4.173-3.757
			c-4.863-4.709-9.508-10.644-14.896-14.771c-1.649-1.289-4.799-3.657-6.38-4.992c-1.512-1.272-3.095-2.793-4.503-4.186
			c-3.341-3.225-6.961-7.352-11.104-9.537c-2.215-1.188-4.718-1.776-7.225-1.828c-2.052-0.048-4.127,0.203-6.09,0.808
			c-1.858,0.558-3.561,1.55-5.088,2.735c-2.486,1.971-5.132,4.42-7.651,6.35c-5.41,4.165-14.765,11.155-19.748,15.522
			c-2.876,2.489-5.773,5.286-8.381,8.055c-4.656,4.931-9.157,10.625-13.307,15.998c-7.975,10.379-16.402,21.745-23.359,32.805
			c-3.013,4.807-6.222,10.208-8.85,15.228c-1.13,2.202-2.347,4.564-3.237,6.873c-0.341,0.937-0.645,1.925-0.607,2.932
			c0.021,0.535,0.164,1.068,0.441,1.528c0.321,0.538,0.797,0.969,1.308,1.323c1.643,1.1,3.642,1.625,5.557,2.028
			c4.625,0.903,9.414,0.956,14.109,0.786c7.548-0.312,15.282-1.317,22.734-2.557c2.986-0.471,8.116-1.689,11.073-1.628
			c1.692,0.013,3.375,0.349,4.974,0.889c2.529,0.854,4.963,2.087,7.302,3.364c4.043,2.204,9.007,5.479,12.895,8.024
			c0.782,0.54,13.658,9.057,14.057,9.418c0.398,0.306,0.799,0.631,1.098,1.038c0.156,0.215,0.28,0.463,0.306,0.73
			c0.047,0.55-0.311,1.029-0.657,1.421c-1.101,1.198-3.553,2.807-4.858,3.816c-0.466,0.349-1.728,1.34-2.203,1.713
			c-2.538,2.058-10.422,8.552-12.902,10.4c-3.81,2.83-12.869,9.647-16.587,12.309c-1.312,0.929-2.749,1.923-4.123,2.752
			c-0.941,0.557-1.918,1.12-2.96,1.463c-0.447,0.142-0.926,0.232-1.393,0.15c-0.326-0.055-0.634-0.193-0.916-0.363
			c-1.363-0.859-4.35-3.657-5.625-4.714c-1.427-1.203-2.961-2.412-4.509-3.453c-1.702-1.149-3.604-2.234-5.413-3.21
			c-3.996-2.105-9.383-4.75-13.119-7.177c-2.907-1.864-5.7-3.975-8.23-6.328c-3.356-3.121-6.307-6.737-8.525-10.755
			c-1.55-2.82-2.755-5.868-3.335-9.04c-0.712-3.842-0.392-7.83,0.599-11.595"/>
	</g>
	<g id="POLYLINE_1653_">
		
			<path fill="none" stroke="#E74C3C" stroke-width="2.5" stroke-linecap="round" stroke-linejoin="round" stroke-miterlimit="10" d="
			M321.476,153.341c-7.868-3.03-16.942-1.83-23.752,3.142c-12.475,9.08-13.949,27.085-3.117,38.073
			c5.035,5.129,12.282,7.894,19.453,7.423c15.398-0.979,26.293-15.39,23.037-30.472
			C335.331,163.262,329.363,156.322,321.476,153.341z"/>
	</g>
</g>
<g id="_x32_D_x24_AG-OUTLINE">
	<g id="POLYLINE_13_">
		
			<path fill="none" stroke="#E74C3C" stroke-width="3.25" stroke-linecap="round" stroke-linejoin="round" stroke-miterlimit="10" d="
			M321.476,153.341c-8.167-3.142-17.562-1.733-24.449,3.666c-11.948,9.346-13.008,26.993-2.266,37.703
			c4.975,4.979,12.053,7.68,19.081,7.28c15.146-0.832,26.111-14.699,23.426-29.629C335.728,163.747,329.66,156.438,321.476,153.341z
			"/>
	</g>
	<g id="POLYLINE_12_">
		
			<path fill="none" stroke="#E74C3C" stroke-width="3.25" stroke-linecap="round" stroke-linejoin="round" stroke-miterlimit="10" d="
			M207.03,135.415c0.868-0.522,1.705-1.131,2.362-1.909c0.408-0.487,0.742-1.057,0.866-1.686c0.174-0.883-0.094-1.793-0.518-2.567
			c-0.771-1.389-2.063-2.478-3.557-3.016c-1.472-0.563-3.261-0.693-4.739-1.234c-0.516-0.19-0.995-0.476-1.445-0.79
			c-0.553-0.387-1.232-0.914-1.838-1.201c-0.4-0.195-0.83-0.335-1.27-0.403c-0.612-0.095-1.242-0.082-1.858-0.033
			c-2.021,0.161-5.263,1.011-7.273,1.433c-1.588,0.341-3.242,0.589-4.862,0.691c-2.536,0.157-5.842,0.187-8.286,0.802
			c-2.742,0.651-5.263,2.044-7.495,3.739c-3.596,2.777-6.695,6.476-7.973,10.899c-0.917,3.154-0.9,6.531-0.244,9.734
			c0.508,2.527,1.45,4.972,2.513,7.313l2.325,4.951c1.01,2.135,1.965,5.115,2.902,7.288c0.638,1.47,1.451,2.894,2.577,4.046
			c0.819,0.84,1.805,1.565,2.942,1.898l0.137,1.387c-2.183,0.219-4.363,0.78-6.29,1.849c-0.94,0.516-1.836,1.148-2.68,1.809
			c-2.375,1.918-4.966,4.287-7.387,6.145c-8.606,6.655-19.397,14.392-26.823,22.211c-4.281,4.391-8.443,9.46-12.23,14.294
			c-6.005,7.718-12.933,16.908-18.496,24.936c-6.275,9.121-12.429,18.818-17.392,28.717c-0.828,1.744-1.781,3.594-2.309,5.455
			c-0.218,0.813-0.347,1.684-0.137,2.511c0.155,0.627,0.526,1.184,0.998,1.62c-0.991,3.764-1.311,7.752-0.599,11.595
			c0.58,3.172,1.785,6.22,3.335,9.04c2.218,4.018,5.169,7.634,8.525,10.755c2.53,2.353,5.323,4.464,8.23,6.328
			c3.718,2.433,9.162,5.08,13.119,7.177c1.81,0.977,3.71,2.061,5.413,3.21c1.548,1.041,3.082,2.25,4.509,3.453
			c1.297,1.075,4.249,3.843,5.625,4.714c0.306,0.184,0.642,0.33,0.999,0.375c0.628,0.081,1.252-0.122,1.829-0.352
			c1.86-0.79,3.577-1.976,5.247-3.104c7.667,1.23,23.265,3.563,30.909,4.568c0.145,0.493,0.502,0.924,0.818,1.32
			c0.139,0.181,0.271,0.374,0.354,0.588c0.065,0.165,0.096,0.342,0.103,0.518c0.012,0.336-0.048,0.673-0.13,0.998
			c-0.203,0.791-0.561,1.57-0.886,2.319c-0.16,0.385-0.321,0.794-0.293,1.218c0.018,0.315,0.161,0.609,0.353,0.854l-3.355,4.319
			c-1.674,2.206-3.286,4.557-4.676,6.951c-1.874,3.197-3.566,6.768-5.083,10.154c-3.269,7.462-6.468,15.458-8.921,23.228
			c-0.281,0.948-0.581,1.972-0.746,2.947c-0.124,0.677-0.153,1.511-0.239,2.193c-0.23-0.028-0.467,0.003-0.68,0.095
			c-0.286,0.123-0.525,0.335-0.731,0.566c-0.321,0.364-0.581,0.787-0.821,1.208c-0.674,1.209-1.249,2.573-1.788,3.85
			c-1.2,2.92-2.956,7.56-4.365,10.339c-1.135,2.327-2.921,4.946-4.369,7.108c-0.366-0.28-0.854-0.334-1.302-0.321
			c-1.05,0.045-2.047,0.552-2.77,1.304c-0.51,0.52-0.934,1.132-1.327,1.744c-0.996,1.577-1.928,3.425-2.781,5.089
			c-1.396,2.789-2.836,5.816-4.037,8.692c-0.719,1.757-1.419,3.582-1.848,5.434c-0.15,0.678-0.274,1.378-0.27,2.075
			c0.002,0.483,0.115,0.974,0.388,1.378c0.368,0.55,0.902,0.966,1.417,1.371c2.192,1.651,4.683,2.918,7.179,4.041
			c3.287,1.432,6.703,2.729,10.225,3.444c1.798,0.357,3.66,0.476,5.49,0.5c5.499-0.068,36.998,0.191,41.764-0.144
			c1.089-0.093,2.199-0.231,3.243-0.568c0.728-0.235,1.424-0.591,2.009-1.087c1.157-0.961,1.782-2.408,2.058-3.858
			c0.194-1.004,0.246-2.045,0.1-3.06c-0.105-0.713-0.31-1.424-0.678-2.048c-0.253-0.429-0.598-0.804-1.005-1.092
			c-0.688-0.489-1.51-0.752-2.327-0.933c-1.063-0.25-3.506-0.45-4.622-0.581c-1.701-0.193-3.435-0.469-5.093-0.899
			c-2.273-0.582-4.472-1.499-6.578-2.524c-2.605-1.281-5.186-2.775-7.595-4.393c-0.734-0.504-1.485-1.03-2.108-1.67
			c-0.421-0.433-0.772-0.953-0.923-1.543c-0.118-0.442-0.133-0.906-0.108-1.361c0.038-0.702,0.174-1.419,0.308-2.109l0.567-2.667
			c0.328-1.673,0.599-3.489-0.051-5.118c-0.237-0.576-0.624-1.099-1.145-1.447c-0.706-0.478-1.589-0.62-2.428-0.56
			c0.628-1.431,1.413-3.284,2.156-4.636c0.608-1.162,1.842-3.008,2.563-4.133c0.402-0.645,0.825-1.318,1.119-2.02
			c0.088-0.217,0.166-0.444,0.196-0.677c0.029-0.214-0.001-0.44-0.114-0.627c-0.163-0.271-0.438-0.452-0.706-0.609
			c11.543-14.501,21.88-30.306,30.944-46.463c1.075-0.066,1.989-0.728,2.744-1.449c0.887-0.851,1.647-1.851,2.348-2.857
			c1.261-1.833,2.398-3.846,3.437-5.813c1.386-2.666,2.646-5.459,3.417-8.37c0.59-2.226,0.859-4.572,0.498-6.859
			c-0.622-4.012-3.009-7.505-5.69-10.453c-1.394-1.498-2.939-2.898-4.678-3.985c-1.046-0.644-2.187-1.193-3.411-1.376
			c-2.551-2.206-5.47-4.426-8.204-6.409c-2.954-2.135-6.127-4.271-9.308-6.048c0.041-0.345-0.103-0.683-0.304-0.957
			c-0.212-0.291-0.481-0.539-0.757-0.769c-0.511-0.422-1.139-0.839-1.688-1.214c-5.423-3.588-15.721-10.584-21.159-13.903
			c3.524-2.617,7.127-5.551,10.365-8.512c3.467-3.141,11.013-10.854,14.373-14.197c1.939-1.987,3.873-4.107,5.549-6.32
			c1.414-1.858,2.711-3.871,3.826-5.922c3.885-7.224,6.351-15.338,8.772-23.153c2.987,0.1,6.012-0.978,8.852-1.794
			c5.109,4.296,10.485,8.488,16.368,11.672c3.655,2.014,7.793,3.677,11.694,5.175c3.873,1.493,10.124,3.726,13.781,5.568
			c1.947,0.956,3.872,2.109,5.686,3.3c2.454,1.644,6.201,4.229,8.676,5.684c1.906,1.14,3.981,2.229,5.983,3.195
			c7.452,3.658,18.766,7.842,25.742,12.238c1.402,0.913,2.771,1.943,3.812,3.266c0.649,0.817,1.154,1.748,1.519,2.724
			c0.714,1.948,1.103,4.183,2.01,6.058c0.509,1.089,1.184,2.113,2.055,2.946c1.026,0.983,2.289,1.691,3.588,2.248
			c1.998,0.846,4.14,1.364,6.278,1.703c1.506,0.223,3.052,0.415,4.576,0.322c0.612-0.046,1.239-0.135,1.798-0.402
			c0.3-0.145,0.577-0.357,0.75-0.647c0.176-0.293,0.234-0.642,0.235-0.98c-0.002-0.576-0.144-1.146-0.308-1.695
			c-0.403-1.372-2.791-6.839-3.361-8.265c-1.116-2.607-2.373-5.223-4.186-7.423c-1.507-1.838-3.347-3.4-5.281-4.772
			c-4.469-3.15-10.255-5.933-14.825-8.935c-4.499-2.803-9.861-7.679-13.933-11.113c-2.639-2.176-5.405-4.321-8.456-5.889
			c-2.917-1.52-6.559-2.582-9.693-3.603c-1.471-0.496-2.977-1.047-4.343-1.785c-1.384-0.742-2.679-1.696-3.902-2.679l-3.555-2.925
			c-3.681-2.995-8.554-5.487-12.612-7.957c-1.051-0.65-2.163-1.362-3.136-2.122c-0.723-0.563-1.417-1.194-2.046-1.86
			c-0.78-0.806-1.819-2.153-2.534-3.032c0.798-1.589,0.73-3.571-0.19-5.094c-0.309-0.522-0.703-0.995-1.122-1.432
			c-1.361-1.383-3.293-2.867-4.664-4.238c-3.428-3.359-7.381-8.015-10.876-11.289c-2.629-2.505-6.006-4.902-8.856-7.16
			c3.451-5.354,7.893-10.065,12.919-13.967c2.054-0.361,4.103-1.041,5.815-2.257c0.949-0.683,1.798-1.595,2.148-2.732
			c0.129-0.416,0.186-0.856,0.169-1.29c-0.017-0.475-0.125-0.947-0.253-1.403c-0.229-0.813-0.585-1.687-0.717-2.521
			c-0.06-0.365-0.057-0.74,0.004-1.104c0.064-0.433,0.22-0.914,0.26-1.35c0.017-0.2,0.006-0.406-0.064-0.596
			c-0.134-0.366-0.433-0.689-0.642-1.013c-0.11-0.168-0.207-0.35-0.254-0.546c-0.115-0.51,0.107-1.056,0.231-1.546
			c0.08-0.308,0.157-0.631,0.108-0.95c-0.101-0.588-0.571-1.042-0.87-1.536c-0.368-0.579-0.572-1.322-0.422-2.002
			c0.058-0.253,0.192-0.492,0.403-0.647c0.509-0.37,1.186-0.431,1.693-0.809c0.572-0.416,0.957-1.073,1.079-1.766
			c0.051-0.305,0.031-0.623-0.063-0.917c-0.099-0.316-0.275-0.604-0.48-0.862c-0.41-0.512-0.921-0.943-1.438-1.344
			c-1.346-1.042-2.974-1.919-4.46-2.75c-0.568-0.334-1.157-0.677-1.602-1.171c-0.22-0.246-0.389-0.535-0.511-0.841
			c-0.099-0.246-0.174-0.507-0.238-0.763c-0.308-1.323-0.547-3.075-0.881-4.39C210.137,139.624,209.015,137.129,207.03,135.415z"/>
	</g>
	<g id="POLYLINE_11_">
		
			<path fill="none" stroke="#E74C3C" stroke-width="3.25" stroke-linecap="round" stroke-linejoin="round" stroke-miterlimit="10" d="
			M502.545,131.477c0.755-0.015,1.53-0.068,2.247-0.322c0.312-0.114,0.612-0.275,0.855-0.504c0.216-0.201,0.38-0.455,0.481-0.732
			c0.12-0.326,0.156-0.677,0.153-1.022c-0.03-1.33-0.49-2.777-0.664-4.091c-0.076-0.526-0.1-1.066-0.069-1.597
			c0.055-0.946,0.233-2.02,0.122-2.965c-0.16-1.403-0.729-2.732-1.351-3.987c-0.78-1.523-1.715-2.994-2.921-4.216l-1.145-1.153
			c-1.471-1.528-2.79-3.488-4.716-4.482c-0.769-0.392-1.623-0.602-2.468-0.756l-2.204-0.367c-1.135-0.193-2.253-0.555-3.319-0.988
			c-1.525-0.591-3.133-1.359-4.77-1.53c-0.995-0.116-1.998,0.084-2.932,0.424c-1.654,0.6-3.294,1.584-4.975,2.114
			c-0.687,0.22-1.416,0.37-2.128,0.488c-1.71,0.286-3.629,0.437-5.231,1.132c-2.228,0.931-3.653,3.058-4.647,5.17
			c-0.789,1.717-1.348,3.553-1.598,5.428c-0.216,1.498-0.076,3.13-0.034,4.638c0.022,0.798-0.074,1.602-0.267,2.376
			c-0.261,1.083-0.668,2.374-0.762,3.487c-0.126,1.252-0.07,2.53,0.077,3.777c-0.648,1.158-0.958,2.481-1.067,3.796
			c-3.46-1.021-7.102-1.437-10.703-1.204c-3.193,0.191-6.383,0.866-9.328,2.128c-3.921,1.648-7.294,4.387-10.133,7.52
			c-4.192,4.655-7.454,10.183-9.541,16.087c-1.725,4.895-2.611,10.113-3.259,15.25c-1.701,14.81-3.166,31.886-7.208,46.173
			c-0.649,2.229-1.416,4.49-2.372,6.605c-0.768,1.764-2.097,4.202-2.68,6.027c-0.227,0.719-0.384,1.473-0.381,2.229
			c-0.008,1.276,0.497,2.494,1.157,3.566c-2.327,2.621-4.302,5.593-5.871,8.724c-1.188,2.392-2.168,4.924-2.748,7.534
			c-0.652,2.869-0.675,5.858-0.428,8.779c0.209,2.408,0.611,5.581,0.755,7.979c0.188,3.023,0.217,6.136-0.047,9.155
			c-0.097,1.088-0.243,2.222-0.445,3.296c-0.187,1.047-0.622,2.702-0.876,3.746c-0.333,1.396-0.633,2.854-0.434,4.293
			c0.335,2.265,1.668,4.249,3.161,5.93c0.083,1.421,0.308,2.849,0.653,4.23c-0.192,4.621,0.247,10.471-0.007,15.086
			c-0.118,2.45-0.459,4.918-0.998,7.31c-1.33,6.199-4.485,12.948-6.006,19.098c-0.204,0.913-0.383,1.855-0.383,2.794
			c0.002,0.622,0.107,1.259,0.41,1.809c-2.077,4.145-4.011,8.486-5.043,13.02c-1.78,7.334-0.86,16.578-0.68,24.094
			c0.055,2.276,0.007,4.668-0.191,6.935c-0.185,2.4-0.786,6.277-1.13,8.696c-0.238,0.004-0.478,0.068-0.673,0.208
			c-0.371,0.27-0.578,0.703-0.743,1.119c-0.237,0.625-0.377,1.297-0.497,1.954c-0.189,0.982-0.658,5.004-0.799,6.058
			c0,0-0.89,6.215-0.89,6.215c-0.195,1.507-0.364,3.142-0.443,4.661c-1.61,2.567-2.317,5.827-3.264,8.68
			c-0.837,2.63-2.107,5.142-3.489,7.525c-1.217,2.124-3.395,5.42-4.198,7.702c-0.708,1.904-1.017,3.949-1.081,5.974
			c-0.031,1.329,0.028,2.685,0.348,3.98c0.175,0.682,0.432,1.372,0.915,1.898c0.526,0.584,1.296,0.862,2.055,0.985
			c0.603,0.102,1.238,0.131,1.849,0.147c0.793,0.005,23.334,0.045,23.851-0.02c0.569-0.037,1.155-0.109,1.676-0.354
			c0.347-0.163,0.656-0.408,0.898-0.705c0.342-0.417,0.56-0.923,0.708-1.438c0.225-0.791,0.301-1.624,0.328-2.444
			c0.083-3.925-0.866-9.572-1.327-13.509c-0.382-3.01-0.342-6.362-0.901-9.347c-0.309-1.665-0.841-3.303-1.607-4.815
			c0.934-4.015,1.892-10.511,2.628-14.622c0.135-0.722,0.699-3.42,0.779-4.098c0.048-0.384,0.088-0.78,0.043-1.166
			c-0.032-0.286-0.135-0.579-0.364-0.765c1.372-4.071,2.94-8.745,4.695-12.633c2.055-4.589,5.671-11.498,7.485-16.146
			c2.562-6.384,4.047-13.204,5.018-19.999c0.379-0.281,0.661-0.674,0.867-1.094c0.328-0.675,0.493-1.421,0.61-2.158
			c0.322-2.147,0.269-4.814,0.494-6.974c0.238-2.44,0.722-4.888,1.652-7.164c0.65-1.627,1.599-3.13,2.647-4.528
			c1.549-2.04,3.457-4.445,4.585-6.74c1.933-3.875,3.09-8.124,3.702-12.401c1.691-1.358,3.376-2.812,4.791-4.458
			c0.984-1.134,1.84-2.397,2.564-3.711c1.598-2.807,2.845-6.255,5.104-8.617c0.739-0.761,1.609-1.438,2.626-1.776
			c0.577-0.193,1.199-0.25,1.802-0.161c0.92,0.132,1.775,0.547,2.559,1.03c2.131,1.36,3.994,3.173,5.803,4.926
			c1.645,1.624,3.45,3.549,4.996,5.272c0.212,0.231,0.446,0.475,0.685,0.678c0.766,0.679,1.797,0.852,2.785,0.93
			c2.344,0.148,4.726-0.182,6.969-0.867c10.008,6.184,24.084,14.648,34.229,20.497c-0.199,0.345-0.388,0.725-0.388,1.132
			c0,0.257,0.098,0.505,0.238,0.718c0.126,0.195,0.282,0.374,0.439,0.544c0.472,0.508,1.031,1.013,1.552,1.473
			c6.109,5.29,13.837,9.822,20.794,13.953c0.977,0.604,1.959,1.252,2.741,2.101c0.552,0.593,0.982,1.296,1.274,2.051
			c0.503,1.264,0.783,2.886,1.115,4.207c0.132,0.516,0.282,1.043,0.501,1.53c0.17,0.376,0.393,0.736,0.695,1.02
			c0.296,0.282,0.664,0.483,1.051,0.613c0.591,4.475,1.287,9.068,2.887,13.306c1.072,2.921,2.526,5.746,4.053,8.453
			c3.648,6.54,9.558,14.82,13.123,21.411l3.417,6.532c-0.208,0.233-0.362,0.517-0.426,0.824c-0.07,0.32-0.041,0.655,0.03,0.973
			c0.093,0.413,0.254,0.813,0.431,1.197c0.55,1.196,1.878,3.275,2.552,4.433c2.879,4.913,4.632,10.635,6.337,16.049
			c-0.387,0.099-0.711,0.358-0.969,0.655c-0.468,0.548-0.764,1.222-1.002,1.896c-0.425,1.238-0.654,2.55-0.825,3.845
			c-0.288,2.277-0.407,4.761-0.487,7.059c-0.06,2.075-0.091,4.449-0.051,6.522c0.026,1.047,0.069,2.159,0.206,3.197
			c0.095,0.684,0.223,1.381,0.497,2.018c0.221,0.523,0.594,0.993,1.101,1.262c0.665,0.358,1.443,0.401,2.183,0.415
			c6.084,0.006,50.173-0.006,57.341-0.006c0.789-0.017,1.617-0.036,2.396-0.161c0.432-0.071,0.866-0.176,1.262-0.368
			c0.569-0.267,0.992-0.738,1.244-1.311c0.421-0.954,0.504-2.023,0.476-3.054c-0.059-1.466-0.369-2.946-1.052-4.253
			c-0.55-1.055-1.374-1.968-2.377-2.611c-0.931-0.606-2.005-0.967-3.061-1.287l-3.782-1.086c-5.541-1.704-11.333-3.892-16.686-6.129
			c-0.942-0.418-1.889-0.879-2.756-1.439c-1.036-0.662-1.961-1.496-2.757-2.431c-2.481-2.962-4.501-7.123-6.681-10.309
			c-0.487-0.699-1.014-1.393-1.64-1.973c-0.371-0.341-0.787-0.647-1.257-0.836c-0.607-0.253-1.287-0.251-1.922-0.115
			c-1.156,0.236-2.202,0.878-3.028,1.71c-0.647-2.504-1.647-6.3-2.396-8.747c-0.623-2.033-2.536-7.952-3.02-9.911
			c-0.096-0.342-0.198-0.699-0.347-1.022c-0.105-0.227-0.239-0.448-0.429-0.615c-0.45-0.404-1.108-0.335-1.659-0.229
			c-0.964-5.476-2.348-11.401-3.686-16.801c-1.515-5.964-3.222-12.338-5.284-18.125c-0.89-2.48-1.922-4.96-3.104-7.315
			c-1.413-2.872-3.478-6.174-5.168-8.915c0.272-0.54,0.42-1.148,0.382-1.754c-0.03-0.545-0.214-1.07-0.461-1.553
			c-0.688-1.3-1.744-2.525-2.474-3.8c-0.747-1.242-1.255-2.624-1.673-4.007c-1.247-4.042-1.894-8.793-4.456-12.271
			c-1.89-2.58-4.734-4.421-6.96-6.679c-0.952-0.957-1.74-2.079-2.437-3.231c-0.655-1.058-1.453-2.599-2.281-3.514
			c-0.222-0.243-0.472-0.467-0.759-0.632c-0.287-0.166-0.61-0.267-0.938-0.307c-1.893-3.738-4.136-7.402-6.487-10.867
			c-2.781-4.128-5.946-8.078-9.439-11.627c0.192-0.301,0.335-0.649,0.327-1.012c-0.006-0.354-0.151-0.689-0.325-0.992
			c-0.225-0.386-0.511-0.742-0.8-1.082c-0.064-0.078-0.244-0.278-0.313-0.356c0,0-6.032-6.608-6.032-6.608
			c-4.407-4.937-10.83-10.829-15.712-15.382c-1.913-1.881-3.945-3.788-5.444-6.024c-0.782-1.161-1.226-2.571-2.045-3.708
			c-0.678-0.921-1.588-1.65-2.53-2.286c-1.334-0.882-2.801-1.596-4.338-2.043c-0.056-1.898-1.101-3.973-1.75-5.735
			c-0.503-1.312-0.934-2.677-1.089-4.078c-0.263-2.25,0.015-4.54,0.388-6.763c0.282-1.568,0.901-4.779,1.102-6.314
			c0.294-1.994,0.744-6.834,0.96-8.898l0.179-1.481c3.594,6.685,8.135,12.928,13.058,18.693c3.597,4.251,9.449,9.857,12.744,14.325
			c1.282,1.754,2.4,3.686,2.883,5.823c0.685,2.813,0.317,6.083,0.37,8.955c0.037,2.961,0.39,5.995,1.628,8.714
			c1.588,3.468,4.373,6.483,7.898,8.015c1.504,0.646,3.122,1.024,4.751,1.166c1.326,0.109,2.684,0.079,3.991-0.185
			c0.55,0.636,1.174,1.222,1.89,1.667c1.178,0.721,2.528,1.187,3.903,1.324c0.816,0.07,1.684,0.005,2.407-0.411
			c0.666-0.383,1.138-1.025,1.48-1.699c0.892-1.829,1.206-3.988,1.562-5.979c0.709-4.483,1.156-9.099,0.673-13.628
			c-0.209-1.912-0.678-3.809-1.493-5.556c-1-2.224-2.644-4.449-3.78-6.603c-1.596-3.038-2.836-7.068-4.073-10.278
			c-1.741-4.405-4.323-9.516-5.812-14.008c-1.638-4.638-3.382-12.93-4.572-17.751c-0.961-3.703-1.932-7.523-3.749-10.912
			c-0.949-1.763-2.336-3.438-3.587-5.001c-0.728-0.929-1.424-1.914-1.893-3.003c-0.766-1.747-1.116-4.188-1.514-6.055
			c-0.048-0.226-0.152-0.68-0.206-0.905c0.836-4.69,1.118-9.531,1.032-14.29c-0.071-2.951-0.32-5.946-0.901-8.842
			c-0.548-2.703-1.397-5.374-2.548-7.881c-1.128-2.41-2.515-4.785-4.51-6.582c-1.745-1.568-3.961-2.592-6.276-2.952
			C501.92,140.908,502.629,136.182,502.545,131.477z"/>
	</g>
	<g id="POLYLINE_10_">
		
			<path fill="none" stroke="#E74C3C" stroke-width="3.25" stroke-linecap="round" stroke-linejoin="round" stroke-miterlimit="10" d="
			M612.064,182.774c-0.914-8.852-6.571-16.668-14.692-20.304c-9.216-4.173-20.167-2.354-27.539,4.573
			c-7.363,6.875-9.901,17.562-6.438,27.019c2.59,7.145,8.442,12.837,15.656,15.227c7.826,2.642,16.651,1.192,23.208-3.834
			c1.429-1.089,2.746-2.339,3.908-3.709c0.681-0.787,1.283-1.655,1.895-2.496c2.158-3.275,3.528-7.069,3.958-10.967
			c0.116-1.042,0.167-2.109,0.15-3.158C612.158,184.349,612.097,183.549,612.064,182.774z"/>
	</g>
	<g id="POLYLINE_9_">
		
			<path fill="none" stroke="#E74C3C" stroke-width="3.25" stroke-linecap="round" stroke-linejoin="round" stroke-miterlimit="10" d="
			M809.214,106.348c-1.302-0.553-2.707-0.862-4.116-0.952c-1.593-0.101-3.204,0.076-4.769,0.371
			c-3.493,0.685-6.892,1.945-10.044,3.592c-1.219,0.645-2.428,1.385-3.535,2.209c-1.183,0.854-2.842,2.344-4.017,3.214
			c-0.591,0.434-1.223,0.835-1.898,1.125c-0.838,0.364-1.744,0.587-2.637,0.769l-2.472,0.47c-2.137,0.424-4.437,1.292-6.583,1.671
			c-1.532,0.286-3.115,0.341-4.655,0.088c-3.726-0.598-7.401-2.234-11.196-2.43c-2.024-0.114-4.051,0.262-6.005,0.763
			c-2.79,0.722-6.127,1.896-8.989,2.23c-2.55,0.323-5.559,0.063-8.13-0.056c-1.499-0.055-3.046-0.081-4.519,0.234
			c-1.265,0.269-2.467,0.809-3.608,1.406l-2.33,1.25c-1.055,0.558-2.198,1.04-3.324,1.437c-3.242,1.176-7.163,2.086-9.511,4.787
			c-1.369,1.537-2.227,3.62-1.979,5.697c0.14,1.205,0.605,2.356,1.222,3.394c0.701,1.173,1.601,2.227,2.622,3.133
			c-0.122,0.451-0.151,0.928-0.084,1.391c0.087,0.61,0.328,1.189,0.631,1.722c0.673,1.164,1.631,2.149,2.687,2.972
			c1.407,1.089,3.052,1.892,4.8,2.242c4.402,0.87,8.846-0.697,12.779-2.581c1.807-0.85,5.049-2.568,6.874-3.245
			c0.71-0.272,1.447-0.516,2.194-0.665c0.737-0.149,1.504-0.189,2.246-0.048c1.005,0.183,1.927,0.672,2.772,1.229
			c1.199,0.8,3.481,2.59,4.659,3.424c2.425,1.756,5.045,3.496,7.638,4.997c2.38,1.376,4.888,2.643,7.432,3.688
			c3.293,1.36,6.968,2.479,10.391,3.488c-2.035,7.77-4.421,16.819-6.96,24.405c-1.362,4.232-3.663,9.427-5.099,13.646
			c-0.638,1.903-1.176,3.89-1.576,5.857c-0.764,3.605-1.761,11.818-2.308,15.554c-0.657,4.304-1.517,8.681-3.1,12.749
			c-0.713,1.918-1.962,4.747-2.432,6.708c-0.123,0.529-0.215,1.075-0.214,1.619c0.001,0.448,0.069,0.903,0.246,1.316
			c0.189,0.447,0.497,0.837,0.852,1.164c0.415,0.383,0.898,0.695,1.388,0.972c1.653,0.916,4.116,1.804,5.848,2.582
			c-1.352,2.549-2.965,5.04-4.692,7.352c-1.114,1.467-2.302,2.932-3.675,4.165l-1.378,1.209c-0.46,0.415-0.9,0.866-1.263,1.37
			c-0.44,0.608-0.786,1.285-1.083,1.973c-1.342,3.254-1.886,6.836-2.277,10.317c-0.358,3.826-0.509,7.763,0.266,11.548
			c0.448,2.159,1.327,4.227,2.285,6.204c-1.843,6.553-2.189,13.47-1.783,20.239c0.547,8.36,2.188,16.759,5.428,24.507
			c-0.325,1.015-0.385,2.098-0.334,3.157c0.087,1.696,0.449,3.411,0.82,5.066c1.367,5.71,4.095,16.796,5.053,22.449
			c0.284,1.359,0.61,2.767,1.083,4.073c0.384,1.056,0.875,2.092,1.566,2.984c0.563,0.732,1.269,1.356,2.068,1.818
			c2.592,5.648,8.483,14.645,11.751,20.053c0.533,0.845,1.125,1.756,1.74,2.542l0.019,0.866c0.017,0.578,0.086,1.163,0.273,1.713
			c0.376,1.086,1.069,2.046,1.723,2.98c1.849,2.477,4.151,5.599,5.714,8.23c3.96,6.519,8.847,16.01,13.004,22.372
			c-0.495,3.993-0.438,8.945-0.98,12.933c-0.274,2.585-0.941,5.844-0.801,8.427c0.05,0.854,0.19,1.723,0.563,2.5
			c0.229,0.477,0.556,0.911,0.966,1.247c0.424,0.352,0.929,0.594,1.449,0.765c0.932,0.305,1.926,0.423,2.9,0.499
			c1.03,0.083,2.31,0.091,3.352,0.101c1.689-0.02,14.743,0.06,16.099-0.066c0.795-0.057,1.608-0.144,2.366-0.402
			c0.51-0.174,0.997-0.448,1.353-0.858c0.4-0.454,0.632-1.034,0.758-1.62c0.203-0.962,0.167-1.964,0.068-2.937
			c-0.239-2.258-0.892-4.468-1.826-6.534c-0.5-1.119-1.122-2.236-1.741-3.294c-1.523-2.52-3.401-5.609-4.594-8.281
			c-0.975-2.143-2.448-5.889-3.673-7.851c-0.465-0.753-1.016-1.465-1.678-2.055c-2.275-3.376-4.229-7.043-5.882-10.761
			c-1.712-3.856-3.198-7.889-4.092-12.017c-0.492-2.237-0.743-4.572-0.861-6.859c-0.111-1.811-0.11-4.451-0.338-6.241
			c-0.071-0.498-0.166-1.007-0.395-1.46c-0.21-0.437-0.589-0.81-0.875-1.196c0.048-0.959-0.068-1.935-0.218-2.881
			c-0.272-1.652-0.717-3.332-1.193-4.937c-1.69-5.501-3.782-10.978-6.486-16.063c-0.311-2.175-1.276-4.201-2.386-6.075l-1.69-2.804
			c-0.778-1.329-1.528-2.718-1.93-4.213c-0.502-1.859-0.461-3.82-0.299-5.724l0.351-3.548c0.144-1.739,0.219-3.541-0.275-5.234
			c2.934-6.123,5.133-13.339,7.386-19.75c0.298-0.911,0.597-1.9,0.813-2.832c0.849-0.066,1.703-0.001,2.515-0.321
			c0.38-0.141,0.742-0.34,1.083-0.559c1.125-0.724,2.66-2.064,3.716-2.911c0.489-0.383,1.024-0.81,1.546-1.141
			c0.299-0.189,0.611-0.372,0.946-0.49c0.198-0.069,0.413-0.113,0.623-0.077c0.239,0.039,0.442,0.188,0.602,0.363
			c0.421,0.479,0.769,1.182,1.126,1.711c0.557,0.851,1.232,1.651,1.915,2.404c1.314,1.429,2.756,2.775,4.283,3.975
			c0.85,0.65,1.735,1.306,2.719,1.741c0.339,0.144,0.703,0.25,1.075,0.247c0.305-0.001,0.606-0.082,0.881-0.212
			c8.18,10.423,16.202,21.76,23.432,32.869c-0.429,1.42-0.112,2.946,0.411,4.298c0.521,1.328,1.272,2.567,2.119,3.711
			c1.096,1.509,3.085,3.506,4.366,4.889c1.01,1.11,2.01,2.284,2.683,3.635c0.661,1.3,1.019,2.985,1.404,4.39
			c0.2,0.706,0.43,1.42,0.801,2.056c0.242,0.415,0.548,0.793,0.896,1.123c0.017,1.863,0.013,3.918,0.206,5.766
			c0.153,1.522,0.447,3.059,0.873,4.528c0.766,2.644,1.963,5.208,3.195,7.665c2.142,4.22,4.827,8.665,7.341,12.686
			c-0.194,0.562-0.303,1.155-0.315,1.75c-0.018,0.785,0.126,1.569,0.347,2.32c0.224,0.761,0.541,1.532,0.86,2.26
			c2.103,4.556,5.251,10.836,7.363,15.382c-0.879,3.149-1.405,6.428-1.481,9.698c-0.042,2.279,0.099,4.6,0.655,6.817
			c0.253,0.984,0.608,1.952,1.109,2.837c0.437,0.778,0.994,1.491,1.618,2.128c1.436,1.464,3.169,2.664,5.09,3.396
			c1.163,0.448,2.404,0.692,3.645,0.791c1.503,0.122,3.058,0.064,4.562-0.018c4.143-0.234,9.215-0.849,13.317-0.234
			c2.068,0.314,4.055,1.062,5.931,1.967c2.707,1.293,5.912,3.021,8.767,3.894c1.495,0.481,3.06,0.785,4.621,0.947
			c1.793,0.21,3.879,0.203,5.692,0.213c1.16-0.008,2.784,0.007,3.931-0.089c1.066-0.084,2.149-0.247,3.134-0.681
			c1.289-0.554,2.321-1.564,3.139-2.685c0.762-1.034,1.391-2.184,1.759-3.418c0.371-1.225,0.457-2.534,0.248-3.796
			c-0.278-1.729-1.055-3.361-2.144-4.727c-0.9-1.132-2.021-2.082-3.204-2.908c-1.566-1.086-3.279-1.98-5.029-2.73
			c-6.684-2.913-14.898-3.358-22.007-4.667c-1.158-0.225-2.355-0.474-3.442-0.944c-0.668-0.288-1.288-0.692-1.811-1.198
			c-1.177-1.132-2.173-2.853-3.085-4.201c-0.523-0.767-1.043-1.586-1.767-2.182c-0.448-0.37-1.001-0.62-1.582-0.67
			c-0.688-0.064-1.377,0.108-2.014,0.358c-0.416-2.501-1.375-5.729-1.916-8.211c-0.541-2.364-0.864-4.855-1.079-7.271
			c-0.09-1.038-0.396-5.554-0.537-6.491c-0.07-0.51-0.165-1.029-0.316-1.521c-0.277-0.949-0.828-1.808-1.556-2.474
			c-0.384-3.207-1.199-7.454-1.746-10.656c-0.935-5.231-2.079-10.765-3.545-15.864c0.776-2.58-0.312-5.227-1.38-7.558l-3.903-8.063
			c-1.028-2.195-2.094-4.589-2.914-6.863c-0.722-1.988-1.333-4.146-1.839-6.202c-0.334-1.318-0.9-4.036-1.247-5.36
			c-0.068-0.238-0.147-0.481-0.251-0.706c-0.157-0.347-0.399-0.669-0.743-0.846c-0.147-2.384-0.312-4.981-0.694-7.328
			c-0.794-4.895-2.148-9.807-3.572-14.553c-1.72-5.621-3.748-11.299-6.165-16.66c-2.385-5.317-5.294-10.566-8.377-15.512
			c0.409-0.435,0.769-0.934,0.958-1.505c0.193-0.566,0.202-1.181,0.101-1.767c-0.231-1.225-0.754-2.45-1.221-3.604
			c-1.885-4.312-4.141-8.641-6.576-12.667c0.67-0.56,1.238-1.262,1.573-2.073c0.326-0.781,0.424-1.663,0.232-2.49
			c-0.207-0.912-0.767-1.694-1.328-2.424c-0.517-0.643-1.166-1.486-1.606-2.161c-0.503-0.778-0.952-1.627-1.351-2.463
			c-0.968-2.029-1.776-4.294-2.519-6.419c-1.203-3.523-2.456-7.332-3.37-10.937c-0.894-3.588-1.624-7.296-1.546-11.008
			c0.048-2.202,0.417-4.401,1.078-6.501c0.684-2.186,1.67-4.299,2.763-6.308c4.147-7.559,11.818-17.398,16.497-24.664
			c1.993-3.065,3.969-6.295,5.521-9.607c0.908-1.956,1.708-4.008,2.153-6.123c0.366-1.7,0.441-3.472,0.149-5.189
			c-0.428-2.765-1.766-5.502-2.654-8.135c-1.016-2.992-1.846-6.66-2.867-9.649c-1.041-3.07-2.413-6.141-3.803-9.068
			c0.975-0.947,1.944-1.945,2.739-3.052c0.397-0.568,0.776-1.177,0.948-1.855c0.073-0.306,0.097-0.64-0.026-0.936
			c1.637-1.908,3.094-4.012,4.148-6.3c1.091-2.306,1.872-5.528,2.624-7.976c0.81-2.596,2.013-5.413,2.383-8.117
			c1.461-1.658,2.614-3.613,3.232-5.742c0.602-2.113,0.813-4.384,0.375-6.549c-0.117-0.555-0.294-1.102-0.528-1.62
			c-0.364-0.841-1.057-1.872-1.536-2.66c-0.638-1.007-1.035-2.268-1.568-3.33c-0.275-0.54-0.611-1.054-1.021-1.501
			c-0.567-0.617-1.252-1.122-1.957-1.569c-2.227-1.383-4.773-2.335-7.207-3.292c-1.977-0.757-4.031-1.442-6.105-1.875
			c-2.777-0.58-5.655-0.792-8.485-0.569c-2.934,0.251-5.98,0.988-8.288,2.907c-2.601,2.177-4.058,5.37-5.256,8.471
			c-1.251,3.279-2.359,6.689-2.759,10.189c-0.586,0.101-1.133,0.377-1.598,0.743c-0.842,0.658-1.397,1.613-1.763,2.604
			c-0.539,1.477-0.734,3.074-0.684,4.641c-1.53-1.294-3.307-2.289-5.134-3.099c-0.914-0.396-1.862-0.754-2.832-0.984
			C810.893,106.494,810.04,106.412,809.214,106.348z"/>
	</g>
	<g id="POLYLINE_8_">
		
			<path fill="none" stroke="#E74C3C" stroke-width="3.25" stroke-linecap="round" stroke-linejoin="round" stroke-miterlimit="10" d="
			M758.235,63.675c0.021-7.82-3.717-15.347-9.961-20.055c-12.157-9.186-29.56-5.604-37.101,7.636
			c-3.797,6.645-4.323,14.865-1.407,21.941c6.248,15.156,24.912,20.43,38.168,10.787C754.376,79.294,758.257,71.642,758.235,63.675z
			"/>
	</g>
</g>
</svg>
