<?xml version="1.0" encoding="utf-8"?>
<!-- Generator: Adobe Illustrator 25.1.0, SVG Export Plug-In . SVG Version: 6.00 Build 0)  -->
<svg version="1.1" xmlns="http://www.w3.org/2000/svg" xmlns:xlink="http://www.w3.org/1999/xlink" x="0px" y="0px" width="750px"
	 height="750px" viewBox="0 0 750 750" enable-background="new 0 0 750 750" xml:space="preserve">
<g id="FILL-BACKGROUND">
	<rect fill="#FFFFFF" width="750" height="750"/>
</g>
<g id="N-TEXT">
</g>
<g id="_x32_D_x24_AG-DIAGRAM">
</g>
<g id="_x32_D_x24_AG-DETAILS">
	<g id="POLYLINE_3402_">
		<path fill="none" stroke="#E74C3C" stroke-width="2" stroke-linecap="round" stroke-linejoin="round" stroke-miterlimit="10" d="
			M359.496,132.33c2.783,0.705,5.696,0.875,8.558,0.766c3.099-0.134,6.218-0.583,9.219-1.369"/>
	</g>
	<g id="POLYLINE_3401_">
		<path fill="none" stroke="#E74C3C" stroke-width="2" stroke-linecap="round" stroke-linejoin="round" stroke-miterlimit="10" d="
			M353.711,119.883c8.263,0.949,16.808,0.735,25.105,0.293"/>
	</g>
	<g id="POLYLINE_3400_">
		<path fill="none" stroke="#E74C3C" stroke-width="2" stroke-linecap="round" stroke-linejoin="round" stroke-miterlimit="10" d="
			M352.75,104.867c8.56-0.193,17.509,0.242,26.038,0.978"/>
	</g>
	<g id="POLYLINE_3399_">
		<path fill="none" stroke="#E74C3C" stroke-width="2" stroke-linecap="round" stroke-linejoin="round" stroke-miterlimit="10" d="
			M365.222,91.615c3.68-5.217,9.827-8.923,16.315-8.757"/>
	</g>
	<g id="POLYLINE_3398_">
		<path fill="none" stroke="#E74C3C" stroke-width="2" stroke-linecap="round" stroke-linejoin="round" stroke-miterlimit="10" d="
			M357.292,92.144c3.139-3.224,6.536-6.438,10.75-8.181"/>
	</g>
	<g id="POLYLINE_3397_">
		<path fill="none" stroke="#E74C3C" stroke-width="2" stroke-linecap="round" stroke-linejoin="round" stroke-miterlimit="10" d="
			M377.228,93.404c-4.841-1.038-9.811-1.895-14.776-1.85c-2.644,0.055-5.381,0.343-7.777,1.537"/>
	</g>
	<g id="POLYLINE_3396_">
		<path fill="none" stroke="#E74C3C" stroke-width="2" stroke-linecap="round" stroke-linejoin="round" stroke-miterlimit="10" d="
			M394.378,134.512c2.802-2.573,5.248-5.6,6.895-9.044c1.22-2.524,1.978-5.266,2.371-8.037c0.396-2.761,0.554-5.587,0.294-8.368
			c-0.154-1.703-0.474-3.432-0.87-5.095c-0.402-1.7-0.922-3.416-1.611-5.022c-1.418-3.334-3.535-6.354-5.861-9.115"/>
	</g>
	<g id="POLYLINE_3395_">
		<path fill="none" stroke="#E74C3C" stroke-width="2" stroke-linecap="round" stroke-linejoin="round" stroke-miterlimit="10" d="
			M387.223,135.4c3.284-4.511,5.565-9.773,6.456-15.289c0.647-3.845,0.639-7.81,0.343-11.69c-0.224-3.048-0.677-6.122-1.599-9.042
			c-1.147-3.69-2.986-7.159-5.024-10.429"/>
	</g>
	<g id="POLYLINE_3394_">
		<path fill="none" stroke="#E74C3C" stroke-width="2" stroke-linecap="round" stroke-linejoin="round" stroke-miterlimit="10" d="
			M377.228,93.404c5.918-4.167,13.238-6.538,19.983-2.797"/>
	</g>
	<g id="POLYLINE_3393_">
		<path fill="none" stroke="#E74C3C" stroke-width="2" stroke-linecap="round" stroke-linejoin="round" stroke-miterlimit="10" d="
			M377.273,131.726c2.535-12.599,2.217-25.706-0.045-38.322"/>
	</g>
	<g id="POLYLINE_3392_">
		<path fill="none" stroke="#E74C3C" stroke-width="2" stroke-linecap="round" stroke-linejoin="round" stroke-miterlimit="10" d="
			M365.397,133.11c2.17,3.158,5.663,5.167,9.267,6.28c2.181,0.653,4.481,1.058,6.763,0.909"/>
	</g>
	<g id="POLYLINE_3391_">
		<path fill="none" stroke="#E74C3C" stroke-width="2" stroke-linecap="round" stroke-linejoin="round" stroke-miterlimit="10" d="
			M377.273,131.726c3.798,2.535,8.391,4.105,12.991,3.735c1.919-0.159,3.837-0.659,5.507-1.634"/>
	</g>
</g>
<g id="_x32_D_x24_AG-SPORTS">
	<g id="POLYLINE_464_">
		
			<path fill="none" stroke="#E74C3C" stroke-width="2.75" stroke-linecap="round" stroke-linejoin="round" stroke-miterlimit="10" d="
			M322.611,593.639c-1.383-4.551-2.38-9.302-2.999-14.017c-0.47-3.517-0.838-7.163-0.921-10.711
			c-0.025-1.642-0.013-3.327,0.247-4.951c0.148-0.88,0.393-1.771,0.913-2.509c0.765-1.083,1.998-1.707,3.19-2.212
			c1.136-0.464,2.333-0.793,3.546-0.977c1.121-0.166,2.274-0.21,3.395-0.027"/>
	</g>
	<g id="POLYLINE_451_">
		
			<path fill="none" stroke="#E74C3C" stroke-width="2.75" stroke-linecap="round" stroke-linejoin="round" stroke-miterlimit="10" d="
			M340.809,639.457c0.09-0.002,0.273-0.004,0.363-0.005c1.147,0.007,2.503,0.104,3.61-0.204c0.593-0.16,1.153-0.448,1.618-0.851
			c1.002-0.887,1.608-2.128,2.115-3.345c1.015-2.549,1.578-5.293,2.044-7.99c0.645-3.855,1.036-8.005,1.315-11.908
			c0.185-2.497,0.48-8.272,0.782-10.678c0.369-3.154,0.983-6.491,3.089-8.986c1.875-2.298,4.845-3.653,7.059-5.568
			c0.721-0.628,1.404-1.343,1.813-2.218c0.382-0.815,0.478-1.738,0.405-2.628c-0.121-1.454-0.629-2.852-1.188-4.189"/>
	</g>
	<g id="POLYLINE_450_">
		
			<path fill="none" stroke="#E74C3C" stroke-width="2.75" stroke-linecap="round" stroke-linejoin="round" stroke-miterlimit="10" d="
			M351.502,582.96c0.332,0.888,0.907,1.676,1.592,2.326c0.538,0.498,1.161,0.945,1.882,1.125c1.091,0.276,2.183-0.217,3.108-0.762
			c1.871-1.138,3.516-2.669,5.113-4.155l7.837-7.694c2.121-2.015,4.359-4.021,6.812-5.625c1.575-1.076,3.639-2.126,5.092-3.334
			c0.693-0.58,1.186-1.415,1.649-2.181"/>
	</g>
	<g id="POLYLINE_449_">
		
			<path fill="none" stroke="#E74C3C" stroke-width="2.75" stroke-linecap="round" stroke-linejoin="round" stroke-miterlimit="10" d="
			M387.422,518.833c0.286-0.234,0.859-0.711,1.141-0.95c2.097-1.785,5.73-5.138,7.928-6.701c0.949-0.681,2.136-1.289,2.62-2.407
			c0.276-0.62,0.39-1.302,0.468-1.972c0.198-1.721,0.104-4.879,0.124-6.641c-0.002-2.819,0.522-11.757,0.656-14.696l0.07-2.121"/>
	</g>
	<g id="POLYLINE_448_">
		
			<path fill="none" stroke="#E74C3C" stroke-width="2.75" stroke-linecap="round" stroke-linejoin="round" stroke-miterlimit="10" d="
			M365.645,555.421c1.454,2.383,3.471,4.421,5.783,5.977c1.793,1.196,3.814,2.117,5.96,2.423c1.31,0.191,2.656,0.146,3.953-0.113
			c1.867-0.374,3.64-1.15,5.297-2.074c2.256-1.269,4.351-2.854,6.294-4.559c3.645-3.221,7.473-7.638,11.195-10.767
			c1.704-1.455,3.562-2.818,5.472-3.989c3.659-2.302,10.106-5.282,14.014-7.233c3.188-1.635,6.456-3.393,8.911-6.055
			c1.268-1.37,2.262-2.993,2.907-4.744c1.248-3.448,1.562-7.494,2.504-11.027c1.186-4.939,4.381-10.104,6.753-14.573
			c0.964-1.827,1.854-3.745,2.536-5.695c0.991-2.753,1.719-5.989,2.372-8.852"/>
	</g>
	<g id="POLYLINE_447_">
		
			<path fill="none" stroke="#E74C3C" stroke-width="2.75" stroke-linecap="round" stroke-linejoin="round" stroke-miterlimit="10" d="
			M342.07,610.146c0.755,2.513,1.381,5.114,1.567,7.736c0.312,4.544-0.302,9.143-1.112,13.608c-0.71,3.842-2.073,8.497-2.352,12.392
			c-0.408,4.938,0.677,9.881,1.816,14.659c0.625,2.477,2.61,9.918,3.085,12.283c0.293,1.417,0.54,2.882,0.634,4.326
			c0.154,2.222-0.092,4.525-1.083,6.544c-0.841,1.739-2.108,3.259-3.589,4.491c-1.475,1.221-3.187,2.182-5.029,2.722
			c-2.303,0.686-4.816,0.616-7.079-0.194c-1.912-0.668-3.63-1.817-5.13-3.163c-1.763-1.583-3.284-3.438-4.62-5.39
			c-2.536-3.736-4.477-7.909-5.747-12.241c-1.612-5.329-2.424-12.98-3.26-18.523c-0.715-5.106-3.063-14.333-4.243-19.455
			c-1.164-5.425-2.302-11.088-1.388-16.634c0.345-1.953,1.004-3.907,2.246-5.478c1.64-2.069,4.121-3.228,6.545-4.123
			c2.402-0.869,4.884-1.691,7.421-2.047"/>
	</g>
	<g id="POLYLINE_446_">
		
			<path fill="none" stroke="#E74C3C" stroke-width="2.75" stroke-linecap="round" stroke-linejoin="round" stroke-miterlimit="10" d="
			M327.891,576.77c-0.286,0.237-0.677,0.488-0.951,0.74c-0.194,0.175-0.366,0.376-0.511,0.593c-0.239,0.361-0.414,0.766-0.569,1.17
			c-0.491,1.323-0.809,2.78-1.116,4.157c-0.32,1.576-1.353,6.688-1.677,8.17c-1.088,5.218-3.319,12.948-3.607,18.205
			c-0.064,1.246-0.035,2.518,0.264,3.734c0.334,1.419,1.099,2.706,2.08,3.774c1.988,2.126,4.427,3.884,6.995,5.243
			c1.393,0.716,2.872,1.322,4.421,1.594c1.06,0.182,2.167,0.202,3.211-0.076c0.631-0.168,1.236-0.452,1.749-0.858
			c0.489-0.382,0.885-0.874,1.187-1.414c0.323-0.572,0.556-1.199,0.747-1.827c0.542-1.76,1.014-5.144,1.355-6.985
			c1.165-6.214,3.393-12.253,6.047-17.977c0.802-1.778,2.067-3.831,2.898-5.597c0.181-0.413,0.339-0.846,0.424-1.29
			c0.197-1.009-0.017-2.043-0.285-3.019"/>
	</g>
	<g id="POLYLINE_445_">
		
			<path fill="none" stroke="#E74C3C" stroke-width="2.75" stroke-linecap="round" stroke-linejoin="round" stroke-miterlimit="10" d="
			M353.441,486.484c0.993,7.842,0.596,15.921,0.086,23.788c-0.26,3.519-0.615,7.129-1.931,10.432
			c-0.747,1.897-1.866,3.638-3.109,5.246c-1.564,2.059-4.759,5.447-6.458,7.433c-1.317,1.536-2.659,3.218-3.821,4.872
			c-2.513,3.552-4.579,7.466-6.021,11.574c-2.504,7.252-3.367,15.053-4.005,22.664c-0.081,1.25-0.383,5.449-0.413,6.615
			c-0.007,0.381-0.006,0.776,0.031,1.155c0.064,0.773,0.307,1.526,0.69,2.199c0.905,1.56,2.2,2.871,3.526,4.076
			c1.804,1.593,3.809,3.012,6.014,3.991c1.457,0.638,3.038,1.056,4.637,1.048c1.403-0.004,2.821-0.373,3.991-1.16
			c0.876-0.582,1.59-1.38,2.187-2.239c0.935-1.349,1.64-2.887,2.3-4.386c1.084-2.585,2.428-5.855,3.617-8.351
			c2.279-4.83,5.066-9.941,7.713-14.59c2.639-4.514,5.641-9.796,8.638-14.031c1.211-1.71,2.57-3.446,3.964-5.01
			c1.893-2.133,4.543-4.797,6.214-7.085c1.135-1.519,2.087-3.191,2.768-4.962c1.079-2.689,1.777-6.158,2.637-8.927
			c0.698-2.312,2.24-5.278,3.213-7.499c1.706-3.941,3.03-8.255,4.243-12.376c1.602-5.51,2.967-11.306,3.758-16.993"/>
	</g>
	<g id="POLYLINE_444_">
		
			<path fill="none" stroke="#E74C3C" stroke-width="2.75" stroke-linecap="round" stroke-linejoin="round" stroke-miterlimit="10" d="
			M404.042,480.96c7.19,1.462,14.635,2.551,21.951,3.06c8.611,0.58,17.498,0.57,26.107-0.052c1.642-0.155,3.369-0.269,4.87-1.008
			c0.437-0.223,0.842-0.516,1.173-0.879c0.352-0.385,0.618-0.845,0.815-1.327c0.629-1.595,0.694-3.354,0.734-5.049
			c-0.326-18.528-3.596-47.86-4.667-66.528c-0.283-5.146-0.061-12.307,0.025-17.486c0-2.651-0.018-5.395-0.475-8.011
			c-0.267-1.521-0.732-3.025-1.285-4.465c-1.09-2.62-2.591-6.912-3.534-9.624l-0.369-0.991"/>
	</g>
	<g id="POLYLINE_443_">
		
			<path fill="none" stroke="#E74C3C" stroke-width="2.75" stroke-linecap="round" stroke-linejoin="round" stroke-miterlimit="10" d="
			M412.123,426.4c0.068,11.579-1.311,23.454-3.097,34.887c-0.955,5.636-1.91,11.489-3.739,16.914
			c-0.3,0.826-0.625,1.667-1.053,2.435c-0.303,0.542-0.666,1.061-1.132,1.475c-0.531,0.48-1.196,0.783-1.872,0.999
			c-2.962,0.874-6.112,1.473-9.155,1.999c-6.874,1.154-13.99,1.695-20.957,1.865c-4.972,0.11-10.207,0.094-15.168-0.256
			c-1.687-0.138-3.454-0.281-5.106-0.664c-0.532-0.137-1.098-0.283-1.517-0.657c-0.232-0.21-0.375-0.5-0.464-0.796
			c-0.193-0.641-0.257-1.323-0.31-1.988c-0.199-3.285,0.076-6.816,0.259-10.104c0.942-12.434,5.584-67.208,6.764-79.09
			c0.339-3.285,1.033-7.072,1.628-10.318"/>
	</g>
	<g id="POLYLINE_442_">
		
			<path fill="none" stroke="#E74C3C" stroke-width="2.75" stroke-linecap="round" stroke-linejoin="round" stroke-miterlimit="10" d="
			M401.223,95.385c0.49-0.213,1.97-0.788,2.489-0.994c0.875-0.355,1.748-0.766,2.56-1.248c0.972-0.573,1.948-1.302,2.845-1.991
			c2.954-2.259,5.974-4.858,9.506-6.139c1.496-0.544,3.113-0.737,4.696-0.583c2.581,0.243,5.026,1.266,7.289,2.485
			c2.686,1.471,5.288,3.254,7.721,5.112c6.095,4.766,11.878,10.382,17.353,15.844c5.418,5.516,10.696,11.376,14.75,17.989
			c1.496,2.432,4.142,6.886,5.702,9.186c1.09,1.629,4.014,5.612,5.146,7.255c1.117,1.648,2.239,3.357,2.979,5.212
			c0.434,1.1,0.7,2.274,0.722,3.458c0.034,1.461-0.294,2.912-0.749,4.293c-0.345,1.048-0.801,2.135-1.248,3.144
			c-3.115,6.679-13.658,29.635-16.858,35.893"/>
	</g>
	<g id="POLYLINE_441_">
		
			<path fill="none" stroke="#E74C3C" stroke-width="2.75" stroke-linecap="round" stroke-linejoin="round" stroke-miterlimit="10" d="
			M444.53,174.191l1.56-4.094c0.462-1.214,1.031-2.489,1.589-3.653c0.72-1.51,2.248-4.142,3.026-5.65
			c1.056-2.074,2.12-4.279,2.161-6.65c0.019-0.893-0.098-1.792-0.283-2.664c-0.224-1.365-3.454-11.54-3.893-13.119
			c-1.672-5.333-3.491-10.821-6.051-15.795c-1.739-3.379-3.916-6.583-6.202-9.615c-1.729-2.181-4.281-5.744-5.992-7.929
			c-0.368-0.445-0.764-0.901-1.19-1.293c-0.566-0.525-1.217-0.987-1.963-1.21c-0.727-0.22-1.506-0.185-2.243-0.035
			c-1.181,0.245-2.3,0.751-3.375,1.287c-2.371,1.264-4.858,2.522-6.878,4.317c-0.897,0.802-1.696,1.724-2.358,2.729
			c-0.885,1.344-1.548,2.846-2.139,4.338c-1.197,3.069-2.436,7.269-3.69,10.309c-0.718,1.752-1.571,3.481-2.69,5.013
			c-0.892,1.227-1.937,2.361-3.153,3.272c-0.797,0.59-1.677,1.102-2.64,1.362c-0.982,0.274-2.023,0.161-2.999-0.087l-0.662-0.168"/>
	</g>
	<g id="POLYLINE_440_">
		
			<path fill="none" stroke="#E74C3C" stroke-width="2.75" stroke-linecap="round" stroke-linejoin="round" stroke-miterlimit="10" d="
			M333.685,203.465c-0.442-2-0.638-4.076-0.567-6.124c0.057-1.506,0.26-3.023,0.701-4.467c0.443-1.477,1.21-2.84,2.076-4.107
			l2.005-2.839c0.756-1.087,1.446-2.278,2.046-3.458c0.877-1.733,2.136-4.427,3.158-6.032c0.741-1.188,1.648-2.299,2.807-3.101
			c1.723-1.221,4.001-1.972,5.879-2.92c2.64-1.297,5.575-3.29,8.304-4.391c0.703-0.275,1.441-0.5,2.198-0.552
			c1.235-0.103,2.411,0.326,3.506,0.851c1.683,0.783,3.257,1.856,4.435,3.305c0.751,0.882,1.486,1.974,2.32,2.78
			c0.566,0.543,1.268,0.979,1.935,1.388"/>
	</g>
	<g id="POLYLINE_439_">
		
			<path fill="none" stroke="#E74C3C" stroke-width="2.75" stroke-linecap="round" stroke-linejoin="round" stroke-miterlimit="10" d="
			M360.816,135.635c10.891,7.382,25.474,6.487,35.38-2.172c8.877-7.72,12.215-20.174,8.389-31.298
			c-3.793-11.139-14.055-18.934-25.803-19.6c-13.132-0.776-25.209,7.45-29.295,19.956"/>
	</g>
	<g id="POLYLINE_438_">
		
			<path fill="none" stroke="#E74C3C" stroke-width="2.75" stroke-linecap="round" stroke-linejoin="round" stroke-miterlimit="10" d="
			M323.083,190.661c0.319,0.631,0.603,1.295,0.709,1.999c0.091,0.585,0.048,1.186-0.068,1.764c-0.354,1.687-1.098,3.282-1.865,4.816
			c-1.573,3.064-3.52,6.019-5.545,8.803c-1.361,1.848-2.857,3.745-4.405,5.438c-0.979,1.063-2.022,2.121-3.159,3.016
			c-0.762,0.581-1.626,1.196-2.586,1.366c-0.343,0.057-0.7,0.039-1.031-0.068c-0.378-0.12-0.715-0.347-1.007-0.613
			c-0.426-0.39-0.779-0.859-1.098-1.339c-0.597-0.905-1.104-1.938-1.578-2.914c-4.16-9.485-11.051-21.555-15.642-30.892
			c-0.798-1.678-1.647-3.487-2.256-5.237c-0.6-1.706-0.993-3.509-0.965-5.324c0.062-3.374,1.185-6.643,2.401-9.758
			c4.425-10.73,11.619-22.49,17.257-32.698c3.243-5.536,7.133-12.103,10.674-17.402c1.926-2.88,4.007-5.869,6.221-8.531
			c1.493-1.764,3.077-3.528,4.982-4.855c0.792-0.544,1.673-0.986,2.616-1.194c0.904-0.205,1.847-0.189,2.763-0.075
			c0.729,0.081,1.68,0.283,2.408,0.425c3.857,0.799,8.047,1.724,11.796,2.895c2.031,0.642,4.093,1.354,5.983,2.344
			c1.172,0.622,2.306,1.374,3.185,2.38c0.518,0.592,0.934,1.279,1.188,2.025c0.605,1.807,0.439,3.768,0.258,5.633
			c-0.545,4.599-1.344,9.72,0.803,14.029c0.983,1.98,2.695,3.609,4.096,5.292c0.762,0.934,1.536,1.991,1.596,3.238
			c0.036,0.647-0.107,1.32-0.478,1.858c-0.201,0.294-0.478,0.536-0.802,0.685c-0.424,0.199-0.903,0.253-1.366,0.231
			c-2.2-0.128-4.038-1.608-5.385-3.25c-2.661-3.28-4.538-7.381-6.419-11.147c-0.72-1.407-1.513-2.816-2.514-4.044
			c-0.73-0.9-1.586-1.712-2.504-2.417c-1.165-0.89-2.458-1.64-3.829-2.162c-0.845-0.318-1.734-0.559-2.638-0.615
			c-0.799-0.048-1.633,0.063-2.333,0.469c-0.406,0.233-0.755,0.556-1.059,0.91c-0.348,0.406-0.651,0.865-0.932,1.319
			c-0.612,1.006-1.633,2.899-2.24,3.907c-2.868,4.816-6.895,10.886-9.077,15.98c-0.599,1.414-1.086,2.919-1.474,4.405
			c-0.522,2.034-1.148,4.989-1.772,6.969c-0.723,2.366-1.784,5.006-2.719,7.312c-1.397,3.562-4.012,9.183-4.898,12.849
			c-0.184,0.799-0.31,1.625-0.269,2.447c0.043,1.194,0.524,2.326,1.216,3.287c1.589,2.194,3.994,4.182,5.874,6.128
			c1.922,1.955,3.743,4.118,5.359,6.332C321.467,187.939,322.374,189.278,323.083,190.661z"/>
	</g>
	<g id="POLYLINE_437_">
		
			<path fill="none" stroke="#E74C3C" stroke-width="2.75" stroke-linecap="round" stroke-linejoin="round" stroke-miterlimit="10" d="
			M323.083,190.661l0.682,0.335c0.703,0.339,1.31,0.849,1.846,1.411c2.69,2.863,5.164,6.864,7.402,10.11
			c1.532,2.202,3.222,4.348,5.206,6.161c4.063,3.74,10.362,6.808,15.156,9.553c3.567,2.007,7.454,4.709,11.515,5.503
			c1.234,0.24,2.51,0.285,3.763,0.203c1.725-0.112,3.472-0.46,5.155-0.849c2.038-0.488,6.103-1.556,8.126-2.019
			c1.44-0.364,13.926-2.998,15.691-3.379c1.694-0.384,3.47-0.794,4.919-1.796c0.682-0.459,1.298-1.021,1.864-1.614
			c1.682-1.753,4.353-5.437,5.885-7.378c2.001-2.537,4.165-5.012,6.7-7.028c3.671-2.978,8.392-5.516,12.094-8.454
			c2.784-2.172,5.15-4.867,7.293-7.66c1.821-2.336,3.873-5.47,5.741-7.767c0.566-0.658,1.184-1.335,2.001-1.676
			c0.427-0.178,0.903-0.222,1.359-0.149c0.941,0.154,1.786,0.654,2.564,1.182c1.867,1.314,3.522,2.993,5.12,4.617
			c1.611,1.667,10.305,11.133,11.913,12.954c0.424,0.506,0.847,1.043,1.191,1.607c0.398,0.65,0.719,1.373,0.766,2.142
			c0.082,1.52-0.773,2.921-1.524,4.181c-5.444,8.532-10.867,17.442-15.06,26.658c-3.349,7.409-6.019,15.274-6.814,23.401
			c-1.138,11.975,1.799,24.946,3.479,36.79c2.798,18.437,2.117,39.791,3.813,58.36c0.38,4.021,1.215,9.863,1.466,13.885
			c0.06,1.109,0.091,2.261,0.02,3.368c-0.067,0.991-0.203,1.998-0.568,2.928c-0.267,0.687-0.698,1.321-1.301,1.754
			c-0.506,0.372-1.1,0.61-1.705,0.77c-1.933,0.523-5.374,0.416-7.387,0.53c-6.391,0.32-16.584,1.821-22.998,2.416
			c-9.197,0.814-20.669,1.505-29.64,3.339c-6.753,1.242-15.234,4.156-21.833,6.24c-2.564,0.757-5.238,1.591-7.904,1.846
			c-0.655,0.052-1.325,0.066-1.973-0.051c-0.522-0.093-1.038-0.298-1.424-0.671c-0.615-0.587-0.837-1.454-0.946-2.27
			c-0.068-0.52-0.091-1.067-0.1-1.591c-0.026-2.332,0.124-5.113,0.253-7.451c0.904-14.184,2.776-31.686,2.002-45.746
			c-0.24-4.275-0.689-8.625-1.712-12.788c-0.946-3.868-2.435-7.634-4.305-11.146c-2.756-5.222-7.011-11.04-9.95-16.167
			c-2.035-3.509-3.789-7.244-4.88-11.159c-1.34-4.655-2.364-10.332-4.49-14.702c-1.933-4.043-4.896-7.606-7.77-11.015
			c-1.14-1.331-4.319-5.072-5.387-6.451c-1.616-2.056-3.266-4.362-4.734-6.526c-0.34-0.534-8.93-13.501-8.987-13.682
			c-0.319-0.537-0.628-1.099-0.85-1.684c-0.148-0.389-0.253-0.799-0.284-1.214c-0.038-0.463,0.01-0.933,0.084-1.391l0.114-0.646"/>
	</g>
	<g id="POLYLINE_436_">
		
			<path fill="none" stroke="#E74C3C" stroke-width="2.75" stroke-linecap="round" stroke-linejoin="round" stroke-miterlimit="10" d="
			M393.633,209.068c1.062,2.976,2.392,5.897,3.993,8.622"/>
	</g>
	<g id="POLYLINE_435_">
		
			<path fill="none" stroke="#E74C3C" stroke-width="2.75" stroke-linecap="round" stroke-linejoin="round" stroke-miterlimit="10" d="
			M352.122,213.662c0.144,1.579,0.553,3.145,1.254,4.57"/>
	</g>
	<g id="POLYLINE_164_">
		
			<path fill="none" stroke="#E74C3C" stroke-width="2.75" stroke-linecap="round" stroke-linejoin="round" stroke-miterlimit="10" d="
			M357.163,209.215c-0.351,1.107-0.831,2.227-1.699,3.029c-1.152,1.06-2.793,1.482-4.33,1.469c-0.971-0.016-1.949-0.227-2.817-0.668
			c-1.451-0.748-2.646-2.036-3.213-3.573c-0.22-0.613-0.322-1.28-0.214-1.926c0.135-0.843,0.596-1.603,1.181-2.213
			c0.575-0.6,1.27-1.081,2.007-1.46c1.031-0.53,2.173-0.855,3.331-0.924c1.129-0.07,2.274,0.111,3.329,0.518
			c1.589,0.62,2.984,1.661,4.295,2.734c2.129,1.727,4.227,4.013,6.591,5.423c1.11,0.661,2.35,1.105,3.631,1.274
			c0.906,0.125,1.842,0.142,2.755,0.116c3.162-0.126,7.226-0.654,10.399-0.947c2.143-0.249,4.379-0.551,6.477-1.056
			c1.173-0.287,2.352-0.64,3.444-1.163c0.616-0.298,1.214-0.659,1.717-1.126c0.42-0.389,0.771-0.854,1.026-1.366
			c0.462-0.923,0.615-1.97,0.636-2.994c0.019-1.429-0.147-2.871-0.368-4.281c-0.366-2.15-0.9-4.325-1.963-6.245
			c-0.445-0.795-1.035-1.512-1.661-2.171l-1.18-1.216c-0.852-0.871-1.552-1.891-2.154-2.947c-0.31-0.586-1.378-2.475-1.699-2.997
			c-0.455-0.735-1.016-1.436-1.779-1.868c-0.884-0.505-1.901-0.725-2.901-0.866c-1.335-0.17-2.709-0.164-4.027,0.124
			c-0.808,0.177-1.594,0.493-2.262,0.987c-0.864,0.629-1.52,1.5-2.064,2.41c-1.954,3.328-3.225,7.599-6.106,10.289
			c-0.919,0.845-2.039,1.5-3.269,1.752c-1.057,0.22-2.156,0.139-3.21-0.062c-1.707-0.335-3.362-0.976-4.958-1.654
			c-1.479-0.64-2.947-1.454-3.972-2.727c-0.897-1.104-1.41-2.476-1.691-3.858c-0.318-1.614-0.328-3.3,0.028-4.908
			c0.821-3.682,3.804-6.376,6.807-8.416c1.647-1.085,3.497-1.924,5.464-2.189c1.423-0.2,2.886-0.066,4.304,0.121
			c1.667,0.218,3.753,0.653,5.424,0.571c0.756-0.04,1.502-0.225,2.214-0.477l1.46-0.544c0.99-0.357,2.075-0.592,3.122-0.372
			c0.535,0.113,1.048,0.381,1.393,0.812c0.22,0.271,0.38,0.588,0.51,0.911c0.415,1.035,0.571,2.25,0.965,3.293
			c0.121,0.317,0.283,0.622,0.488,0.893c0.284,0.384,0.691,0.747,1.022,1.091c0.794,0.791,1.198,1.876,1.462,2.945"/>
	</g>
</g>
<g id="_x32_D_x24_AG-OUTLINE">
	<g id="POLYLINE_1253_">
		
			<path fill="none" stroke="#E74C3C" stroke-width="3.5" stroke-linecap="round" stroke-linejoin="round" stroke-miterlimit="10" d="
			M444.53,174.191c-0.807,0.178-1.448,0.754-1.998,1.34c-0.417,0.449-0.827,0.968-1.199,1.456c-1.75,2.339-3.836,5.399-5.652,7.673
			c-1.377,1.735-2.869,3.444-4.488,4.958c-1.112,1.041-2.345,2.022-3.577,2.918c-3.556,2.583-8.004,5.071-11.342,7.936
			c-2.232,1.886-4.17,4.144-5.98,6.431c-1.615,2.041-4.247,5.703-6.029,7.527c-0.525,0.538-1.096,1.045-1.72,1.465
			c-1.448,1.001-3.225,1.412-4.919,1.796c-1.601-2.725-2.931-5.647-3.993-8.622c0.744-0.554,1.327-1.32,1.649-2.19
			c0.621-1.695,0.444-3.553,0.265-5.313c-0.289-2.408-0.786-4.839-1.814-7.048c-0.491-1.063-1.205-2.012-2.016-2.853l-1.18-1.216
			c-0.852-0.871-1.552-1.891-2.154-2.947c-0.536-0.928-1.489-2.781-2.12-3.616c-0.321-0.433-0.704-0.827-1.156-1.123
			c-0.264-1.069-0.667-2.154-1.462-2.945c-0.332-0.345-0.739-0.706-1.022-1.091c-0.205-0.271-0.368-0.575-0.488-0.893
			c-0.393-1.043-0.549-2.258-0.965-3.293c-0.13-0.322-0.29-0.639-0.51-0.911c-0.345-0.431-0.859-0.699-1.393-0.812
			c-1.06-0.223-2.158,0.021-3.159,0.385l-1.286,0.482c-0.082,0.03-0.25,0.088-0.333,0.115c-0.671-0.411-1.368-0.845-1.935-1.388
			c-0.833-0.805-1.569-1.898-2.32-2.78c-1.178-1.449-2.752-2.523-4.435-3.305c-1.096-0.525-2.271-0.954-3.506-0.851
			c-0.757,0.052-1.495,0.277-2.198,0.552c-2.727,1.099-5.666,3.094-8.304,4.391c-1.879,0.949-4.153,1.698-5.879,2.92
			c-1.207,0.835-2.137,2.006-2.899,3.248c-0.972,1.544-2.231,4.244-3.067,5.885c-0.6,1.18-1.29,2.371-2.046,3.458l-2.005,2.839
			c-0.866,1.267-1.634,2.63-2.076,4.107c-0.441,1.444-0.643,2.961-0.701,4.467c-0.071,2.047,0.125,4.123,0.567,6.124
			c-2.615-3.629-5.121-7.969-8.218-11.204c-0.497-0.505-1.062-0.953-1.702-1.264l-0.682-0.335c-0.71-1.383-1.616-2.721-2.525-3.983
			c-1.616-2.215-3.437-4.377-5.359-6.332c-1.883-1.952-4.282-3.932-5.874-6.128c-0.691-0.962-1.173-2.093-1.216-3.287
			c-0.04-0.821,0.085-1.648,0.269-2.447c0.883-3.637,3.503-9.32,4.898-12.849c0.936-2.305,1.994-4.942,2.719-7.312
			c0.623-1.98,1.252-4.948,1.771-6.969c0.387-1.484,0.875-2.992,1.474-4.405c2.174-5.085,6.233-11.2,9.077-15.98
			c0.71-1.174,1.721-3.102,2.459-4.254c0.218-0.333,0.453-0.67,0.713-0.972c0.304-0.354,0.653-0.677,1.059-0.91
			c0.701-0.406,1.535-0.517,2.333-0.469c0.904,0.056,1.793,0.297,2.638,0.615c1.371,0.522,2.664,1.272,3.829,2.162
			c0.918,0.705,1.774,1.517,2.504,2.417c1,1.228,1.794,2.638,2.514,4.044c1.65,3.322,3.362,6.957,5.516,9.97
			c1.095,1.52,2.38,3.005,4.094,3.836c0.672,0.322,1.403,0.54,2.149,0.589c0.553,0.033,1.135-0.042,1.614-0.337
			c0.688-0.423,1.029-1.244,1.077-2.026c10.198,6.921,23.787,6.605,33.653-0.778l0.662,0.168c0.976,0.248,2.016,0.361,2.999,0.087
			c0.963-0.26,1.844-0.772,2.64-1.362c1.216-0.911,2.261-2.045,3.153-3.272c1.119-1.532,1.972-3.261,2.69-5.013
			c1.338-3.248,2.581-7.583,3.903-10.842c0.538-1.309,1.144-2.622,1.925-3.806c0.662-1.005,1.461-1.927,2.358-2.729
			c2.02-1.795,4.507-3.054,6.878-4.317c1.108-0.552,2.263-1.075,3.485-1.309c0.703-0.131,1.443-0.153,2.133,0.057
			c0.746,0.224,1.397,0.685,1.963,1.21c0.425,0.392,0.822,0.846,1.19,1.293c1.706,2.183,4.27,5.745,5.992,7.929
			c2.42,3.21,4.709,6.604,6.503,10.207c2.394,4.801,4.15,10.087,5.75,15.204c0.434,1.567,3.644,11.689,3.893,13.119
			c0.184,0.872,0.302,1.772,0.283,2.664c-0.041,2.371-1.104,4.577-2.161,6.65c-0.787,1.499-2.29,4.136-3.026,5.65
			c-0.56,1.16-1.122,2.453-1.59,3.655L444.53,174.191z"/>
	</g>
	<g id="POLYLINE_1252_">
		
			<path fill="none" stroke="#E74C3C" stroke-width="3.5" stroke-linecap="round" stroke-linejoin="round" stroke-miterlimit="10" d="
			M466.126,194.3c3.142-6.137,13.78-29.29,16.858-35.893c0.448-1.01,0.903-2.096,1.248-3.144c0.454-1.381,0.783-2.832,0.749-4.293
			c-0.022-1.184-0.288-2.358-0.722-3.458c-0.74-1.854-1.862-3.565-2.979-5.212c-1.138-1.651-4.047-5.609-5.146-7.255
			c-1.55-2.295-4.231-6.788-5.702-9.186c-4.053-6.612-9.331-12.473-14.75-17.989c-5.478-5.464-11.257-11.078-17.353-15.845
			c-2.559-1.95-5.286-3.819-8.129-5.329c-2.144-1.119-4.455-2.04-6.881-2.268c-1.584-0.154-3.2,0.039-4.696,0.583
			c-3.529,1.28-6.557,3.881-9.506,6.139c-0.894,0.69-1.872,1.418-2.845,1.991c-0.811,0.481-1.686,0.894-2.56,1.248
			c-0.528,0.21-1.991,0.778-2.489,0.994c-6.161-9.22-17.189-14.148-28.165-12.587c-10.936,1.515-20.152,9.226-23.572,19.723
			c-1.831-0.931-3.822-1.62-5.779-2.237c-3.741-1.168-7.946-2.099-11.796-2.895c-1.479-0.29-3.037-0.642-4.548-0.457
			c-1.215,0.138-2.352,0.671-3.342,1.372c-1.857,1.321-3.415,3.051-4.879,4.784c-2.213,2.661-4.299,5.652-6.222,8.531
			c-3.526,5.29-7.457,11.883-10.674,17.402c-4.637,8.312-10.875,18.954-14.939,27.442c-1.222,2.583-2.415,5.284-3.326,7.993
			c-0.748,2.264-1.361,4.624-1.392,7.02c-0.028,1.815,0.365,3.618,0.965,5.324c0.608,1.749,1.459,3.563,2.256,5.237
			c4.598,9.35,11.473,21.386,15.642,30.892c0.655,1.332,1.315,2.727,2.29,3.858l-0.114,0.646c-0.075,0.458-0.122,0.927-0.084,1.391
			c0.031,0.416,0.136,0.825,0.284,1.214c0.222,0.585,0.531,1.147,0.85,1.684c-0.051,0.01,8.726,13.272,8.987,13.682
			c1.471,2.168,3.117,4.466,4.734,6.526c1.065,1.401,4.197,5.034,5.387,6.451c2.939,3.489,5.962,7.121,7.895,11.28
			c2.117,4.48,3.111,10.256,4.528,14.992c1.085,3.714,2.783,7.261,4.717,10.604c2.941,5.13,7.192,10.941,9.95,16.167
			c1.87,3.512,3.359,7.279,4.305,11.146c1.023,4.163,1.473,8.514,1.713,12.788c0.778,14.015-1.09,31.653-2.002,45.746
			c-0.133,2.74-0.356,5.808-0.206,8.539c0.043,0.519,0.115,1.044,0.272,1.541c0.156,0.494,0.413,0.971,0.812,1.311
			c0.399,0.346,0.914,0.526,1.429,0.608c-0.407,2.279-1.012,5.469-1.298,7.683c-0.292,2.101-0.592,5.062-0.798,7.203
			c-0.764,9.47-6.046,68.646-6.426,76.674c-0.121,2.373-0.263,5.006-0.162,7.373c0.037,0.731,0.092,1.486,0.249,2.202
			c0.067,0.289,0.147,0.585,0.301,0.841c0.192,0.33,0.523,0.549,0.87,0.691c1.09,0.423,2.348,0.56,3.504,0.712
			c0.993,7.842,0.596,15.92,0.086,23.788c-0.26,3.519-0.615,7.129-1.931,10.432c-0.747,1.897-1.866,3.638-3.109,5.246
			c-1.248,1.675-4.399,5.078-5.811,6.689c-1.41,1.607-2.849,3.365-4.098,5.099c-2.241,3.095-4.161,6.472-5.601,10.013
			c-1.377,3.355-2.313,6.928-2.994,10.485c-1.121-0.183-2.275-0.139-3.395,0.027c-1.213,0.184-2.41,0.513-3.546,0.977
			c-1.192,0.505-2.425,1.129-3.19,2.212c-0.519,0.738-0.765,1.629-0.913,2.509c-0.261,1.624-0.273,3.309-0.247,4.951
			c0.083,3.548,0.451,7.195,0.921,10.711c0.62,4.713,1.617,9.467,2.999,14.017l-1.859,8.019c-2.537,0.356-5.019,1.178-7.421,2.047
			c-2.424,0.894-4.905,2.054-6.545,4.123c-1.241,1.571-1.9,3.525-2.246,5.478c-0.914,5.546,0.225,11.209,1.388,16.634
			c1.19,5.172,3.519,14.306,4.243,19.455c0.84,5.587,1.648,13.175,3.26,18.523c1.27,4.332,3.211,8.505,5.747,12.241
			c1.336,1.952,2.857,3.807,4.62,5.39c1.545,1.386,3.321,2.562,5.3,3.221c2.272,0.776,4.783,0.803,7.074,0.086
			c1.838-0.567,3.541-1.549,5.005-2.791c1.419-1.21,2.634-2.689,3.448-4.373c1.086-2.21,1.27-4.746,1.033-7.166
			c-0.418-4.424-2.622-11.612-3.67-15.987c-0.916-3.824-1.78-7.76-1.897-11.702c-0.068-2.471,0.235-4.961,0.717-7.382
			c0.09-0.002,0.273-0.004,0.363-0.005c1.147,0.007,2.503,0.104,3.61-0.204c0.593-0.16,1.153-0.448,1.618-0.851
			c1.002-0.887,1.608-2.128,2.115-3.345c1.015-2.549,1.578-5.293,2.044-7.99c0.645-3.855,1.036-8.005,1.315-11.908
			c0.185-2.497,0.48-8.272,0.782-10.678c0.369-3.154,0.983-6.491,3.089-8.986c1.875-2.298,4.845-3.653,7.059-5.568
			c0.721-0.628,1.404-1.343,1.813-2.218c0.382-0.815,0.478-1.738,0.405-2.628c-0.121-1.454-0.629-2.852-1.188-4.189l7.202-7.089
			c2.121-2.015,4.359-4.021,6.812-5.625c1.575-1.076,3.639-2.126,5.092-3.334c0.693-0.58,1.186-1.415,1.649-2.181
			c3.393-1.504,6.396-3.803,9.129-6.288c3.641-3.365,7.521-7.798,11.399-10.882c5.08-4.221,12.601-7.441,18.498-10.404
			c3.188-1.635,6.456-3.393,8.911-6.055c1.268-1.37,2.262-2.993,2.907-4.744c1.248-3.448,1.562-7.494,2.504-11.027
			c1.186-4.939,4.381-10.104,6.753-14.573c0.964-1.827,1.854-3.745,2.536-5.695c0.991-2.753,1.719-5.989,2.372-8.852
			c1.949-0.149,4.1-0.198,5.995-0.673c1.105-0.279,2.203-0.807,2.861-1.773c0.678-0.981,0.931-2.185,1.082-3.35
			c0.123-1.001,0.157-2.052,0.162-3.061c0.032-3.213-0.491-10.622-0.652-13.919c-0.656-12.2-3.532-41.425-4.081-53.712
			c-0.197-4.509,0.018-11.429,0.087-15.962c0-2.651-0.018-5.395-0.475-8.011c-0.267-1.521-0.732-3.025-1.285-4.465
			c-1.09-2.62-2.591-6.912-3.534-9.624l-0.369-0.991c0.655-0.233,1.277-0.598,1.736-1.128c0.558-0.639,0.858-1.459,1.042-2.276
			c0.239-1.086,0.292-2.218,0.293-3.327c-0.071-4.814-1.097-11.001-1.528-15.807c-1.697-18.581-1.014-39.912-3.813-58.36
			c-1.681-11.87-4.616-24.798-3.479-36.79c0.796-8.127,3.466-15.992,6.815-23.401c4.191-9.212,9.618-18.131,15.06-26.658
			c0.763-1.279,1.639-2.717,1.518-4.261C466.959,195.759,466.578,194.989,466.126,194.3z"/>
	</g>
</g>
</svg>
