<?xml version="1.0" encoding="utf-8"?>
<!-- Generator: Adobe Illustrator 25.1.0, SVG Export Plug-In . SVG Version: 6.00 Build 0)  -->
<svg version="1.1" xmlns="http://www.w3.org/2000/svg" xmlns:xlink="http://www.w3.org/1999/xlink" x="0px" y="0px" width="750px"
	 height="750px" viewBox="0 0 750 750" enable-background="new 0 0 750 750" xml:space="preserve">
<g id="FILL-BACKGROUND">
	<rect fill="#FFFFFF" width="750" height="750"/>
</g>
<g id="N-TEXT">
</g>
<g id="_x32_D_x24_AG-DIAGRAM">
	<g id="POLYLINE_24_">
		<g>
			<g>
				
					<line fill="none" stroke="#E74C3C" stroke-width="3.25" stroke-linecap="round" stroke-linejoin="round" x1="534.626" y1="623.891" x2="532.626" y2="623.891"/>
				
					<line fill="none" stroke="#E74C3C" stroke-width="3.25" stroke-linecap="round" stroke-linejoin="round" stroke-dasharray="3.9911,6.9844" x1="525.642" y1="623.891" x2="210.844" y2="623.891"/>
				
					<line fill="none" stroke="#E74C3C" stroke-width="3.25" stroke-linecap="round" stroke-linejoin="round" x1="207.351" y1="623.891" x2="205.351" y2="623.891"/>
			</g>
		</g>
	</g>
</g>
<g id="_x32_D_x24_AG-DETAILS">
	<g id="POLYLINE_463_">
		<path fill="none" stroke="#E74C3C" stroke-width="2" stroke-linecap="round" stroke-linejoin="round" stroke-miterlimit="10" d="
			M519.005,326.605c4.033,0.803,8.232,1.189,12.339,1.401c7.019,0.338,14.306,0.149,21.321-0.246"/>
	</g>
	<g id="POLYLINE_462_">
		<path fill="none" stroke="#E74C3C" stroke-width="2" stroke-linecap="round" stroke-linejoin="round" stroke-miterlimit="10" d="
			M518.716,310.607c11.172-0.532,22.773-0.001,33.918,0.948"/>
	</g>
	<g id="POLYLINE_461_">
		<path fill="none" stroke="#E74C3C" stroke-width="2" stroke-linecap="round" stroke-linejoin="round" stroke-miterlimit="10" d="
			M537.293,295.464c4.161-5.899,11.112-10.09,18.448-9.902"/>
	</g>
	<g id="POLYLINE_460_">
		<path fill="none" stroke="#E74C3C" stroke-width="2" stroke-linecap="round" stroke-linejoin="round" stroke-miterlimit="10" d="
			M528.327,296.063c3.549-3.645,7.391-7.279,12.155-9.251"/>
	</g>
	<g id="POLYLINE_459_">
		<path fill="none" stroke="#E74C3C" stroke-width="2" stroke-linecap="round" stroke-linejoin="round" stroke-miterlimit="10" d="
			M550.87,297.487c-5.597-1.198-11.346-2.191-17.088-2.084c-2.864,0.087-5.821,0.435-8.414,1.73"/>
	</g>
	<g id="POLYLINE_458_">
		<path fill="none" stroke="#E74C3C" stroke-width="2" stroke-linecap="round" stroke-linejoin="round" stroke-miterlimit="10" d="
			M570.262,343.97c2.989-2.746,5.621-5.945,7.472-9.57c1.566-3.035,2.53-6.368,3.006-9.743c0.448-3.122,0.627-6.318,0.332-9.463
			c-0.397-3.867-1.304-7.85-2.804-11.44c-1.603-3.77-3.997-7.185-6.628-10.307"/>
	</g>
	<g id="POLYLINE_457_">
		<path fill="none" stroke="#E74C3C" stroke-width="2" stroke-linecap="round" stroke-linejoin="round" stroke-miterlimit="10" d="
			M562.172,344.975c3.523-4.845,6.037-10.454,7.133-16.352c0.893-4.645,0.915-9.451,0.555-14.155
			c-0.261-3.564-0.802-7.156-1.915-10.56c-1.301-4.046-3.333-7.859-5.575-11.457"/>
	</g>
	<g id="POLYLINE_456_">
		<path fill="none" stroke="#E74C3C" stroke-width="2" stroke-linecap="round" stroke-linejoin="round" stroke-miterlimit="10" d="
			M550.87,297.487c6.681-4.71,14.982-7.392,22.596-3.162"/>
	</g>
	<g id="POLYLINE_455_">
		<path fill="none" stroke="#E74C3C" stroke-width="2" stroke-linecap="round" stroke-linejoin="round" stroke-miterlimit="10" d="
			M550.92,340.82c2.867-14.246,2.507-29.068-0.05-43.333"/>
	</g>
	<g id="POLYLINE_454_">
		<path fill="none" stroke="#E74C3C" stroke-width="2" stroke-linecap="round" stroke-linejoin="round" stroke-miterlimit="10" d="
			M537.491,342.386c2.388,3.478,6.205,5.725,10.16,7.002c2.562,0.803,5.274,1.301,7.966,1.127"/>
	</g>
	<g id="POLYLINE_453_">
		<path fill="none" stroke="#E74C3C" stroke-width="2" stroke-linecap="round" stroke-linejoin="round" stroke-miterlimit="10" d="
			M550.92,340.82c4.295,2.866,9.488,4.641,14.69,4.223c2.169-0.18,4.338-0.745,6.227-1.848"/>
	</g>
	<g id="POLYLINE_452_">
		<path fill="none" stroke="#E74C3C" stroke-width="2" stroke-linecap="round" stroke-linejoin="round" stroke-miterlimit="10" d="
			M525.906,339.561c3.36,1.919,7.275,2.631,11.101,2.807c4.669,0.18,9.392-0.38,13.914-1.547"/>
	</g>
</g>
<g id="_x32_D_x24_AG-SPORTS">
	<g id="POLYLINE_1720_">
		
			<path fill="none" stroke="#E74C3C" stroke-width="2.75" stroke-linecap="round" stroke-linejoin="round" stroke-miterlimit="10" d="
			M423.613,397.351c2.213,4.359,4.492,9.425,7.12,13.537c2.92,4.578,6.444,9.575,8.113,14.763c1.522,4.63,1.794,9.591,1.822,14.433
			c-0.017,1.736-0.117,7.298-0.074,8.886c0.248,8.548,0.602,21.52,0.692,30.13c0.046,10.409,0.006,34.011,0.372,44.122
			c0.319,10.889,1.162,23.505,2.121,34.385"/>
	</g>
	<g id="POLYLINE_1721_">
		
			<path fill="none" stroke="#E74C3C" stroke-width="2.75" stroke-linecap="round" stroke-linejoin="round" stroke-miterlimit="10" d="
			M372.546,406.707c0.785,0.913,2.346,2.765,3.111,3.692c5.945,7.535,14.357,17.609,19.894,25.302
			c1.72,2.438,3.45,5.016,4.825,7.663c0.777,1.499,1.453,3.077,1.855,4.72c0.386,1.529,0.522,3.128,0.544,4.702l0.013,3.118
			c-0.982,17.329-1.197,35,1.039,52.24c0.541,4.1,1.279,8.429,2.192,12.462c-0.033,0.393,9.934,37.952,10.415,39.798"/>
	</g>
	<g id="POLYLINE_1722_">
		
			<path fill="none" stroke="#E74C3C" stroke-width="2.75" stroke-linecap="round" stroke-linejoin="round" stroke-miterlimit="10" d="
			M291.238,571.347c4.512-5.243,9.089-10.783,12.952-16.52c4.087-5.996,7.698-12.739,10.987-19.212
			c1.238-2.514,8.827-18.001,9.9-20.095c2.16-4.139,5.808-10.831,7.598-15.029c5.14-11.798,9.285-24.296,12.29-36.809
			c2.348-10.122,4.802-20.981,6.11-31.291"/>
	</g>
	<g id="POLYLINE_1723_">
		
			<path fill="none" stroke="#E74C3C" stroke-width="2.75" stroke-linecap="round" stroke-linejoin="round" stroke-miterlimit="10" d="
			M298.689,322.649c-1.798,12.637-3.382,26.336-4.271,39.071c-1.186,16.859-1.456,35.598-1.389,52.528
			c0.107,2.409-0.006,5.936,0.222,8.302c0.035,0.302,0.089,0.608,0.207,0.89c0.166,0.409,0.484,0.732,0.835,0.99
			c0.839,0.609,1.807,1.044,2.754,1.458c3.22,1.355,6.721,2.359,10.099,3.254c5.559,1.437,11.463,2.57,17.153,3.347
			c4.579,0.609,9.426,1.082,14.039,1.214c2.804,0.07,5.699,0.058,8.486-0.277c1.255-0.161,2.536-0.376,3.727-0.815
			c0.667-0.249,1.317-0.592,1.814-1.111c0.701-0.718,0.986-1.719,1.189-2.676c0.073-0.361,0.345-1.724,0.423-2.056
			c0.474-2.053,1.196-4.171,1.892-6.16l5.039-13.645c3.851-10.827,7.219-22.37,9.827-33.562"/>
	</g>
	<g id="POLYLINE_1724_">
		
			<path fill="none" stroke="#E74C3C" stroke-width="2.75" stroke-linecap="round" stroke-linejoin="round" stroke-miterlimit="10" d="
			M305.42,428.719c-0.894,9.405-0.85,19.015,0.31,28.395c0.175,2.697,0.408,5.629,0.185,8.311c-0.15,2.007-0.518,4.01-1.098,5.938
			c-0.658,2.205-1.617,4.363-2.633,6.426c-2.854,5.741-7.975,13.948-10.979,19.627c-2.827,5.218-5.221,10.762-7.073,16.401
			c-2.881,8.524-4.887,18.478-7.194,27.183c-1.662,6.252-4.439,13.179-6.612,19.283"/>
	</g>
	<g id="POLYLINE_1725_">
		
			<path fill="none" stroke="#E74C3C" stroke-width="2.75" stroke-linecap="round" stroke-linejoin="round" stroke-miterlimit="10" d="
			M361.085,406.463c7.31,0.346,14.85,0.399,22.132-0.315c10.079-0.996,20.197-2.968,30.034-5.349
			c3.06-0.802,6.343-1.571,9.263-2.793c0.444-0.207,0.886-0.445,1.243-0.785c0.357-0.332,0.583-0.791,0.635-1.275
			c0.075-0.652-0.056-1.31-0.222-1.939c-0.243-0.898-0.603-1.79-0.97-2.645c-0.571-1.406-5.078-10.393-5.828-11.946
			c-3.045-6.427-6.132-13.325-8.569-19.996c-1.058-2.931-2.059-5.964-2.661-9.025l-0.705-3.775
			c-0.281-1.395-0.689-2.788-1.408-4.025c-1.609-2.731-4.107-4.909-6.776-6.574"/>
	</g>
	<g id="POLYLINE_1726_">
		
			<path fill="none" stroke="#E74C3C" stroke-width="2.75" stroke-linecap="round" stroke-linejoin="round" stroke-miterlimit="10" d="
			M327.706,215.096c-5.702,0.796-11.616,1.514-17.34,0.681c-8.18-1.125-16.839-3.917-25.161-3.149
			c-8.401,0.668-17.051,3.968-25.465,5.163c-8.151,1.285-17.11,1.911-25.361,2.453c-5.933,0.389-15.798,0.628-21.57,1.646
			c-3.172,0.532-6.34,1.367-9.241,2.779c-4.221,2.013-8.347,5.165-12.659,6.996c-3.087,1.326-6.42,2.062-9.744,2.48
			c-3.662,0.441-7.405,0.524-11.073,0.105c-1.749-0.214-4.457-0.626-6.19-0.669c-1.545-0.072-3.903,0.108-5.468,0.182
			c-1.47,0.043-3.01,0.122-4.435-0.301c-0.426-0.136-0.844-0.336-1.162-0.657c-0.558-0.563-0.699-1.405-0.641-2.169
			c0.142-1.599,0.929-3.132,2.105-4.219c0.889-0.821,1.978-1.398,3.079-1.882c1.233-0.545,2.772-1.059,4.056-1.5
			c6.815-2.26,14.604-4.669,21.532-6.501c1.896-0.494,4.097-1.041,6.015-1.433c1.36-0.271,5.339-1.008,6.651-1.369
			c1.964-0.497,3.888-1.277,5.733-2.109c5.542-2.597,13.046-6.308,18.709-8.535c13.729-5.484,28.107-10.156,42.435-13.8
			c4.875-1.205,10.129-2.353,15.108-3.025c5.161-0.764,12.833-1.097,18.027-1.44c8.458-0.593,19.514-2.468,27.922-3.762"/>
	</g>
	<g id="POLYLINE_1727_">
		
			<path fill="none" stroke="#E74C3C" stroke-width="2.75" stroke-linecap="round" stroke-linejoin="round" stroke-miterlimit="10" d="
			M457.105,264.832c0.478,5.615,1.39,12.215,2.197,17.797c0.481,2.95,0.993,6.007,1.934,8.848c0.339,0.982,0.744,1.971,1.395,2.791
			c0.495,0.634,1.145,1.131,1.819,1.562l2.128,1.334c0.495,0.316,1.926,1.289,2.432,1.634c10.771,7.655,26.388,18.951,37.388,25.913
			c1.481,0.928,3.101,1.906,4.649,2.708c2.941,1.555,6.144,2.618,9.386,3.338"/>
	</g>
	<g id="POLYLINE_1728_">
		
			<path fill="none" stroke="#E74C3C" stroke-width="2.75" stroke-linecap="round" stroke-linejoin="round" stroke-miterlimit="10" d="
			M427.16,262.174c0.129,11.272,2.467,22.55,5.095,33.476c1.264,4.996,2.448,10.236,5.049,14.732
			c0.827,1.405,1.841,2.716,3.044,3.819c1.593,1.477,3.472,2.642,5.361,3.7c6.427,3.262,12.455,7.7,18.898,10.706
			c10.998,5.044,24.508,8.83,35.536,13.806c6.386,2.877,15.905,7.543,22.466,9.637c5.674,1.873,11.592,3.164,17.523,3.876
			c4.83,0.531,9.807,0.821,14.606-0.101c2.741-0.523,5.391-1.69,7.878-2.933l1.271-0.582c0.522-0.245,1.05-0.563,1.334-1.084
			c0.271-0.492,0.364-1.063,0.392-1.618c0.028-0.724-0.063-1.459-0.304-2.143"/>
	</g>
	<g id="POLYLINE_1729_">
		
			<path fill="none" stroke="#E74C3C" stroke-width="2.75" stroke-linecap="round" stroke-linejoin="round" stroke-miterlimit="10" d="
			M333.29,217.139c-6.745,12.889-13.053,26.612-17.894,40.326c-2.101,6.046-12.094,35.183-13.982,40.586
			c-1.631,5.038-3.545,10.366-4.33,15.613c-0.312,2.217-0.476,4.564,0.309,6.703c0.806,2.201,2.608,3.826,4.421,5.221
			c3.017,2.296,6.38,4.224,9.72,6.009c7.956,4.187,16.503,7.724,24.961,10.761c7.679,2.714,15.639,5.102,23.673,6.481
			c9.209,1.517,19.377,2.086,27.757-2.705c2.884-1.644,5.5-3.843,7.426-6.56c1.104-1.568,1.983-3.326,2.387-5.209
			c0.816-3.771-0.317-7.733-0.584-11.507c-0.281-3.455,0.119-6.957,0.756-10.353c1.144-5.943,3.059-11.819,5.126-17.5
			c2.99-8.094,6.802-16.11,12.677-22.526c3.702-4.1,8.068-7.709,12.44-11.072c0.679-0.504,1.398-1.016,2.19-1.329
			c0.832-0.342,1.759-0.393,2.64-0.239c0.769,0.122,1.53,0.36,2.267,0.608c1.806,0.63,4.805,1.88,6.612,2.493
			c2.538,0.874,5.177,1.567,7.824,2.012c1.664,0.271,3.384,0.462,5.072,0.368c0.708-0.045,1.43-0.143,2.1-0.387
			c0.569-0.204,1.1-0.559,1.415-1.086c0.248-0.403,0.375-0.872,0.437-1.338c0.105-0.74,0.052-1.5,0.01-2.242
			c-0.483-5.476-0.765-11.787-0.871-17.293c-0.074-5.173-0.051-17.013-0.432-21.992c-0.227-3.363-0.596-6.791-1.438-10.06
			c-0.512-1.974-1.212-3.922-2.217-5.701c-1.384-2.518-3.597-4.961-5.46-7.148c-1.45-1.654-2.622-3.739-3.71-5.648"/>
	</g>
	<g id="POLYLINE_1730_">
		
			<path fill="none" stroke="#E74C3C" stroke-width="2.75" stroke-linecap="round" stroke-linejoin="round" stroke-miterlimit="10" d="
			M361.593,216.482c-4.668,0.704-9.58,0.871-14.302,0.909c-3.488-0.104-9.931,0.053-13.331-0.196
			c-1.079-0.081-2.177-0.205-3.225-0.482c-0.928-0.245-1.839-0.623-2.592-1.228c-1.183-0.937-1.877-2.338-2.355-3.74
			c-0.567-1.679-0.904-3.473-1.201-5.218c-0.58-3.522-0.957-7.318-1.212-10.882c-0.225-3.465-0.379-7.137-0.238-10.604
			c0.073-1.411,0.156-2.87,0.493-4.247c0.184-0.732,0.504-1.468,1.109-1.948c0.377-0.308,0.826-0.519,1.277-0.699
			c1.154-0.454,2.44-0.772,3.641-1.084c5.799-1.394,12.588-2.799,18.081-5.067l7.226-2.954c3.154-1.239,6.453-2.272,9.794-2.853
			c7.594-1.329,17.641-1.16,25.373-1.591c2.849-0.162,5.879-0.394,8.689-0.872c2.355-0.398,4.728-0.991,7.007-1.704
			c2.215-0.673,4.927-1.754,7.136-2.455c1.223-0.382,2.697-0.672,3.944-0.968"/>
	</g>
	<g id="POLYLINE_1731_">
		
			<path fill="none" stroke="#E74C3C" stroke-width="2.75" stroke-linecap="round" stroke-linejoin="round" stroke-miterlimit="10" d="
			M419.646,155.759c-0.876,0.606-1.648,1.369-2.297,2.213c-0.531,0.7-0.991,1.468-1.278,2.301c-0.323,0.924-0.372,1.92-0.306,2.889
			c0.335,3.771,1.099,7.709,1.807,11.43c1.097,5.47,2.393,11.237,3.97,16.588c0.768,2.547,1.628,5.174,2.734,7.594
			c0.51,1.095,1.069,2.195,1.823,3.144c0.395,0.489,0.855,0.947,1.42,1.234c0.443,0.227,0.955,0.319,1.448,0.242
			c0.699-0.107,1.336-0.455,1.923-0.833c1.819-1.206,3.634-3.103,5.324-4.484c2.72-2.284,6.345-4.347,9.34-6.263"/>
	</g>
	<g id="POLYLINE_1732_">
		
			<path fill="none" stroke="#E74C3C" stroke-width="2.75" stroke-linecap="round" stroke-linejoin="round" stroke-miterlimit="10" d="
			M432.495,151.292c-1.03,1.868-2.525,3.584-4.422,4.599c-0.703,0.37-1.482,0.597-2.275,0.649c-1.346,0.118-2.816-0.248-4.138-0.471
			c-0.983-0.195-2.091-0.207-3.024-0.603c-0.3-0.133-0.579-0.331-0.768-0.603c-0.182-0.26-0.28-0.57-0.336-0.88
			c-0.188-1.229,0.069-2.484,0.295-3.691c0.531-2.462,3.172-13.818,3.744-16.172c1.088-4.304,2.283-8.753,4.086-12.815
			c1.309-2.951,2.986-5.78,5.154-8.184c2.123-2.357,4.691-4.3,7.437-5.877c5.507-3.109,11.906-5.071,18.271-4.653
			c5.962,0.377,11.518,3.049,16.372,6.398c3.098,2.136,6.012,4.605,8.689,7.248c2.254,2.249,4.411,4.681,5.984,7.464
			c0.586,1.044,1.087,2.151,1.433,3.298c0.513,1.641,0.741,3.741,1.002,5.447c0.154,0.966,0.346,1.961,0.652,2.891
			c0.296,0.933,0.889,2.11,1.302,3.007c0.414,0.946,0.868,2.002,0.605,3.05c-0.125,0.484-0.424,0.905-0.764,1.264
			c-0.744,0.772-1.683,1.341-2.604,1.876l-2.113,1.172c-0.168,0.095-0.596,0.35-0.766,0.453c-0.565,0.347-1.92,1.216-2.485,1.515"/>
	</g>
	<g id="POLYLINE_1733_">
		
			<path fill="none" stroke="#E74C3C" stroke-width="2.75" stroke-linecap="round" stroke-linejoin="round" stroke-miterlimit="10" d="
			M438.271,160.772c-0.781-0.432-1.654-0.872-2.325-1.464c-0.59-0.502-1.08-1.119-1.481-1.78c-0.882-1.471-1.455-3.124-1.776-4.805
			c-0.306-1.659-0.355-3.398,0.063-5.042c0.671-2.662,2.74-4.818,5.168-6.007c1.238-0.586,2.675-0.991,4.036-0.64
			c1.365,0.358,2.326,1.518,2.967,2.717c1.486,2.791,1.869,6.231,3.035,9.149c0.386,0.948,0.871,1.889,1.615,2.608
			c0.701,0.673,1.635,1.141,2.616,1.172c0.59,0.019,1.193-0.143,1.667-0.501c0.518-0.39,0.864-0.961,1.158-1.529
			c0.736-1.459,1.24-3.224,2.26-4.522c0.917-1.215,2.422-1.691,3.852-1.997c0.961-0.21,2.402-0.428,3.306-0.783
			c0.454-0.174,0.888-0.424,1.218-0.787c0.669-0.732,0.915-1.734,1.137-2.675c0.282-1.26,0.562-2.788,0.969-4.002
			c0.711-2.198,1.688-4.339,2.923-6.292c0.578-0.899,1.222-1.776,1.994-2.519c0.48-0.457,1.021-0.875,1.65-1.102
			c0.527-0.193,1.111-0.224,1.656-0.086c0.691,0.172,1.305,0.568,1.843,1.024c0.878,0.752,1.598,1.68,2.222,2.649
			c0.906,1.418,1.624,2.976,2.187,4.561c1.837,5.206,1.892,10.884,1.171,16.307c-0.243,1.725-0.568,3.481-1.129,5.133
			c-0.359,1.053-0.834,2.083-1.507,2.974l-0.846,1.104c-0.39,0.52-0.739,1.088-0.918,1.718c-0.367,1.346-0.209,2.778-0.065,4.146
			c0.188,1.724,0.665,4.281,0.571,5.993c-0.025,0.492-0.087,0.99-0.247,1.457c-0.133,0.393-0.35,0.767-0.669,1.038
			c-0.346,0.299-0.779,0.479-1.22,0.585c-1.311,0.307-2.698,0.056-4.003-0.177c-0.598-0.092-1.228-0.21-1.826-0.061
			c-0.242,0.063-0.469,0.193-0.63,0.387c-0.351,0.433-0.471,1.002-0.595,1.534l-0.249,1.221c-0.142,0.638-0.314,1.297-0.709,1.83
			c-0.52,0.721-1.36,1.182-2.064,1.699c-0.971,0.675-1.669,1.779-2.347,2.729c-0.191,0.264-0.403,0.537-0.621,0.779
			c-0.38,0.421-0.848,0.887-1.121,1.385c-0.23,0.402-0.349,0.859-0.437,1.311c-0.233,1.17-0.333,2.541-1.219,3.431
			c-0.582,0.571-1.4,0.81-2.185,0.942c-2.223,0.318-4.496-0.049-6.67-0.529c-2.133-0.505-4.28-1.189-6.1-2.442
			c-2.078-1.44-3.703-3.451-5.164-5.489c-2.08-2.996-3.826-6.312-4.649-9.884"/>
	</g>
	<g id="POLYLINE_1734_">
		
			<path fill="none" stroke="#E74C3C" stroke-width="2.75" stroke-linecap="round" stroke-linejoin="round" stroke-miterlimit="10" d="
			M583.572,318.029c0.035-11.154-5.797-21.771-15.229-27.726c-17.012-10.775-39.56-3.92-47.697,14.5
			c-3.696,8.313-3.697,18.138,0,26.452c8.137,18.42,30.685,25.274,47.697,14.5C577.774,339.8,583.607,329.183,583.572,318.029z"/>
	</g>
	<g id="POLYLINE_1735_">
		
			<path fill="none" stroke="#E74C3C" stroke-width="2.75" stroke-linecap="round" stroke-linejoin="round" stroke-miterlimit="10" d="
			M417.474,585.576c-0.442-3.669-0.734-8.779-1.148-12.459c-0.203-1.991-0.704-4.807-1.049-6.801c-0.2-1.39-0.479-2.953-0.143-4.334
			c0.09-0.337,0.236-0.664,0.46-0.933c0.263-0.32,0.619-0.552,0.995-0.717c0.566-0.248,1.186-0.377,1.792-0.481
			c0.121-0.02,0.355-0.057,0.476-0.074c0,0,0.507-0.068,0.507-0.068l13.397-1.575c2.929-0.302,6.204-0.678,9.141-0.671
			c0.637,0.009,1.294,0.032,1.921,0.151c0.657,0.121,1.295,0.399,1.681,0.97c0.375,0.545,0.544,1.203,0.674,1.844
			c0.174,0.888,0.245,1.831,0.302,2.734c0.151,3.675,0.479,11.282,0.721,15.009c0.038,1.006,0.091,2.557,0.097,3.552"/>
	</g>
	<g id="POLYLINE_1736_">
		
			<path fill="none" stroke="#E74C3C" stroke-width="2.75" stroke-linecap="round" stroke-linejoin="round" stroke-miterlimit="10" d="
			M259.78,584.976c1.24-6.662,4.385-13.533,6.776-19.855c0.533-1.281,1.069-2.615,1.941-3.708c0.408-0.499,0.933-0.945,1.576-1.087
			c0.53-0.12,1.084-0.044,1.601,0.101c1.052,0.304,2.034,0.866,2.98,1.409c4.724,3.006,11.211,6.221,16.011,9.108
			c0.402,0.265,0.808,0.548,1.122,0.917c0.222,0.259,0.381,0.574,0.437,0.912c0.063,0.369,0.02,0.748-0.053,1.113
			c-0.365,1.677-1.451,3.635-2.156,5.202c-0.294,0.663-1.138,2.613-1.446,3.231"/>
	</g>
	<g id="POLYLINE_1737_">
		
			<path fill="none" stroke="#E74C3C" stroke-width="2.75" stroke-linecap="round" stroke-linejoin="round" stroke-miterlimit="10" d="
			M263.398,623.891l-12.505-0.003c-0.853-0.012-1.755-0.075-2.497-0.537c-0.596-0.366-1.02-0.953-1.311-1.579
			c-0.428-0.923-0.638-1.937-0.796-2.937c-0.311-2.088-0.348-4.241-0.254-6.348c0.135-2.795,0.535-5.616,1.229-8.328
			c1.595-6.11,4.467-11.917,7.48-17.441c0.448-0.744,0.957-1.498,1.708-1.964c0.387-0.244,0.828-0.412,1.285-0.456
			c0.428-0.043,0.866,0.029,1.262,0.199c0.662,0.279,1.184,0.802,1.628,1.354c1.224,1.549,2.078,3.48,2.96,5.238
			c0.431,0.849,0.955,1.677,1.693,2.292c0.835,0.709,1.878,1.126,2.931,1.39c1.463,0.36,2.993,0.465,4.493,0.33
			c1.693-0.158,3.393-0.649,4.792-1.639c1.447-1.03,2.511-2.504,3.436-3.999c1.068-1.704,2.147-4.061,3.432-5.613
			c0.543-0.639,1.185-1.227,1.967-1.554c0.599-0.255,1.287-0.308,1.909-0.106c0.902,0.285,1.599,0.985,2.17,1.713
			c1.195,1.566,2.02,3.404,2.807,5.199c0.914,2.135,2.143,5.526,3.338,7.479c0.794,1.347,1.847,2.515,3.24,3.255
			c2.202,1.204,5.713,1.857,8.129,2.554c3.106,0.886,6.33,1.809,9.232,3.241c0.813,0.416,1.612,0.898,2.262,1.546
			c0.927,0.902,1.345,2.106,1.533,3.359c0.262,1.832,0.342,3.717,0.266,5.565c-0.076,1.451-0.251,2.931-0.769,4.297
			c-0.216,0.56-0.501,1.103-0.894,1.56c-0.374,0.438-0.844,0.791-1.358,1.047c-1.058,0.526-2.255,0.697-3.422,0.792
			c-0.771,0.062-1.633,0.076-2.408,0.086C312.365,623.887,263.398,623.891,263.398,623.891z"/>
	</g>
	<g id="POLYLINE_1738_">
		
			<path fill="none" stroke="#E74C3C" stroke-width="2.75" stroke-linecap="round" stroke-linejoin="round" stroke-miterlimit="10" d="
			M427.91,623.891c-0.818-0.018-15.845,0.064-16.225-0.07c-0.613-0.069-1.23-0.214-1.772-0.516
			c-1.646-0.928-2.143-2.934-2.469-4.664c-0.435-2.534-0.484-5.147-0.403-7.713c0.151-4.565,0.917-9.134,2.138-13.533
			c0.835-2.93,1.792-5.9,3.089-8.66c0.46-0.924,1.003-1.861,1.848-2.484c0.993-0.741,2.334-1.035,3.52-0.625
			c0.491,0.162,0.943,0.431,1.344,0.756c0.95,0.76,1.931,2.032,2.754,2.939c1.114,1.267,2.376,2.438,3.855,3.265
			c1.549,0.884,3.299,1.406,5.075,1.546c3.202,0.251,6.529-0.578,9.121-2.503c1.778-1.312,3.09-3.151,4.285-4.983
			c0.852-1.29,2.084-3.415,3.001-4.624c0.662-0.894,1.425-1.741,2.358-2.358c0.712-0.473,1.543-0.802,2.405-0.822
			c0.84-0.026,1.668,0.256,2.361,0.721c0.813,0.542,1.477,1.283,2.067,2.054c1.125,1.492,2.024,3.185,2.864,4.85
			c1.421,2.882,2.859,6.238,5.219,8.482c1.279,1.257,2.828,2.214,4.429,3.006c2.488,1.223,5.183,2.118,7.83,2.931l10.724,3.089
			c2.138,0.675,4.363,1.335,6.329,2.431c0.822,0.472,1.597,1.074,2.117,1.877c0.611,0.93,0.835,2.05,0.974,3.137
			c0.22,1.824,0.296,3.689,0.115,5.52c-0.197,1.76-0.598,3.66-1.87,4.973c-0.722,0.731-1.685,1.171-2.667,1.434
			c-1.651,0.436-3.402,0.489-5.102,0.53L427.91,623.891z"/>
	</g>
</g>
<g id="_x32_D_x24_AG-OUTLINE">
	<g id="POLYLINE_132_">
		
			<path fill="none" stroke="#E74C3C" stroke-width="3.5" stroke-linecap="round" stroke-linejoin="round" stroke-miterlimit="10" d="
			M583.572,318.029c0.032,12.413-7.127,23.95-18.261,29.435c0.247,0.704,0.338,1.462,0.301,2.205
			c-0.033,0.535-0.128,1.083-0.389,1.556c-0.284,0.521-0.812,0.839-1.334,1.084l-1.271,0.582c-2.491,1.243-5.135,2.409-7.878,2.933
			c-4.799,0.922-9.777,0.632-14.606,0.101c-5.931-0.712-11.85-2.002-17.523-3.876c-6.536-2.07-16.141-6.798-22.466-9.637
			c-11.026-4.975-24.539-8.763-35.536-13.806c-4.205-1.934-8.912-4.934-12.88-7.365c-1.525-0.926-4.431-2.477-6.019-3.341
			c-1.89-1.059-3.768-2.223-5.361-3.7c-1.203-1.103-2.217-2.414-3.044-3.819c-2.601-4.495-3.785-9.738-5.049-14.732
			c-2.628-10.926-4.966-22.203-5.095-33.476c-6.157,4.786-12.141,10.088-16.37,16.709c-3.546,5.467-6.134,11.572-8.323,17.693
			c-2.067,5.872-3.977,11.932-4.925,18.096c-0.354,2.383-0.564,4.836-0.447,7.245c0.108,2.549,0.671,5.378,0.873,7.92
			c0.17,2.08,0.033,4.222-0.713,6.187c2.67,1.667,5.166,3.841,6.776,6.574c0.718,1.237,1.127,2.63,1.408,4.025l0.705,3.775
			c0.602,3.061,1.603,6.094,2.661,9.025c2.436,6.667,5.526,13.574,8.569,19.996c1.217,2.564,5.451,10.745,6.363,13.262
			c0.264,0.712,0.505,1.448,0.622,2.199c0.073,0.496,0.096,1.016-0.06,1.499c-0.122,0.386-0.375,0.719-0.686,0.974
			c2.213,4.359,4.492,9.425,7.12,13.537c2.92,4.578,6.444,9.575,8.113,14.763c1.522,4.63,1.794,9.591,1.822,14.433
			c-0.017,1.736-0.117,7.298-0.074,8.886c0.248,8.548,0.602,21.52,0.692,30.13c0.046,10.409,0.006,34.011,0.372,44.122
			c0.319,10.889,1.162,23.505,2.121,34.385c0.487,0.09,0.98,0.251,1.362,0.578c0.365,0.308,0.596,0.742,0.755,1.185
			c0.244,0.686,0.359,1.422,0.446,2.143c0.084,0.715,0.133,1.524,0.169,2.244c0.091,3.349,0.492,11.007,0.69,14.415
			c0.038,1.006,0.091,2.557,0.097,3.552c1.153-1.487,2.792-2.951,4.789-2.878c1.488,0.05,2.727,1.042,3.655,2.13
			c2.336,2.762,3.751,6.474,5.449,9.637c0.906,1.677,2.001,3.285,3.41,4.581c1.226,1.14,2.678,2.022,4.173,2.763
			c2.488,1.223,5.183,2.118,7.83,2.931l10.724,3.089c2.138,0.675,4.363,1.335,6.329,2.431c0.822,0.472,1.597,1.074,2.117,1.877
			c0.611,0.93,0.835,2.05,0.974,3.137c0.22,1.824,0.296,3.689,0.115,5.52c-0.197,1.76-0.598,3.66-1.87,4.973
			c-0.722,0.731-1.685,1.171-2.667,1.434c-1.651,0.436-3.402,0.489-5.102,0.53c-12.383-0.066-64.359,0.16-75.644-0.068
			c-0.743-0.091-1.491-0.316-2.09-0.78c-1.072-0.827-1.547-2.174-1.854-3.446c-0.525-2.301-0.629-4.701-0.63-7.054
			c0.019-5.718,1.008-11.435,2.684-16.895c0.818-2.558,1.685-5.263,2.964-7.629c0.369-0.643,0.814-1.262,1.409-1.714
			c0.952-0.732,2.242-1.056,3.409-0.715c-0.442-3.669-0.734-8.779-1.148-12.459c-0.203-1.991-0.704-4.807-1.049-6.801
			c-0.193-1.308-0.421-2.666-0.219-3.984c0.071-0.416,0.204-0.832,0.454-1.176c0.234-0.327,0.564-0.574,0.922-0.751
			c-0.533-2.12-10.404-39.133-10.415-39.798c-0.913-4.033-1.651-8.361-2.192-12.462c-2.236-17.239-2.021-34.913-1.039-52.24
			c-0.02-2.192,0.075-4.69-0.344-6.836c-0.319-1.752-0.948-3.444-1.733-5.039c-1.716-3.465-4.009-6.745-6.275-9.872
			c-6.058-8.021-15.427-19.772-21.891-27.45c-3.626,0.045-7.83-0.082-11.46-0.244l-5.217,14.145
			c-0.696,1.991-1.418,4.107-1.892,6.16c-0.076,0.325-0.352,1.703-0.423,2.056c-0.17,0.783-0.379,1.587-0.842,2.253
			c-0.402,0.587-0.995,1.017-1.635,1.314c-1.308,10.307-3.762,21.17-6.11,31.291c-3.005,12.513-7.151,25.011-12.29,36.809
			c-1.783,4.189-5.466,10.94-7.598,15.029c-1.033,2.012-8.706,17.672-9.9,20.095c-3.292,6.478-6.897,13.212-10.987,19.212
			c-3.862,5.735-8.442,11.279-12.952,16.52c0.307,0.24,0.601,0.515,0.79,0.86c0.159,0.285,0.229,0.614,0.227,0.938
			c-0.002,0.416-0.093,0.83-0.205,1.229c-0.414,1.448-1.405,3.332-2.035,4.712c-0.294,0.663-1.138,2.613-1.446,3.231
			c0.787,0.357,1.396,1.008,1.914,1.684c1.152,1.546,1.963,3.343,2.732,5.103c0.914,2.135,2.143,5.526,3.338,7.479
			c0.794,1.347,1.847,2.515,3.24,3.255c2.202,1.204,5.713,1.857,8.129,2.554c3.106,0.886,6.33,1.809,9.232,3.241
			c0.813,0.416,1.612,0.898,2.262,1.546c0.927,0.902,1.345,2.106,1.533,3.359c0.248,1.72,0.328,3.493,0.28,5.23
			c-0.061,1.539-0.223,3.111-0.757,4.565c-0.219,0.584-0.511,1.152-0.919,1.627c-0.374,0.438-0.844,0.791-1.358,1.047
			c-0.915,0.457-1.94,0.643-2.949,0.75c-11.203,0.341-53.751,0.03-64.354,0.13c-0.756-0.012-1.543-0.058-2.234-0.393
			c-0.631-0.299-1.113-0.843-1.437-1.452c-0.74-1.429-0.942-3.074-1.107-4.656c-0.321-3.852-0.014-7.771,0.759-11.554
			c0.92-4.373,2.611-8.59,4.529-12.614c1.094-2.187,2.341-4.882,3.626-6.957c0.379-0.581,0.828-1.14,1.424-1.509
			c0.506-0.32,1.108-0.506,1.709-0.461c0.597,0.04,1.161,0.306,1.62,0.682c1.24-6.662,4.385-13.533,6.776-19.855
			c0.533-1.281,1.069-2.615,1.941-3.708c0.458-0.567,1.083-1.057,1.83-1.13c2.18-6.124,4.948-13.028,6.612-19.283
			c2.311-8.716,4.312-18.654,7.194-27.183c1.852-5.64,4.245-11.182,7.073-16.401c3.198-6.054,8.443-14.342,11.402-20.498
			c0.85-1.787,1.644-3.657,2.209-5.555c0.58-1.927,0.948-3.931,1.098-5.938c0.223-2.677-0.007-5.629-0.185-8.311
			c-1.16-9.385-1.206-19.002-0.305-28.412c-3.413-0.988-6.916-2.002-10.089-3.624c-0.555-0.308-1.129-0.631-1.554-1.112
			c-0.431-0.485-0.52-1.155-0.565-1.779c-0.49-17.283-0.091-36.296,0.765-53.558c0.828-15.094,2.567-31.019,4.707-45.98
			c-0.751-0.947-1.307-2.051-1.583-3.229c-0.596-2.622-0.135-5.374,0.374-7.974c0.922-4.418,2.5-9.103,3.934-13.395
			c5.325-15.256,13.316-40.089,19.468-54.778c3.569-8.608,8.124-17.841,12.408-26.134c-1.978-0.198-4.122-0.586-5.584-2.043
			c-5.702,0.796-11.616,1.514-17.34,0.681c-8.18-1.125-16.839-3.917-25.161-3.149c-8.401,0.668-17.051,3.968-25.465,5.163
			c-8.151,1.285-17.11,1.911-25.361,2.453c-5.933,0.389-15.798,0.628-21.57,1.646c-3.172,0.532-6.34,1.367-9.241,2.779
			c-4.221,2.013-8.347,5.165-12.659,6.996c-3.087,1.326-6.42,2.062-9.744,2.48c-3.662,0.441-7.405,0.524-11.073,0.105
			c-1.749-0.214-4.457-0.626-6.19-0.669c-1.545-0.072-3.903,0.108-5.468,0.182c-1.47,0.043-3.01,0.122-4.435-0.301
			c-0.426-0.136-0.844-0.336-1.162-0.657c-0.558-0.563-0.699-1.405-0.641-2.169c0.142-1.599,0.929-3.132,2.105-4.219
			c0.889-0.821,1.978-1.398,3.079-1.882c1.233-0.545,2.772-1.059,4.056-1.5c6.815-2.26,14.604-4.669,21.532-6.501
			c1.896-0.494,4.097-1.041,6.015-1.433c1.36-0.271,5.339-1.008,6.651-1.369c1.964-0.497,3.888-1.277,5.733-2.109
			c5.542-2.597,13.046-6.308,18.709-8.535c13.729-5.484,28.107-10.156,42.435-13.8c4.875-1.205,10.129-2.353,15.108-3.025
			c5.161-0.764,12.833-1.097,18.027-1.44c8.458-0.593,19.514-2.468,27.922-3.762c0.175-0.788,0.463-1.604,1.092-2.145
			c0.303-0.267,0.663-0.466,1.031-0.63c1.252-0.537,2.65-0.878,3.968-1.221c5.799-1.394,12.588-2.799,18.081-5.067l7.226-2.954
			c3.154-1.239,6.453-2.272,9.794-2.853c7.594-1.329,17.641-1.16,25.373-1.591c2.849-0.162,5.879-0.394,8.689-0.872
			c2.355-0.398,4.728-0.991,7.007-1.704c2.215-0.673,4.927-1.754,7.136-2.455c1.223-0.382,2.697-0.672,3.944-0.968
			c0.724-1.104,1.654-2.085,2.739-2.84c-0.596-0.116-1.233-0.284-1.658-0.745c-0.227-0.248-0.357-0.569-0.429-0.894
			c-0.124-0.57-0.105-1.165-0.057-1.743c0.076-0.889,0.268-1.824,0.453-2.699c0.834-3.617,3.253-14.271,4.16-17.699
			c1.96-7.494,4.575-15.352,10.5-20.673c3.116-2.828,6.829-4.972,10.742-6.493c3.644-1.401,7.531-2.289,11.448-2.283
			c2.514,0.001,5.031,0.386,7.437,1.11c3.621,1.088,7.009,2.905,10.141,5.003c3.293,2.216,6.374,4.806,9.197,7.594
			c2.207,2.201,4.319,4.579,5.884,7.288c0.629,1.097,1.167,2.262,1.533,3.474c0.515,1.646,0.74,3.737,1.002,5.447
			c0.154,0.966,0.346,1.961,0.652,2.891c0.296,0.933,0.889,2.11,1.302,3.007c0.414,0.946,0.868,2.002,0.605,3.05
			c-0.125,0.484-0.424,0.905-0.764,1.264c-0.744,0.772-1.683,1.341-2.604,1.876l-2.113,1.172c-0.168,0.095-0.596,0.35-0.766,0.453
			c-0.565,0.347-1.92,1.216-2.485,1.515c0.041,3.176-0.251,6.387-0.901,9.497c-0.42,1.882-0.988,3.8-2.159,5.362l-0.846,1.104
			c-0.39,0.52-0.739,1.088-0.918,1.718c-0.367,1.346-0.209,2.778-0.065,4.146c0.188,1.724,0.665,4.281,0.571,5.993
			c-0.025,0.492-0.087,0.99-0.247,1.457c-0.133,0.393-0.35,0.767-0.669,1.038c-0.346,0.299-0.779,0.479-1.22,0.585
			c-1.311,0.307-2.698,0.056-4.003-0.177c-0.598-0.092-1.228-0.21-1.826-0.061c-0.242,0.063-0.469,0.193-0.63,0.387
			c-0.351,0.433-0.471,1.002-0.595,1.534l-0.249,1.221c-0.142,0.638-0.314,1.297-0.709,1.83c-0.52,0.721-1.36,1.182-2.064,1.699
			c-0.971,0.675-1.669,1.779-2.347,2.729c-0.191,0.264-0.403,0.537-0.621,0.779c-0.38,0.421-0.848,0.887-1.121,1.385
			c-0.23,0.402-0.349,0.859-0.437,1.311c-0.219,1.103-0.32,2.369-1.066,3.265c-0.365,0.441-0.888,0.719-1.426,0.893
			c-0.843,0.269-1.742,0.334-2.623,0.334c-1.414-0.009-2.844-0.208-4.228-0.488c-2.809-0.59-5.668-1.491-7.875-3.398l-0.96,0.61
			c1.09,1.913,2.259,3.992,3.71,5.648c1.869,2.197,4.072,4.624,5.46,7.148c1.005,1.779,1.705,3.727,2.217,5.7
			c0.842,3.269,1.211,6.698,1.438,10.06c0.381,4.932,0.359,16.905,0.432,21.992c0.106,5.502,0.389,11.817,0.871,17.293
			c0.061,1.121,0.159,2.329-0.332,3.373c-0.259,0.543-0.735,0.958-1.284,1.193c0.478,5.615,1.39,12.215,2.197,17.797
			c0.481,2.95,0.993,6.007,1.934,8.848c0.339,0.982,0.744,1.971,1.395,2.791c0.495,0.634,1.145,1.131,1.819,1.562l2.128,1.334
			c0.495,0.316,1.926,1.289,2.432,1.634c10.771,7.655,26.388,18.951,37.388,25.913c1.481,0.928,3.101,1.906,4.649,2.708
			c2.941,1.555,6.144,2.618,9.386,3.338c-6.068-14.389-1.077-31.189,11.862-39.928c9.735-6.629,22.502-7.489,33.037-2.224
			C576.457,294.095,583.603,305.622,583.572,318.029z"/>
	</g>
</g>
</svg>
